PalanquinDark Bld.ufo
<glyph name="numbersign" format="1">
  <advance width="627"/>
  <unicode hex="0023"/>
  <outline>
    <contour>
      <point x="607" y="82" type="line"/>
      <point x="597" y="215" type="line"/>
      <point x="500" y="215" type="line"/>
      <point x="518" y="293" type="line"/>
      <point x="607" y="293" type="line"/>
      <point x="597" y="426" type="line"/>
      <point x="550" y="426" type="line"/>
      <point x="572" y="517" type="line"/>
      <point x="423" y="517" type="line"/>
      <point x="401" y="426" type="line"/>
      <point x="306" y="426" type="line"/>
      <point x="328" y="517" type="line"/>
      <point x="179" y="517" type="line"/>
      <point x="157" y="426" type="line"/>
      <point x="20" y="426" type="line"/>
      <point x="31" y="293" type="line"/>
      <point x="125" y="293" type="line"/>
      <point x="107" y="215" type="line"/>
      <point x="20" y="215" type="line"/>
      <point x="31" y="82" type="line"/>
      <point x="75" y="82" type="line"/>
      <point x="54" y="-10" type="line"/>
      <point x="201" y="-15" type="line"/>
      <point x="224" y="82" type="line"/>
      <point x="319" y="82" type="line"/>
      <point x="298" y="-10" type="line"/>
      <point x="445" y="-15" type="line"/>
      <point x="468" y="82" type="line"/>
    </contour>
    <contour>
      <point x="274" y="293" type="line"/>
      <point x="369" y="293" type="line"/>
      <point x="351" y="215" type="line"/>
      <point x="256" y="215" type="line"/>
    </contour>
  </outline>
</glyph>
<glyph name="dollar" format="1">
  <advance width="564"/>
  <unicode hex="0024"/>
  <outline>
    <contour>
      <point x="269" y="795" type="line"/>
      <point x="151" y="800" type="line"/>
      <point x="151" y="663" type="line"/>
      <point x="81" y="630"/>
      <point x="41" y="570"/>
      <point x="41" y="500" type="curve" smooth="yes"/>
      <point x="41" y="381"/>
      <point x="154" y="314"/>
      <point x="245" y="268" type="curve" smooth="yes"/>
      <point x="297" y="242"/>
      <point x="350" y="213"/>
      <point x="350" y="189" type="curve" smooth="yes"/>
      <point x="350" y="163"/>
      <point x="319" y="136"/>
      <point x="262" y="136" type="curve" smooth="yes"/>
      <point x="212" y="136"/>
      <point x="139" y="158"/>
      <point x="104" y="179" type="curve"/>
      <point x="44" y="42" type="line"/>
      <point x="67" y="28"/>
      <point x="100" y="15"/>
      <point x="135" y="6" type="curve"/>
      <point x="135" y="-119" type="line"/>
      <point x="253" y="-119" type="line"/>
      <point x="253" y="-13" type="line"/>
      <point x="267" y="-13" type="line" smooth="yes"/>
      <point x="278" y="-13"/>
      <point x="290" y="-13"/>
      <point x="301" y="-12" type="curve"/>
      <point x="301" y="-109" type="line"/>
      <point x="420" y="-122" type="line"/>
      <point x="420" y="16" type="line"/>
      <point x="495" y="51"/>
      <point x="538" y="112"/>
      <point x="538" y="187" type="curve" smooth="yes"/>
      <point x="538" y="298"/>
      <point x="429" y="369"/>
      <point x="332" y="419" type="curve" smooth="yes"/>
      <point x="276" y="448"/>
      <point x="229" y="466"/>
      <point x="229" y="496" type="curve" smooth="yes"/>
      <point x="229" y="521"/>
      <point x="254" y="544"/>
      <point x="296" y="544" type="curve" smooth="yes"/>
      <point x="341" y="544"/>
      <point x="367" y="539"/>
      <point x="440" y="514" type="curve"/>
      <point x="494" y="637" type="line"/>
      <point x="476" y="649"/>
      <point x="455" y="660"/>
      <point x="432" y="668" type="curve"/>
      <point x="432" y="799" type="line"/>
      <point x="313" y="799" type="line"/>
      <point x="313" y="692" type="line"/>
      <point x="306" y="693"/>
      <point x="300" y="693"/>
      <point x="294" y="693" type="curve" smooth="yes"/>
      <point x="285" y="693"/>
      <point x="277" y="693"/>
      <point x="269" y="692" type="curve"/>
    </contour>
  </outline>
</glyph>
<glyph name="ampersand" format="1">
  <advance width="699"/>
  <unicode hex="0026"/>
  <outline>
    <contour>
      <point x="337" y="403" type="line"/>
      <point x="292" y="444"/>
      <point x="271" y="464"/>
      <point x="271" y="490" type="curve" smooth="yes"/>
      <point x="271" y="517"/>
      <point x="294" y="547"/>
      <point x="343" y="547" type="curve" smooth="yes"/>
      <point x="384" y="547"/>
      <point x="427" y="537"/>
      <point x="472" y="511" type="curve"/>
      <point x="521" y="635" type="line"/>
      <point x="463" y="676"/>
      <point x="397" y="696"/>
      <point x="319" y="696" type="curve" smooth="yes"/>
      <point x="185" y="696"/>
      <point x="93" y="602"/>
      <point x="93" y="493" type="curve" smooth="yes"/>
      <point x="93" y="452"/>
      <point x="105" y="419"/>
      <point x="126" y="387" type="curve"/>
      <point x="74" y="341"/>
      <point x="40" y="275"/>
      <point x="40" y="212" type="curve" smooth="yes"/>
      <point x="40" y="53"/>
      <point x="164" y="-24"/>
      <point x="315" y="-24" type="curve"/>
      <point x="384" y="-24"/>
      <point x="446" y="3"/>
      <point x="498" y="45" type="curve"/>
      <point x="572" y="-19" type="line"/>
      <point x="679" y="113" type="line"/>
      <point x="603" y="177" type="line"/>
      <point x="633" y="233"/>
      <point x="652" y="296"/>
      <point x="659" y="357" type="curve"/>
      <point x="499" y="421" type="line"/>
      <point x="494" y="383"/>
      <point x="483" y="337"/>
      <point x="466" y="293" type="curve"/>
    </contour>
    <contour>
      <point x="260" y="126"/>
      <point x="228" y="162"/>
      <point x="228" y="218" type="curve" smooth="yes"/>
      <point x="228" y="236"/>
      <point x="232" y="254"/>
      <point x="240" y="270" type="curve"/>
      <point x="378" y="150" type="line"/>
      <point x="359" y="135"/>
      <point x="340" y="126"/>
      <point x="319" y="126" type="curve" smooth="yes"/>
    </contour>
  </outline>
</glyph>
<glyph name="quotesingle" format="1">
  <advance width="213"/>
  <unicode hex="0027"/>
  <outline>
    <contour>
      <point x="203" y="699"/>
      <point x="162" y="742"/>
      <point x="111" y="742" type="curve" smooth="yes"/>
      <point x="59" y="742"/>
      <point x="19" y="695"/>
      <point x="19" y="650" type="curve" smooth="yes"/>
      <point x="19" y="616"/>
      <point x="38" y="587"/>
      <point x="62" y="572" type="curve"/>
      <point x="56" y="554"/>
      <point x="29" y="532"/>
      <point x="10" y="521" type="curve"/>
      <point x="46" y="441" type="line"/>
      <point x="135" y="474"/>
      <point x="203" y="556"/>
      <point x="203" y="635" type="curve" smooth="yes"/>
    </contour>
  </outline>
</glyph>
<glyph name="parenleft" format="1">
  <advance width="350"/>
  <unicode hex="0028"/>
  <outline>
    <contour>
      <point x="40" y="188"/>
      <point x="88" y="65"/>
      <point x="167" y="-39" type="curve"/>
      <point x="329" y="-1" type="line"/>
      <point x="272" y="69"/>
      <point x="222" y="219"/>
      <point x="222" y="322" type="curve" smooth="yes"/>
      <point x="222" y="422"/>
      <point x="272" y="566"/>
      <point x="330" y="645" type="curve"/>
      <point x="167" y="682" type="line"/>
      <point x="85" y="566"/>
      <point x="40" y="451"/>
      <point x="40" y="321" type="curve" smooth="yes"/>
    </contour>
  </outline>
</glyph>
<glyph name="parenright" format="1">
  <advance width="350"/>
  <unicode hex="0029"/>
  <outline>
    <contour>
      <point x="310" y="455"/>
      <point x="262" y="578"/>
      <point x="183" y="682" type="curve"/>
      <point x="21" y="644" type="line"/>
      <point x="78" y="574"/>
      <point x="128" y="424"/>
      <point x="128" y="321" type="curve" smooth="yes"/>
      <point x="128" y="221"/>
      <point x="78" y="77"/>
      <point x="20" y="-2" type="curve"/>
      <point x="183" y="-39" type="line"/>
      <point x="265" y="77"/>
      <point x="310" y="192"/>
      <point x="310" y="322" type="curve" smooth="yes"/>
    </contour>
  </outline>
</glyph>
<glyph name="asterisk" format="1">
  <advance width="444"/>
  <unicode hex="002A"/>
  <outline>
    <contour>
      <point x="285" y="403" type="line"/>
      <point x="402" y="477" type="line"/>
      <point x="330" y="568" type="line"/>
      <point x="424" y="585" type="line"/>
      <point x="390" y="714" type="line"/>
      <point x="295" y="686" type="line"/>
      <point x="295" y="782" type="line"/>
      <point x="151" y="782" type="line"/>
      <point x="151" y="686" type="line"/>
      <point x="54" y="714" type="line"/>
      <point x="20" y="585" type="line"/>
      <point x="114" y="568" type="line"/>
      <point x="42" y="477" type="line"/>
      <point x="159" y="403" type="line"/>
      <point x="177" y="429"/>
      <point x="200" y="466"/>
      <point x="222" y="496" type="curve"/>
    </contour>
  </outline>
</glyph>
<glyph name="plus" format="1">
  <advance width="563"/>
  <unicode hex="002B"/>
  <outline>
    <contour>
      <point x="543" y="202" type="line"/>
      <point x="533" y="345" type="line"/>
      <point x="366" y="345" type="line"/>
      <point x="366" y="530" type="line"/>
      <point x="198" y="530" type="line"/>
      <point x="198" y="345" type="line"/>
      <point x="20" y="345" type="line"/>
      <point x="31" y="202" type="line"/>
      <point x="198" y="202" type="line"/>
      <point x="198" y="8" type="line"/>
      <point x="366" y="0" type="line"/>
      <point x="366" y="202" type="line"/>
    </contour>
  </outline>
</glyph>
<glyph name="hyphen" format="1">
  <advance width="332"/>
  <unicode hex="002D"/>
  <outline>
    <contour>
      <point x="312" y="202" type="line"/>
      <point x="302" y="345" type="line"/>
      <point x="20" y="345" type="line"/>
      <point x="31" y="202" type="line"/>
    </contour>
  </outline>
</glyph>
<glyph name="period" format="1">
  <advance width="203"/>
  <unicode hex="002E"/>
  <outline>
    <contour>
      <point x="193" y="143"/>
      <point x="153" y="183"/>
      <point x="102" y="183" type="curve" smooth="yes"/>
      <point x="50" y="183"/>
      <point x="10" y="143"/>
      <point x="10" y="91" type="curve" smooth="yes"/>
      <point x="10" y="39"/>
      <point x="50" y="0"/>
      <point x="102" y="0" type="curve" smooth="yes"/>
      <point x="153" y="0"/>
      <point x="193" y="39"/>
      <point x="193" y="91" type="curve" smooth="yes"/>
    </contour>
  </outline>
</glyph>
<glyph name="zero" format="1">
  <advance width="678"/>
  <unicode hex="0030"/>
  <outline>
    <contour>
      <point x="178" y="579"/>
      <point x="40" y="471"/>
      <point x="40" y="284" type="curve" smooth="yes"/>
      <point x="40" y="93"/>
      <point x="186" y="-14"/>
      <point x="338" y="-14" type="curve" smooth="yes"/>
      <point x="500" y="-14"/>
      <point x="638" y="99"/>
      <point x="638" y="286" type="curve" smooth="yes"/>
      <point x="638" y="477"/>
      <point x="500" y="579"/>
      <point x="339" y="579" type="curve" smooth="yes"/>
    </contour>
    <contour>
      <point x="276" y="134"/>
      <point x="228" y="192"/>
      <point x="228" y="287" type="curve" smooth="yes"/>
      <point x="228" y="377"/>
      <point x="279" y="431"/>
      <point x="338" y="431" type="curve" smooth="yes"/>
      <point x="400" y="431"/>
      <point x="450" y="377"/>
      <point x="450" y="283" type="curve" smooth="yes"/>
      <point x="450" y="191"/>
      <point x="400" y="134"/>
      <point x="339" y="134" type="curve" smooth="yes"/>
    </contour>
  </outline>
</glyph>
<glyph name="one" format="1">
  <advance width="493"/>
  <unicode hex="0031"/>
  <outline>
    <contour>
      <point x="68" y="0" type="line"/>
      <point x="473" y="0" type="line"/>
      <point x="456" y="143" type="line"/>
      <point x="369" y="143" type="line"/>
      <point x="369" y="566" type="line"/>
      <point x="248" y="566" type="line"/>
      <point x="30" y="459" type="line"/>
      <point x="109" y="304" type="line"/>
      <point x="187" y="340" type="line"/>
      <point x="187" y="143" type="line"/>
      <point x="52" y="143" type="line"/>
    </contour>
  </outline>
</glyph>
<glyph name="two" format="1">
  <advance width="523"/>
  <unicode hex="0032"/>
  <outline>
    <contour>
      <point x="460" y="491"/>
      <point x="413" y="579"/>
      <point x="250" y="579" type="curve" smooth="yes"/>
      <point x="155" y="579"/>
      <point x="75" y="529"/>
      <point x="30" y="492" type="curve"/>
      <point x="107" y="372" type="line"/>
      <point x="144" y="397"/>
      <point x="195" y="431"/>
      <point x="242" y="431" type="curve" smooth="yes"/>
      <point x="277" y="431"/>
      <point x="298" y="415"/>
      <point x="298" y="391" type="curve" smooth="yes"/>
      <point x="297" y="363"/>
      <point x="274" y="323"/>
      <point x="214" y="270" type="curve" smooth="yes"/>
      <point x="44" y="120" type="line"/>
      <point x="44" y="0" type="line"/>
      <point x="483" y="0" type="line"/>
      <point x="466" y="143" type="line"/>
      <point x="302" y="143" type="line"/>
      <point x="333" y="170" type="line" smooth="yes"/>
      <point x="426" y="250"/>
      <point x="460" y="321"/>
      <point x="460" y="408" type="curve" smooth="yes"/>
    </contour>
  </outline>
</glyph>
<glyph name="three" format="1">
  <advance width="565"/>
  <unicode hex="0033"/>
  <outline>
    <contour>
      <point x="514" y="508"/>
      <point x="417" y="579"/>
      <point x="269" y="579" type="curve" smooth="yes"/>
      <point x="190" y="579"/>
      <point x="106" y="561"/>
      <point x="35" y="505" type="curve"/>
      <point x="122" y="382" type="line"/>
      <point x="169" y="414"/>
      <point x="213" y="431"/>
      <point x="251" y="431" type="curve" smooth="yes"/>
      <point x="303" y="431"/>
      <point x="326" y="411"/>
      <point x="326" y="386" type="curve" smooth="yes"/>
      <point x="326" y="352"/>
      <point x="290" y="330"/>
      <point x="232" y="330" type="curve" smooth="yes"/>
      <point x="150" y="330" type="line"/>
      <point x="165" y="187" type="line"/>
      <point x="268" y="187" type="line" smooth="yes"/>
      <point x="308" y="187"/>
      <point x="337" y="165"/>
      <point x="337" y="126" type="curve" smooth="yes"/>
      <point x="337" y="91"/>
      <point x="304" y="69"/>
      <point x="258" y="69" type="curve" smooth="yes"/>
      <point x="211" y="69"/>
      <point x="169" y="83"/>
      <point x="111" y="119" type="curve"/>
      <point x="14" y="-2" type="line"/>
      <point x="91" y="-52"/>
      <point x="183" y="-78"/>
      <point x="257" y="-78" type="curve" smooth="yes"/>
      <point x="419" y="-78"/>
      <point x="525" y="3"/>
      <point x="525" y="121" type="curve" smooth="yes"/>
      <point x="525" y="180"/>
      <point x="486" y="244"/>
      <point x="439" y="272" type="curve"/>
      <point x="475" y="291"/>
      <point x="514" y="354"/>
      <point x="514" y="402" type="curve" smooth="yes"/>
    </contour>
  </outline>
</glyph>
<glyph name="four" format="1">
  <advance width="627"/>
  <unicode hex="0034"/>
  <outline>
    <contour>
      <point x="592" y="54" type="line"/>
      <point x="601" y="197" type="line"/>
      <point x="501" y="197" type="line"/>
      <point x="501" y="571" type="line"/>
      <point x="365" y="571" type="line"/>
      <point x="20" y="187" type="line"/>
      <point x="41" y="54" type="line"/>
      <point x="319" y="54" type="line"/>
      <point x="319" y="-63" type="line"/>
      <point x="501" y="-63" type="line"/>
      <point x="501" y="54" type="line"/>
    </contour>
    <contour>
      <point x="234" y="197" type="line"/>
      <point x="319" y="297" type="line"/>
      <point x="319" y="197" type="line"/>
    </contour>
  </outline>
</glyph>
<glyph name="five" format="1">
  <advance width="533"/>
  <unicode hex="0035"/>
  <outline>
    <contour>
      <point x="61" y="180" type="line"/>
      <point x="214" y="180" type="line"/>
      <point x="222" y="200"/>
      <point x="244" y="223"/>
      <point x="275" y="223" type="curve" smooth="yes"/>
      <point x="312" y="223"/>
      <point x="339" y="197"/>
      <point x="339" y="154" type="curve" smooth="yes"/>
      <point x="339" y="106"/>
      <point x="301" y="76"/>
      <point x="252" y="76" type="curve" smooth="yes"/>
      <point x="202" y="76"/>
      <point x="161" y="92"/>
      <point x="101" y="126" type="curve"/>
      <point x="10" y="-3" type="line"/>
      <point x="77" y="-50"/>
      <point x="176" y="-79"/>
      <point x="249" y="-79" type="curve" smooth="yes"/>
      <point x="407" y="-79"/>
      <point x="503" y="17"/>
      <point x="503" y="154" type="curve" smooth="yes"/>
      <point x="503" y="272"/>
      <point x="431" y="374"/>
      <point x="295" y="374" type="curve" smooth="yes"/>
      <point x="267" y="374"/>
      <point x="249" y="367"/>
      <point x="233" y="358" type="curve"/>
      <point x="233" y="423" type="line"/>
      <point x="456" y="423" type="line"/>
      <point x="474" y="566" type="line"/>
      <point x="80" y="566" type="line"/>
    </contour>
  </outline>
</glyph>
<glyph name="six" format="1">
  <advance width="617"/>
  <unicode hex="0036"/>
  <outline>
    <contour>
      <point x="383" y="635" type="line"/>
      <point x="185" y="588"/>
      <point x="40" y="426"/>
      <point x="40" y="267" type="curve" smooth="yes"/>
      <point x="40" y="80"/>
      <point x="169" y="-13"/>
      <point x="338" y="-13" type="curve" smooth="yes"/>
      <point x="490" y="-13"/>
      <point x="587" y="95"/>
      <point x="587" y="213" type="curve" smooth="yes"/>
      <point x="587" y="328"/>
      <point x="484" y="414"/>
      <point x="347" y="414" type="curve" smooth="yes"/>
      <point x="328" y="414"/>
      <point x="299" y="406"/>
      <point x="271" y="392" type="curve"/>
      <point x="325" y="455"/>
      <point x="414" y="496"/>
      <point x="469" y="509" type="curve"/>
    </contour>
    <contour>
      <point x="374" y="287"/>
      <point x="399" y="253"/>
      <point x="399" y="209" type="curve" smooth="yes"/>
      <point x="399" y="174"/>
      <point x="376" y="134"/>
      <point x="331" y="134" type="curve" smooth="yes"/>
      <point x="283" y="134"/>
      <point x="242" y="168"/>
      <point x="231" y="240" type="curve"/>
      <point x="253" y="264"/>
      <point x="288" y="287"/>
      <point x="320" y="287" type="curve" smooth="yes"/>
    </contour>
  </outline>
</glyph>
<glyph name="seven" format="1">
  <advance width="525"/>
  <unicode hex="0037"/>
  <outline>
    <contour>
      <point x="25" y="-30" type="line"/>
      <point x="206" y="-77" type="line"/>
      <point x="515" y="494" type="line"/>
      <point x="481" y="566" type="line"/>
      <point x="27" y="566" type="line"/>
      <point x="44" y="423" type="line"/>
      <point x="276" y="423" type="line"/>
    </contour>
  </outline>
</glyph>
<glyph name="eight" format="1">
  <advance width="612"/>
  <unicode hex="0038"/>
  <outline>
    <contour>
      <point x="474" y="-13"/>
      <point x="572" y="72"/>
      <point x="572" y="197" type="curve" smooth="yes"/>
      <point x="572" y="254"/>
      <point x="535" y="308"/>
      <point x="490" y="340" type="curve"/>
      <point x="523" y="368"/>
      <point x="550" y="412"/>
      <point x="550" y="457" type="curve" smooth="yes"/>
      <point x="550" y="571"/>
      <point x="440" y="643"/>
      <point x="307" y="643" type="curve" smooth="yes"/>
      <point x="171" y="643"/>
      <point x="62" y="571"/>
      <point x="62" y="457" type="curve" smooth="yes"/>
      <point x="62" y="412"/>
      <point x="91" y="369"/>
      <point x="123" y="341" type="curve"/>
      <point x="78" y="309"/>
      <point x="40" y="254"/>
      <point x="40" y="197" type="curve" smooth="yes"/>
      <point x="40" y="65"/>
      <point x="145" y="-13"/>
      <point x="307" y="-13" type="curve" smooth="yes"/>
    </contour>
    <contour>
      <point x="266" y="135"/>
      <point x="228" y="169"/>
      <point x="228" y="205" type="curve" smooth="yes"/>
      <point x="228" y="235"/>
      <point x="254" y="274"/>
      <point x="307" y="283" type="curve"/>
      <point x="357" y="274"/>
      <point x="385" y="235"/>
      <point x="385" y="205" type="curve" smooth="yes"/>
      <point x="385" y="169"/>
      <point x="345" y="135"/>
      <point x="306" y="135" type="curve" smooth="yes"/>
    </contour>
    <contour>
      <point x="251" y="465"/>
      <point x="267" y="494"/>
      <point x="305" y="494" type="curve" smooth="yes"/>
      <point x="345" y="494"/>
      <point x="361" y="466"/>
      <point x="361" y="447" type="curve" smooth="yes"/>
      <point x="361" y="422"/>
      <point x="342" y="395"/>
      <point x="307" y="389" type="curve"/>
      <point x="270" y="395"/>
      <point x="251" y="422"/>
      <point x="251" y="446" type="curve" smooth="yes"/>
    </contour>
  </outline>
</glyph>
<glyph name="nine" format="1">
  <advance width="617"/>
  <unicode hex="0039"/>
  <outline>
    <contour>
      <point x="234" y="-69" type="line"/>
      <point x="432" y="-22"/>
      <point x="577" y="140"/>
      <point x="577" y="299" type="curve" smooth="yes"/>
      <point x="577" y="486"/>
      <point x="448" y="579"/>
      <point x="279" y="579" type="curve" smooth="yes"/>
      <point x="127" y="579"/>
      <point x="30" y="471"/>
      <point x="30" y="353" type="curve" smooth="yes"/>
      <point x="30" y="238"/>
      <point x="133" y="152"/>
      <point x="270" y="152" type="curve" smooth="yes"/>
      <point x="289" y="152"/>
      <point x="317" y="160"/>
      <point x="345" y="174" type="curve"/>
      <point x="292" y="110"/>
      <point x="202" y="69"/>
      <point x="148" y="57" type="curve"/>
    </contour>
    <contour>
      <point x="243" y="279"/>
      <point x="218" y="313"/>
      <point x="218" y="357" type="curve" smooth="yes"/>
      <point x="218" y="392"/>
      <point x="241" y="432"/>
      <point x="286" y="432" type="curve" smooth="yes"/>
      <point x="334" y="432"/>
      <point x="374" y="398"/>
      <point x="386" y="326" type="curve"/>
      <point x="363" y="302"/>
      <point x="329" y="279"/>
      <point x="297" y="279" type="curve" smooth="yes"/>
    </contour>
  </outline>
</glyph>
<glyph name="colon" format="1">
  <advance width="203"/>
  <unicode hex="003A"/>
  <outline>
    <contour>
      <point x="193" y="143"/>
      <point x="153" y="183"/>
      <point x="102" y="183" type="curve" smooth="yes"/>
      <point x="50" y="183"/>
      <point x="10" y="143"/>
      <point x="10" y="91" type="curve" smooth="yes"/>
      <point x="10" y="39"/>
      <point x="50" y="0"/>
      <point x="102" y="0" type="curve" smooth="yes"/>
      <point x="153" y="0"/>
      <point x="193" y="39"/>
      <point x="193" y="91" type="curve" smooth="yes"/>
    </contour>
    <contour>
      <point x="193" y="436"/>
      <point x="153" y="476"/>
      <point x="102" y="476" type="curve" smooth="yes"/>
      <point x="50" y="476"/>
      <point x="10" y="436"/>
      <point x="10" y="384" type="curve" smooth="yes"/>
      <point x="10" y="332"/>
      <point x="50" y="293"/>
      <point x="102" y="293" type="curve" smooth="yes"/>
      <point x="153" y="293"/>
      <point x="193" y="332"/>
      <point x="193" y="384" type="curve" smooth="yes"/>
    </contour>
  </outline>
</glyph>
<glyph name="semicolon" format="1">
  <advance width="203"/>
  <unicode hex="003B"/>
  <outline>
    <contour>
      <point x="193" y="436"/>
      <point x="153" y="476"/>
      <point x="102" y="476" type="curve" smooth="yes"/>
      <point x="50" y="476"/>
      <point x="10" y="436"/>
      <point x="10" y="384" type="curve" smooth="yes"/>
      <point x="10" y="332"/>
      <point x="50" y="293"/>
      <point x="102" y="293" type="curve" smooth="yes"/>
      <point x="153" y="293"/>
      <point x="193" y="332"/>
      <point x="193" y="384" type="curve" smooth="yes"/>
    </contour>
    <contour>
      <point x="192" y="140"/>
      <point x="151" y="183"/>
      <point x="100" y="183" type="curve" smooth="yes"/>
      <point x="48" y="183"/>
      <point x="8" y="136"/>
      <point x="8" y="91" type="curve" smooth="yes"/>
      <point x="8" y="57"/>
      <point x="27" y="28"/>
      <point x="51" y="13" type="curve"/>
      <point x="45" y="-5"/>
      <point x="18" y="-27"/>
      <point x="-1" y="-38" type="curve"/>
      <point x="35" y="-118" type="line"/>
      <point x="124" y="-85"/>
      <point x="192" y="-3"/>
      <point x="192" y="76" type="curve" smooth="yes"/>
    </contour>
  </outline>
</glyph>
<glyph name="equal" format="1">
  <advance width="523"/>
  <unicode hex="003D"/>
  <outline>
    <contour>
      <point x="503" y="82" type="line"/>
      <point x="493" y="215" type="line"/>
      <point x="20" y="215" type="line"/>
      <point x="31" y="82" type="line"/>
    </contour>
    <contour>
      <point x="503" y="293" type="line"/>
      <point x="493" y="426" type="line"/>
      <point x="20" y="426" type="line"/>
      <point x="31" y="293" type="line"/>
    </contour>
  </outline>
</glyph>
<glyph name="greater" format="1">
  <advance width="382"/>
  <unicode hex="003E"/>
  <outline>
    <contour>
      <point x="53" y="505" type="line"/>
      <point x="20" y="346" type="line"/>
      <point x="155" y="250" type="line"/>
      <point x="20" y="155" type="line"/>
      <point x="53" y="-2" type="line"/>
      <point x="352" y="210" type="line"/>
      <point x="352" y="291" type="line"/>
    </contour>
  </outline>
</glyph>
<glyph name="question" format="1">
  <advance width="487"/>
  <unicode hex="003F"/>
  <outline>
    <contour>
      <point x="457" y="624"/>
      <point x="362" y="701"/>
      <point x="221" y="701" type="curve" smooth="yes"/>
      <point x="162" y="701"/>
      <point x="98" y="688"/>
      <point x="30" y="649" type="curve"/>
      <point x="53" y="500" type="line"/>
      <point x="134" y="545"/>
      <point x="184" y="553"/>
      <point x="218" y="553" type="curve" smooth="yes"/>
      <point x="247" y="553"/>
      <point x="269" y="537"/>
      <point x="269" y="512" type="curve" smooth="yes"/>
      <point x="269" y="476"/>
      <point x="206" y="430"/>
      <point x="118" y="402" type="curve"/>
      <point x="125" y="243" type="line"/>
      <point x="268" y="204" type="line"/>
      <point x="280" y="319" type="line"/>
      <point x="407" y="365"/>
      <point x="457" y="427"/>
      <point x="457" y="509" type="curve" smooth="yes"/>
    </contour>
    <contour>
      <point x="278" y="143"/>
      <point x="238" y="183"/>
      <point x="187" y="183" type="curve" smooth="yes"/>
      <point x="135" y="183"/>
      <point x="95" y="143"/>
      <point x="95" y="91" type="curve" smooth="yes"/>
      <point x="95" y="39"/>
      <point x="135" y="0"/>
      <point x="187" y="0" type="curve" smooth="yes"/>
      <point x="238" y="0"/>
      <point x="278" y="39"/>
      <point x="278" y="91" type="curve" smooth="yes"/>
    </contour>
  </outline>
</glyph>
<glyph name="at" format="1">
  <advance width="832"/>
  <unicode hex="0040"/>
  <outline>
    <contour>
      <point x="600" y="39" type="line"/>
      <point x="554" y="22"/>
      <point x="465" y="16"/>
      <point x="433" y="16" type="curve" smooth="yes"/>
      <point x="305" y="16"/>
      <point x="189" y="88"/>
      <point x="189" y="231" type="curve" smooth="yes"/>
      <point x="189" y="390"/>
      <point x="298" y="494"/>
      <point x="449" y="494" type="curve" smooth="yes"/>
      <point x="594" y="494"/>
      <point x="653" y="401"/>
      <point x="653" y="304" type="curve" smooth="yes"/>
      <point x="653" y="233"/>
      <point x="604" y="191"/>
      <point x="578" y="191" type="curve" smooth="yes"/>
      <point x="577" y="191"/>
      <point x="576" y="194"/>
      <point x="576" y="200" type="curve"/>
      <point x="599" y="383" type="line"/>
      <point x="558" y="437" type="line"/>
      <point x="469" y="448" type="line" smooth="yes"/>
      <point x="460" y="449"/>
      <point x="451" y="450"/>
      <point x="442" y="450" type="curve" smooth="yes"/>
      <point x="325" y="450"/>
      <point x="231" y="354"/>
      <point x="231" y="229" type="curve" smooth="yes"/>
      <point x="231" y="127"/>
      <point x="290" y="57"/>
      <point x="418" y="57" type="curve" smooth="yes"/>
      <point x="447" y="57"/>
      <point x="473" y="64"/>
      <point x="497" y="76" type="curve"/>
      <point x="516" y="60"/>
      <point x="542" y="54"/>
      <point x="567" y="54" type="curve" smooth="yes"/>
      <point x="675" y="54"/>
      <point x="802" y="144"/>
      <point x="802" y="309" type="curve" smooth="yes"/>
      <point x="802" y="483"/>
      <point x="649" y="630"/>
      <point x="443" y="630" type="curve" smooth="yes"/>
      <point x="179" y="630"/>
      <point x="30" y="442"/>
      <point x="30" y="238" type="curve" smooth="yes"/>
      <point x="30" y="7"/>
      <point x="215" y="-111"/>
      <point x="424" y="-111" type="curve" smooth="yes"/>
      <point x="490" y="-111"/>
      <point x="560" y="-106"/>
      <point x="644" y="-62" type="curve"/>
    </contour>
    <contour>
      <point x="388" y="199"/>
      <point x="377" y="219"/>
      <point x="377" y="237" type="curve" smooth="yes"/>
      <point x="377" y="286"/>
      <point x="399" y="325"/>
      <point x="450" y="325" type="curve"/>
      <point x="437" y="225" type="line" smooth="yes"/>
      <point x="435" y="211"/>
      <point x="428" y="199"/>
      <point x="416" y="199" type="curve" smooth="yes"/>
    </contour>
  </outline>
</glyph>
<glyph name="A" format="1">
  <advance width="711"/>
  <unicode hex="0041"/>
  <outline>
    <contour>
      <point x="447" y="680" type="line"/>
      <point x="265" y="680" type="line"/>
      <point x="10" y="0" type="line"/>
      <point x="191" y="0" type="line"/>
      <point x="238" y="134" type="line"/>
      <point x="473" y="134" type="line"/>
      <point x="522" y="0" type="line"/>
      <point x="701" y="18" type="line"/>
    </contour>
    <contour>
      <point x="353" y="462" type="line"/>
      <point x="421" y="277" type="line"/>
      <point x="288" y="277" type="line"/>
    </contour>
    <contour>
      <point x="354" y="702" type="move" name="topU"/>
    </contour>
    <contour>
      <point x="588" y="0" type="move" name="bottom"/>
    </contour>
  </outline>
</glyph>
<glyph name="B" format="1">
  <advance width="645"/>
  <unicode hex="0042"/>
  <outline>
    <contour>
      <point x="70" y="0" type="line"/>
      <point x="327" y="0" type="line" smooth="yes"/>
      <point x="475" y="0"/>
      <point x="615" y="46"/>
      <point x="615" y="203" type="curve" smooth="yes"/>
      <point x="615" y="268"/>
      <point x="578" y="323"/>
      <point x="524" y="361" type="curve"/>
      <point x="555" y="392"/>
      <point x="576" y="431"/>
      <point x="577" y="479" type="curve" smooth="yes"/>
      <point x="577" y="484" type="line" smooth="yes"/>
      <point x="577" y="624"/>
      <point x="447" y="680"/>
      <point x="297" y="680" type="curve" smooth="yes"/>
      <point x="70" y="680" type="line"/>
    </contour>
    <contour>
      <point x="329" y="279" type="line" smooth="yes"/>
      <point x="391" y="279"/>
      <point x="427" y="253"/>
      <point x="427" y="207" type="curve" smooth="yes"/>
      <point x="427" y="164"/>
      <point x="387" y="143"/>
      <point x="331" y="143" type="curve" smooth="yes"/>
      <point x="252" y="143" type="line"/>
      <point x="252" y="279" type="line"/>
    </contour>
    <contour>
      <point x="291" y="537" type="line" smooth="yes"/>
      <point x="353" y="537"/>
      <point x="389" y="517"/>
      <point x="389" y="475" type="curve" smooth="yes"/>
      <point x="389" y="439"/>
      <point x="349" y="422"/>
      <point x="293" y="422" type="curve" smooth="yes"/>
      <point x="252" y="422" type="line"/>
      <point x="252" y="537" type="line"/>
    </contour>
  </outline>
</glyph>
<glyph name="C" format="1">
  <advance width="606"/>
  <unicode hex="0043"/>
  <outline>
    <contour>
      <point x="416" y="544"/>
      <point x="442" y="539"/>
      <point x="515" y="514" type="curve"/>
      <point x="569" y="637" type="line"/>
      <point x="516" y="673"/>
      <point x="437" y="693"/>
      <point x="369" y="693" type="curve" smooth="yes"/>
      <point x="166" y="693"/>
      <point x="40" y="547"/>
      <point x="40" y="337" type="curve" smooth="yes"/>
      <point x="40" y="130"/>
      <point x="151" y="-13"/>
      <point x="373" y="-13" type="curve" smooth="yes"/>
      <point x="443" y="-13"/>
      <point x="523" y="5"/>
      <point x="576" y="37" type="curve"/>
      <point x="507" y="173" type="line"/>
      <point x="472" y="152"/>
      <point x="428" y="136"/>
      <point x="378" y="136" type="curve" smooth="yes"/>
      <point x="292" y="136"/>
      <point x="228" y="210"/>
      <point x="228" y="338" type="curve" smooth="yes"/>
      <point x="228" y="462"/>
      <point x="289" y="544"/>
      <point x="371" y="544" type="curve" smooth="yes"/>
    </contour>
    <contour>
      <point x="388" y="732" type="move" name="topU"/>
    </contour>
    <contour>
      <point x="383" y="30" type="move" name="bottom"/>
    </contour>
  </outline>
</glyph>
<glyph name="D" format="1">
  <advance width="719"/>
  <unicode hex="0044"/>
  <outline>
    <contour>
      <point x="70" y="0" type="line"/>
      <point x="364" y="0" type="line" smooth="yes"/>
      <point x="556" y="0"/>
      <point x="689" y="131"/>
      <point x="689" y="344" type="curve" smooth="yes"/>
      <point x="689" y="538"/>
      <point x="579" y="680"/>
      <point x="368" y="680" type="curve"/>
      <point x="70" y="680" type="line"/>
    </contour>
    <contour>
      <point x="359" y="537" type="line" smooth="yes"/>
      <point x="451" y="537"/>
      <point x="501" y="457"/>
      <point x="501" y="344" type="curve" smooth="yes"/>
      <point x="501" y="208"/>
      <point x="437" y="143"/>
      <point x="352" y="143" type="curve" smooth="yes"/>
      <point x="252" y="143" type="line"/>
      <point x="252" y="537" type="line"/>
    </contour>
    <contour>
      <point x="286" y="732" type="move" name="topU"/>
    </contour>
  </outline>
</glyph>
<glyph name="E" format="1">
  <advance width="588"/>
  <unicode hex="0045"/>
  <outline>
    <contour>
      <point x="70" y="0" type="line"/>
      <point x="568" y="0" type="line"/>
      <point x="551" y="143" type="line"/>
      <point x="252" y="143" type="line"/>
      <point x="252" y="270" type="line"/>
      <point x="478" y="270" type="line"/>
      <point x="461" y="413" type="line"/>
      <point x="252" y="413" type="line"/>
      <point x="252" y="537" type="line"/>
      <point x="538" y="537" type="line"/>
      <point x="521" y="680" type="line"/>
      <point x="70" y="680" type="line"/>
    </contour>
    <contour>
      <point x="324" y="702" type="move" name="topU"/>
    </contour>
    <contour>
      <point x="362" y="0" type="move" name="bottom"/>
    </contour>
  </outline>
</glyph>
<glyph name="F" format="1">
  <advance width="538"/>
  <unicode hex="0046"/>
  <outline>
    <contour>
      <point x="478" y="257" type="line"/>
      <point x="461" y="400" type="line"/>
      <point x="252" y="400" type="line"/>
      <point x="252" y="536" type="line"/>
      <point x="528" y="536" type="line"/>
      <point x="511" y="679" type="line"/>
      <point x="70" y="679" type="line"/>
      <point x="70" y="0" type="line"/>
      <point x="252" y="0" type="line"/>
      <point x="252" y="257" type="line"/>
    </contour>
  </outline>
</glyph>
<glyph name="G" format="1">
  <advance width="676"/>
  <unicode hex="0047"/>
  <outline>
    <contour>
      <point x="616" y="392" type="line"/>
      <point x="319" y="392" type="line"/>
      <point x="335" y="259" type="line"/>
      <point x="452" y="259" type="line"/>
      <point x="452" y="142" type="line"/>
      <point x="429" y="138"/>
      <point x="407" y="136"/>
      <point x="388" y="136" type="curve" smooth="yes"/>
      <point x="302" y="136"/>
      <point x="228" y="191"/>
      <point x="228" y="338" type="curve" smooth="yes"/>
      <point x="228" y="477"/>
      <point x="309" y="544"/>
      <point x="391" y="544" type="curve" smooth="yes"/>
      <point x="436" y="544"/>
      <point x="482" y="539"/>
      <point x="555" y="514" type="curve"/>
      <point x="609" y="637" type="line"/>
      <point x="556" y="673"/>
      <point x="457" y="693"/>
      <point x="389" y="693" type="curve" smooth="yes"/>
      <point x="186" y="693"/>
      <point x="40" y="561"/>
      <point x="40" y="337" type="curve" smooth="yes"/>
      <point x="40" y="115"/>
      <point x="161" y="-13"/>
      <point x="383" y="-13" type="curve" smooth="yes"/>
      <point x="453" y="-13"/>
      <point x="563" y="5"/>
      <point x="616" y="37" type="curve"/>
    </contour>
    <contour>
      <point x="381" y="702" type="move" name="topU"/>
    </contour>
    <contour>
      <point x="365" y="0" type="move" name="bottom"/>
    </contour>
  </outline>
</glyph>
<glyph name="H" format="1">
  <advance width="752"/>
  <unicode hex="0048"/>
  <outline>
    <contour>
      <point x="500" y="0" type="line"/>
      <point x="682" y="0" type="line"/>
      <point x="682" y="680" type="line"/>
      <point x="500" y="680" type="line"/>
      <point x="500" y="409" type="line"/>
      <point x="252" y="409" type="line"/>
      <point x="252" y="686" type="line"/>
      <point x="70" y="680" type="line"/>
      <point x="70" y="0" type="line"/>
      <point x="252" y="0" type="line"/>
      <point x="252" y="266" type="line"/>
      <point x="500" y="266" type="line"/>
    </contour>
  </outline>
</glyph>
<glyph name="J" format="1">
  <advance width="325"/>
  <unicode hex="004A"/>
  <outline>
    <contour>
      <point x="83" y="217" type="line" smooth="yes"/>
      <point x="83" y="181"/>
      <point x="74" y="148"/>
      <point x="0" y="118" type="curve"/>
      <point x="74" y="-26" type="line"/>
      <point x="216" y="20"/>
      <point x="265" y="62"/>
      <point x="265" y="164" type="curve" smooth="yes"/>
      <point x="265" y="680" type="line"/>
      <point x="83" y="680" type="line"/>
    </contour>
  </outline>
</glyph>
<glyph name="K" format="1">
  <advance width="710"/>
  <unicode hex="004B"/>
  <outline>
    <contour>
      <point x="70" y="0" type="line"/>
      <point x="252" y="0" type="line"/>
      <point x="252" y="204" type="line"/>
      <point x="305" y="254" type="line"/>
      <point x="479" y="0" type="line"/>
      <point x="710" y="0" type="line"/>
      <point x="435" y="377" type="line"/>
      <point x="666" y="593" type="line"/>
      <point x="525" y="695" type="line"/>
      <point x="252" y="444" type="line"/>
      <point x="252" y="680" type="line"/>
      <point x="70" y="680" type="line"/>
    </contour>
    <contour>
      <point x="283" y="30" type="move" name="bottom"/>
    </contour>
  </outline>
</glyph>
<glyph name="L" format="1">
  <advance width="568"/>
  <unicode hex="004C"/>
  <outline>
    <contour>
      <point x="558" y="0" type="line"/>
      <point x="541" y="143" type="line"/>
      <point x="252" y="143" type="line"/>
      <point x="252" y="680" type="line"/>
      <point x="70" y="680" type="line"/>
      <point x="70" y="0" type="line"/>
    </contour>
    <contour>
      <point x="161" y="702" type="move" name="topU"/>
    </contour>
    <contour>
      <point x="348" y="0" type="move" name="bottom"/>
    </contour>
  </outline>
</glyph>
<glyph name="M" format="1">
  <advance width="779"/>
  <unicode hex="004D"/>
  <outline>
    <contour>
      <point x="527" y="0" type="line"/>
      <point x="709" y="0" type="line"/>
      <point x="709" y="680" type="line"/>
      <point x="588" y="680" type="line"/>
      <point x="400" y="421" type="line"/>
      <point x="195" y="680" type="line"/>
      <point x="70" y="680" type="line"/>
      <point x="70" y="0" type="line"/>
      <point x="252" y="0" type="line"/>
      <point x="252" y="329" type="line"/>
      <point x="362" y="195" type="line"/>
      <point x="435" y="205" type="line"/>
      <point x="527" y="329" type="line"/>
    </contour>
  </outline>
</glyph>
<glyph name="N" format="1">
  <advance width="753"/>
  <unicode hex="004E"/>
  <outline>
    <contour>
      <point x="70" y="0" type="line"/>
      <point x="252" y="0" type="line"/>
      <point x="252" y="358" type="line"/>
      <point x="513" y="0" type="line"/>
      <point x="683" y="0" type="line"/>
      <point x="683" y="680" type="line"/>
      <point x="501" y="680" type="line"/>
      <point x="501" y="311" type="line"/>
      <point x="239" y="680" type="line"/>
      <point x="70" y="680" type="line"/>
    </contour>
    <contour>
      <point x="344" y="732" type="move" name="topU"/>
    </contour>
    <contour>
      <point x="337" y="30" type="move" name="bottom"/>
    </contour>
  </outline>
</glyph>
<glyph name="O" format="1">
  <advance width="743"/>
  <unicode hex="004F"/>
  <outline>
    <contour>
      <point x="267" y="138"/>
      <point x="227" y="223"/>
      <point x="227" y="338" type="curve" smooth="yes"/>
      <point x="227" y="461"/>
      <point x="282" y="542"/>
      <point x="373" y="542" type="curve" smooth="yes"/>
      <point x="475" y="542"/>
      <point x="516" y="458"/>
      <point x="516" y="344" type="curve" smooth="yes"/>
      <point x="516" y="206"/>
      <point x="464" y="138"/>
      <point x="370" y="138" type="curve" smooth="yes"/>
    </contour>
    <contour>
      <point x="166" y="694"/>
      <point x="40" y="548"/>
      <point x="40" y="337" type="curve" smooth="yes"/>
      <point x="40" y="141"/>
      <point x="152" y="-14"/>
      <point x="371" y="-14" type="curve" smooth="yes"/>
      <point x="580" y="-14"/>
      <point x="703" y="132"/>
      <point x="703" y="344" type="curve" smooth="yes"/>
      <point x="703" y="540"/>
      <point x="593" y="694"/>
      <point x="371" y="694" type="curve" smooth="yes"/>
    </contour>
    <contour>
      <point x="401" y="732" type="move" name="topU"/>
    </contour>
  </outline>
</glyph>
<glyph name="P" format="1">
  <advance width="666"/>
  <unicode hex="0050"/>
  <outline>
    <contour>
      <point x="70" y="0" type="line"/>
      <point x="252" y="0" type="line"/>
      <point x="252" y="198" type="line"/>
      <point x="348" y="198" type="line" smooth="yes"/>
      <point x="496" y="198"/>
      <point x="636" y="272"/>
      <point x="636" y="435" type="curve" smooth="yes"/>
      <point x="636" y="600"/>
      <point x="508" y="680"/>
      <point x="356" y="680" type="curve" smooth="yes"/>
      <point x="70" y="680" type="line"/>
    </contour>
    <contour>
      <point x="350" y="537" type="line" smooth="yes"/>
      <point x="412" y="537"/>
      <point x="448" y="495"/>
      <point x="448" y="435" type="curve" smooth="yes"/>
      <point x="448" y="381"/>
      <point x="408" y="341"/>
      <point x="352" y="341" type="curve" smooth="yes"/>
      <point x="252" y="341" type="line"/>
      <point x="252" y="537" type="line"/>
    </contour>
  </outline>
</glyph>
<glyph name="Q" format="1">
  <advance width="743"/>
  <unicode hex="0051"/>
  <outline>
    <contour>
      <point x="166" y="694"/>
      <point x="40" y="548"/>
      <point x="40" y="337" type="curve" smooth="yes"/>
      <point x="40" y="141"/>
      <point x="152" y="-14"/>
      <point x="371" y="-14" type="curve" smooth="yes"/>
      <point x="427" y="-14"/>
      <point x="477" y="-3"/>
      <point x="520" y="16" type="curve"/>
      <point x="585" y="-52" type="line"/>
      <point x="697" y="45" type="line"/>
      <point x="636" y="111" type="line"/>
      <point x="679" y="172"/>
      <point x="703" y="252"/>
      <point x="703" y="344" type="curve" smooth="yes"/>
      <point x="703" y="540"/>
      <point x="593" y="694"/>
      <point x="371" y="694" type="curve" smooth="yes"/>
    </contour>
    <contour>
      <point x="267" y="138"/>
      <point x="227" y="223"/>
      <point x="227" y="338" type="curve" smooth="yes"/>
      <point x="227" y="461"/>
      <point x="282" y="542"/>
      <point x="373" y="542" type="curve" smooth="yes"/>
      <point x="475" y="542"/>
      <point x="516" y="458"/>
      <point x="516" y="344" type="curve" smooth="yes"/>
      <point x="516" y="309"/>
      <point x="513" y="279"/>
      <point x="506" y="253" type="curve"/>
      <point x="436" y="331" type="line"/>
      <point x="316" y="229" type="line"/>
      <point x="400" y="140" type="line"/>
      <point x="391" y="138"/>
      <point x="380" y="138"/>
      <point x="370" y="138" type="curve" smooth="yes"/>
    </contour>
  </outline>
</glyph>
<glyph name="T" format="1">
  <advance width="619"/>
  <unicode hex="0054"/>
  <outline>
    <contour>
      <point x="210" y="0" type="line"/>
      <point x="392" y="0" type="line"/>
      <point x="392" y="537" type="line"/>
      <point x="609" y="537" type="line"/>
      <point x="592" y="680" type="line"/>
      <point x="10" y="680" type="line"/>
      <point x="10" y="537" type="line"/>
      <point x="210" y="537" type="line"/>
    </contour>
    <contour>
      <point x="302" y="0" type="move" name="bottom"/>
    </contour>
  </outline>
</glyph>
<glyph name="V" format="1">
  <advance width="711"/>
  <unicode hex="0056"/>
  <outline>
    <contour>
      <point x="264" y="0" type="line"/>
      <point x="446" y="0" type="line"/>
      <point x="701" y="680" type="line"/>
      <point x="520" y="680" type="line"/>
      <point x="357" y="217" type="line"/>
      <point x="189" y="680" type="line"/>
      <point x="10" y="662" type="line"/>
    </contour>
  </outline>
</glyph>
<glyph name="W" format="1">
  <advance width="1143"/>
  <unicode hex="0057"/>
  <outline>
    <contour>
      <point x="716" y="0" type="line"/>
      <point x="898" y="0" type="line"/>
      <point x="1133" y="680" type="line"/>
      <point x="952" y="680" type="line"/>
      <point x="809" y="222" type="line"/>
      <point x="661" y="680" type="line"/>
      <point x="480" y="680" type="line"/>
      <point x="337" y="222" type="line"/>
      <point x="189" y="680" type="line"/>
      <point x="10" y="662" type="line"/>
      <point x="244" y="0" type="line"/>
      <point x="426" y="0" type="line"/>
      <point x="569" y="415" type="line"/>
    </contour>
  </outline>
</glyph>
<glyph name="X" format="1">
  <advance width="747"/>
  <unicode hex="0058"/>
  <outline>
    <contour>
      <point x="504" y="0" type="line"/>
      <point x="737" y="0" type="line"/>
      <point x="479" y="345" type="line"/>
      <point x="736" y="680" type="line"/>
      <point x="510" y="680" type="line"/>
      <point x="364" y="498" type="line"/>
      <point x="226" y="683" type="line"/>
      <point x="10" y="656" type="line"/>
      <point x="249" y="338" type="line"/>
      <point x="11" y="15" type="line"/>
      <point x="213" y="-12" type="line"/>
      <point x="364" y="186" type="line"/>
    </contour>
  </outline>
</glyph>
<glyph name="Y" format="1">
  <advance width="669"/>
  <unicode hex="0059"/>
  <outline>
    <contour>
      <point x="241" y="0" type="line"/>
      <point x="423" y="0" type="line"/>
      <point x="423" y="266" type="line"/>
      <point x="659" y="680" type="line"/>
      <point x="472" y="680" type="line"/>
      <point x="331" y="435" type="line"/>
      <point x="199" y="680" type="line"/>
      <point x="10" y="662" type="line"/>
      <point x="241" y="268" type="line"/>
    </contour>
  </outline>
</glyph>
<glyph name="Z" format="1">
  <advance width="604"/>
  <unicode hex="005A"/>
  <outline>
    <contour>
      <point x="584" y="551" type="line"/>
      <point x="565" y="680" type="line"/>
      <point x="49" y="680" type="line"/>
      <point x="66" y="537" type="line"/>
      <point x="367" y="537" type="line"/>
      <point x="359" y="531" type="line"/>
      <point x="20" y="128" type="line"/>
      <point x="40" y="0" type="line"/>
      <point x="581" y="0" type="line"/>
      <point x="564" y="143" type="line"/>
      <point x="230" y="143" type="line"/>
      <point x="237" y="148" type="line"/>
    </contour>
  </outline>
</glyph>
<glyph name="bracketleft" format="1">
  <advance width="448"/>
  <unicode hex="005B"/>
  <outline>
    <contour>
      <point x="70" y="-87" type="line"/>
      <point x="438" y="-87" type="line"/>
      <point x="421" y="56" type="line"/>
      <point x="252" y="56" type="line"/>
      <point x="252" y="553" type="line"/>
      <point x="422" y="553" type="line"/>
      <point x="438" y="696" type="line"/>
      <point x="70" y="696" type="line"/>
    </contour>
  </outline>
</glyph>
<glyph name="backslash" format="1">
  <advance width="496"/>
  <unicode hex="005C"/>
  <outline>
    <contour>
      <point x="304" y="0" type="line"/>
      <point x="491" y="0" type="line"/>
      <point x="193" y="710" type="line"/>
      <point x="5" y="710" type="line"/>
    </contour>
  </outline>
</glyph>
<glyph name="asciicircum" format="1">
  <advance width="495"/>
  <unicode hex="005E"/>
  <outline>
    <contour>
      <point x="197" y="141" type="line"/>
      <point x="250" y="253" type="line"/>
      <point x="302" y="141" type="line"/>
      <point x="475" y="141" type="line"/>
      <point x="320" y="424" type="line"/>
      <point x="176" y="424" type="line"/>
      <point x="20" y="141" type="line"/>
    </contour>
  </outline>
</glyph>
<glyph name="underscore" format="1">
  <advance width="436"/>
  <unicode hex="005F"/>
  <outline>
    <contour>
      <point x="416" y="0" type="line"/>
      <point x="406" y="143" type="line"/>
      <point x="20" y="143" type="line"/>
      <point x="31" y="0" type="line"/>
    </contour>
  </outline>
</glyph>
<glyph name="grave" format="1">
  <advance width="274"/>
  <unicode hex="0060"/>
  <outline>
    <contour>
      <point x="10" y="787" type="line"/>
      <point x="124" y="588" type="line"/>
      <point x="264" y="588" type="line"/>
      <point x="190" y="787" type="line"/>
    </contour>
    <contour>
      <point x="192" y="574" type="move" name="_top"/>
    </contour>
  </outline>
</glyph>
<glyph name="b" format="1">
  <advance width="611"/>
  <unicode hex="0062"/>
  <outline>
    <contour>
      <point x="60" y="0" type="line"/>
      <point x="152" y="0" type="line"/>
      <point x="182" y="47" type="line"/>
      <point x="225" y="15"/>
      <point x="283" y="-11"/>
      <point x="338" y="-11" type="curve" smooth="yes"/>
      <point x="510" y="-11"/>
      <point x="581" y="104"/>
      <point x="581" y="250" type="curve" smooth="yes"/>
      <point x="581" y="395"/>
      <point x="505" y="502"/>
      <point x="348" y="502" type="curve" smooth="yes"/>
      <point x="308" y="502"/>
      <point x="268" y="489"/>
      <point x="242" y="476" type="curve"/>
      <point x="242" y="706" type="line"/>
      <point x="60" y="695" type="line"/>
    </contour>
    <contour>
      <point x="361" y="354"/>
      <point x="393" y="304"/>
      <point x="393" y="246" type="curve" smooth="yes"/>
      <point x="393" y="198"/>
      <point x="372" y="137"/>
      <point x="317" y="137" type="curve" smooth="yes"/>
      <point x="292" y="137"/>
      <point x="261" y="149"/>
      <point x="242" y="167" type="curve"/>
      <point x="242" y="340" type="line"/>
      <point x="259" y="348"/>
      <point x="287" y="354"/>
      <point x="302" y="354" type="curve" smooth="yes"/>
    </contour>
  </outline>
</glyph>
<glyph name="f" format="1">
  <advance width="471"/>
  <unicode hex="0066"/>
  <outline>
    <contour>
      <point x="433" y="308" type="line"/>
      <point x="416" y="451" type="line"/>
      <point x="282" y="451" type="line"/>
      <point x="282" y="490" type="line" smooth="yes"/>
      <point x="282" y="530"/>
      <point x="306" y="555"/>
      <point x="349" y="555" type="curve" smooth="yes"/>
      <point x="366" y="555"/>
      <point x="396" y="549"/>
      <point x="419" y="536" type="curve"/>
      <point x="471" y="660" type="line"/>
      <point x="447" y="682"/>
      <point x="384" y="703"/>
      <point x="337" y="703" type="curve" smooth="yes"/>
      <point x="213" y="703"/>
      <point x="100" y="640"/>
      <point x="100" y="510" type="curve" smooth="yes"/>
      <point x="100" y="451" type="line"/>
      <point x="20" y="451" type="line"/>
      <point x="20" y="308" type="line"/>
      <point x="100" y="308" type="line"/>
      <point x="100" y="0" type="line"/>
      <point x="282" y="0" type="line"/>
      <point x="282" y="308" type="line"/>
    </contour>
  </outline>
</glyph>
<glyph name="h" format="1">
  <advance width="624"/>
  <unicode hex="0068"/>
  <outline>
    <contour>
      <point x="60" y="0" type="line"/>
      <point x="242" y="0" type="line"/>
      <point x="242" y="326" type="line"/>
      <point x="271" y="339"/>
      <point x="310" y="354"/>
      <point x="333" y="354" type="curve" smooth="yes"/>
      <point x="366" y="354"/>
      <point x="392" y="333"/>
      <point x="392" y="296" type="curve" smooth="yes"/>
      <point x="392" y="0" type="line"/>
      <point x="574" y="0" type="line"/>
      <point x="574" y="300" type="line" smooth="yes"/>
      <point x="574" y="416"/>
      <point x="521" y="502"/>
      <point x="383" y="502" type="curve" smooth="yes"/>
      <point x="336" y="502"/>
      <point x="282" y="488"/>
      <point x="242" y="470" type="curve"/>
      <point x="242" y="706" type="line"/>
      <point x="60" y="695" type="line"/>
    </contour>
  </outline>
</glyph>
<glyph name="i" format="1">
  <advance width="302"/>
  <unicode hex="0069"/>
  <outline>
    <contour>
      <point x="60" y="0" type="line"/>
      <point x="242" y="0" type="line"/>
      <point x="242" y="485" type="line"/>
      <point x="60" y="485" type="line"/>
    </contour>
    <contour>
      <point x="52" y="596"/>
      <point x="96" y="551"/>
      <point x="150" y="551" type="curve" smooth="yes"/>
      <point x="205" y="551"/>
      <point x="250" y="596"/>
      <point x="250" y="649" type="curve" smooth="yes"/>
      <point x="250" y="704"/>
      <point x="205" y="749"/>
      <point x="150" y="749" type="curve" smooth="yes"/>
      <point x="96" y="749"/>
      <point x="52" y="704"/>
      <point x="52" y="649" type="curve" smooth="yes"/>
    </contour>
    <contour>
      <point x="84" y="0" type="move" name="bottom"/>
    </contour>
  </outline>
</glyph>
<glyph name="j" format="1">
  <advance width="302"/>
  <unicode hex="006A"/>
  <outline>
    <contour>
      <point x="242" y="485" type="line"/>
      <point x="60" y="485" type="line"/>
      <point x="60" y="29" type="line" smooth="yes"/>
      <point x="60" y="-10"/>
      <point x="36" y="-38"/>
      <point x="-36" y="-63" type="curve"/>
      <point x="36" y="-194" type="line"/>
      <point x="178" y="-148"/>
      <point x="242" y="-103"/>
      <point x="242" y="2" type="curve" smooth="yes"/>
    </contour>
    <contour>
      <point x="52" y="596"/>
      <point x="96" y="551"/>
      <point x="150" y="551" type="curve" smooth="yes"/>
      <point x="205" y="551"/>
      <point x="250" y="596"/>
      <point x="250" y="649" type="curve" smooth="yes"/>
      <point x="250" y="704"/>
      <point x="205" y="749"/>
      <point x="150" y="749" type="curve" smooth="yes"/>
      <point x="96" y="749"/>
      <point x="52" y="704"/>
      <point x="52" y="649" type="curve" smooth="yes"/>
    </contour>
  </outline>
</glyph>
<glyph name="k" format="1">
  <advance width="567"/>
  <unicode hex="006B"/>
  <outline>
    <contour>
      <point x="242" y="156" type="line"/>
      <point x="272" y="178" type="line"/>
      <point x="371" y="0" type="line"/>
      <point x="567" y="0" type="line"/>
      <point x="398" y="273" type="line"/>
      <point x="532" y="374" type="line"/>
      <point x="423" y="499" type="line"/>
      <point x="242" y="346" type="line"/>
      <point x="242" y="706" type="line"/>
      <point x="60" y="695" type="line"/>
      <point x="60" y="0" type="line"/>
      <point x="242" y="0" type="line"/>
    </contour>
    <contour>
      <point x="318" y="30" type="move" name="bottom"/>
    </contour>
  </outline>
</glyph>
<glyph name="l" format="1">
  <advance width="302"/>
  <unicode hex="006C"/>
  <outline>
    <contour>
      <point x="60" y="0" type="line"/>
      <point x="242" y="0" type="line"/>
      <point x="242" y="706" type="line"/>
      <point x="60" y="695" type="line"/>
    </contour>
    <contour>
      <point x="89" y="0" type="move" name="bottom"/>
    </contour>
  </outline>
</glyph>
<glyph name="m" format="1">
  <advance width="916"/>
  <unicode hex="006D"/>
  <outline>
    <contour>
      <point x="608" y="502"/>
      <point x="549" y="470"/>
      <point x="509" y="447" type="curve"/>
      <point x="479" y="481"/>
      <point x="435" y="502"/>
      <point x="373" y="502" type="curve" smooth="yes"/>
      <point x="291" y="502"/>
      <point x="229" y="466"/>
      <point x="189" y="442" type="curve"/>
      <point x="151" y="484" type="line"/>
      <point x="60" y="484" type="line"/>
      <point x="60" y="0" type="line"/>
      <point x="242" y="0" type="line"/>
      <point x="242" y="326" type="line"/>
      <point x="270" y="339"/>
      <point x="303" y="354"/>
      <point x="323" y="354" type="curve" smooth="yes"/>
      <point x="351" y="354"/>
      <point x="372" y="333"/>
      <point x="372" y="296" type="curve" smooth="yes"/>
      <point x="372" y="0" type="line"/>
      <point x="554" y="0" type="line"/>
      <point x="554" y="300" type="line" smooth="yes"/>
      <point x="554" y="308"/>
      <point x="553" y="317"/>
      <point x="553" y="325" type="curve"/>
      <point x="581" y="339"/>
      <point x="612" y="354"/>
      <point x="635" y="354" type="curve" smooth="yes"/>
      <point x="663" y="354"/>
      <point x="684" y="333"/>
      <point x="684" y="296" type="curve" smooth="yes"/>
      <point x="684" y="0" type="line"/>
      <point x="866" y="0" type="line"/>
      <point x="866" y="300" type="line" smooth="yes"/>
      <point x="866" y="416"/>
      <point x="812" y="502"/>
      <point x="685" y="502" type="curve" smooth="yes"/>
    </contour>
  </outline>
</glyph>
<glyph name="n" format="1">
  <advance width="624"/>
  <unicode hex="006E"/>
  <outline>
    <contour>
      <point x="301" y="502"/>
      <point x="231" y="466"/>
      <point x="189" y="442" type="curve"/>
      <point x="151" y="484" type="line"/>
      <point x="60" y="484" type="line"/>
      <point x="60" y="0" type="line"/>
      <point x="242" y="0" type="line"/>
      <point x="242" y="326" type="line"/>
      <point x="271" y="339"/>
      <point x="310" y="354"/>
      <point x="333" y="354" type="curve" smooth="yes"/>
      <point x="366" y="354"/>
      <point x="392" y="333"/>
      <point x="392" y="296" type="curve" smooth="yes"/>
      <point x="392" y="0" type="line"/>
      <point x="574" y="0" type="line"/>
      <point x="574" y="300" type="line" smooth="yes"/>
      <point x="574" y="416"/>
      <point x="521" y="502"/>
      <point x="383" y="502" type="curve" smooth="yes"/>
    </contour>
    <contour>
      <point x="380" y="545" type="move" name="top"/>
    </contour>
    <contour>
      <point x="312" y="0" type="move" name="bottom"/>
    </contour>
  </outline>
</glyph>
<glyph name="o" format="1">
  <advance width="610"/>
  <unicode hex="006F"/>
  <outline>
    <contour>
      <point x="152" y="502"/>
      <point x="30" y="409"/>
      <point x="30" y="245" type="curve" smooth="yes"/>
      <point x="30" y="71"/>
      <point x="144" y="-11"/>
      <point x="301" y="-11" type="curve" smooth="yes"/>
      <point x="458" y="-11"/>
      <point x="580" y="76"/>
      <point x="580" y="240" type="curve" smooth="yes"/>
      <point x="580" y="414"/>
      <point x="466" y="502"/>
      <point x="305" y="502" type="curve" smooth="yes"/>
    </contour>
    <contour>
      <point x="248" y="137"/>
      <point x="218" y="180"/>
      <point x="218" y="245" type="curve" smooth="yes"/>
      <point x="218" y="313"/>
      <point x="250" y="354"/>
      <point x="307" y="354" type="curve" smooth="yes"/>
      <point x="362" y="354"/>
      <point x="392" y="305"/>
      <point x="392" y="240" type="curve" smooth="yes"/>
      <point x="392" y="172"/>
      <point x="360" y="137"/>
      <point x="303" y="137" type="curve" smooth="yes"/>
    </contour>
    <contour>
      <point x="308" y="545" type="move" name="top"/>
    </contour>
  </outline>
</glyph>
<glyph name="p" format="1">
  <advance width="611"/>
  <unicode hex="0070"/>
  <outline>
    <contour>
      <point x="60" y="-219" type="line"/>
      <point x="242" y="-209" type="line"/>
      <point x="242" y="12" type="line"/>
      <point x="272" y="-2"/>
      <point x="306" y="-11"/>
      <point x="338" y="-11" type="curve" smooth="yes"/>
      <point x="510" y="-11"/>
      <point x="581" y="104"/>
      <point x="581" y="250" type="curve" smooth="yes"/>
      <point x="581" y="395"/>
      <point x="505" y="502"/>
      <point x="348" y="502" type="curve" smooth="yes"/>
      <point x="286" y="502"/>
      <point x="232" y="481"/>
      <point x="182" y="442" type="curve"/>
      <point x="151" y="484" type="line"/>
      <point x="60" y="484" type="line"/>
    </contour>
    <contour>
      <point x="361" y="354"/>
      <point x="393" y="304"/>
      <point x="393" y="246" type="curve" smooth="yes"/>
      <point x="393" y="198"/>
      <point x="372" y="137"/>
      <point x="317" y="137" type="curve" smooth="yes"/>
      <point x="292" y="137"/>
      <point x="261" y="149"/>
      <point x="242" y="167" type="curve"/>
      <point x="242" y="338" type="line"/>
      <point x="257" y="346"/>
      <point x="277" y="354"/>
      <point x="302" y="354" type="curve" smooth="yes"/>
    </contour>
  </outline>
</glyph>
<glyph name="q" format="1">
  <advance width="611"/>
  <unicode hex="0071"/>
  <outline>
    <contour>
      <point x="551" y="484" type="line"/>
      <point x="460" y="484" type="line"/>
      <point x="429" y="444" type="line"/>
      <point x="386" y="475"/>
      <point x="328" y="502"/>
      <point x="273" y="502" type="curve" smooth="yes"/>
      <point x="101" y="502"/>
      <point x="30" y="387"/>
      <point x="30" y="241" type="curve" smooth="yes"/>
      <point x="30" y="96"/>
      <point x="106" y="-11"/>
      <point x="263" y="-11" type="curve" smooth="yes"/>
      <point x="307" y="-11"/>
      <point x="341" y="-2"/>
      <point x="369" y="10" type="curve"/>
      <point x="369" y="-219" type="line"/>
      <point x="551" y="-208" type="line"/>
    </contour>
    <contour>
      <point x="250" y="137"/>
      <point x="218" y="187"/>
      <point x="218" y="245" type="curve" smooth="yes"/>
      <point x="218" y="293"/>
      <point x="239" y="354"/>
      <point x="294" y="354" type="curve" smooth="yes"/>
      <point x="318" y="354"/>
      <point x="350" y="341"/>
      <point x="369" y="323" type="curve"/>
      <point x="369" y="151" type="line"/>
      <point x="352" y="143"/>
      <point x="324" y="137"/>
      <point x="309" y="137" type="curve" smooth="yes"/>
    </contour>
  </outline>
</glyph>
<glyph name="r" format="1">
  <advance width="395"/>
  <unicode hex="0072"/>
  <outline>
    <contour>
      <point x="60" y="0" type="line"/>
      <point x="242" y="0" type="line"/>
      <point x="242" y="295" type="line"/>
      <point x="283" y="327"/>
      <point x="337" y="339"/>
      <point x="385" y="339" type="curve"/>
      <point x="348" y="485" type="line"/>
      <point x="293" y="485"/>
      <point x="235" y="462"/>
      <point x="195" y="435" type="curve"/>
      <point x="151" y="484" type="line"/>
      <point x="60" y="484" type="line"/>
    </contour>
    <contour>
      <point x="144" y="575" type="move" name="top"/>
    </contour>
    <contour>
      <point x="90" y="30" type="move" name="bottom"/>
    </contour>
  </outline>
</glyph>
<glyph name="s" format="1">
  <advance width="473"/>
  <unicode hex="0073"/>
  <outline>
    <contour>
      <point x="240" y="324"/>
      <point x="234" y="328"/>
      <point x="234" y="337" type="curve" smooth="yes"/>
      <point x="234" y="344"/>
      <point x="244" y="354"/>
      <point x="274" y="354" type="curve" smooth="yes"/>
      <point x="309" y="354"/>
      <point x="354" y="335"/>
      <point x="393" y="315" type="curve"/>
      <point x="444" y="440" type="line"/>
      <point x="388" y="484"/>
      <point x="301" y="502"/>
      <point x="261" y="502" type="curve" smooth="yes"/>
      <point x="125" y="502"/>
      <point x="46" y="442"/>
      <point x="46" y="340" type="curve" smooth="yes"/>
      <point x="46" y="250"/>
      <point x="138" y="207"/>
      <point x="219" y="179" type="curve" smooth="yes"/>
      <point x="248" y="169"/>
      <point x="257" y="163"/>
      <point x="257" y="154" type="curve" smooth="yes"/>
      <point x="257" y="147"/>
      <point x="247" y="137"/>
      <point x="225" y="137" type="curve" smooth="yes"/>
      <point x="190" y="137"/>
      <point x="126" y="161"/>
      <point x="87" y="181" type="curve"/>
      <point x="36" y="56" type="line"/>
      <point x="92" y="12"/>
      <point x="203" y="-11"/>
      <point x="243" y="-11" type="curve" smooth="yes"/>
      <point x="379" y="-11"/>
      <point x="445" y="49"/>
      <point x="445" y="151" type="curve" smooth="yes"/>
      <point x="445" y="241"/>
      <point x="356" y="284"/>
      <point x="275" y="312" type="curve" smooth="yes"/>
    </contour>
    <contour>
      <point x="258" y="575" type="move" name="top"/>
    </contour>
    <contour>
      <point x="236" y="30" type="move" name="bottom"/>
    </contour>
  </outline>
</glyph>
<glyph name="t" format="1">
  <advance width="466"/>
  <unicode hex="0074"/>
  <outline>
    <contour>
      <point x="369" y="-11"/>
      <point x="432" y="10"/>
      <point x="456" y="32" type="curve"/>
      <point x="404" y="156" type="line"/>
      <point x="381" y="143"/>
      <point x="351" y="137"/>
      <point x="334" y="137" type="curve" smooth="yes"/>
      <point x="291" y="137"/>
      <point x="267" y="162"/>
      <point x="267" y="202" type="curve" smooth="yes"/>
      <point x="267" y="322" type="line"/>
      <point x="401" y="322" type="line"/>
      <point x="384" y="465" type="line"/>
      <point x="267" y="465" type="line"/>
      <point x="267" y="621" type="line"/>
      <point x="85" y="596" type="line"/>
      <point x="85" y="465" type="line"/>
      <point x="10" y="465" type="line"/>
      <point x="10" y="322" type="line"/>
      <point x="85" y="322" type="line"/>
      <point x="85" y="182" type="line" smooth="yes"/>
      <point x="85" y="52"/>
      <point x="198" y="-11"/>
      <point x="322" y="-11" type="curve" smooth="yes"/>
    </contour>
    <contour>
      <point x="320" y="30" type="move" name="bottom"/>
    </contour>
  </outline>
</glyph>
<glyph name="v" format="1">
  <advance width="569"/>
  <unicode hex="0076"/>
  <outline>
    <contour>
      <point x="196" y="0" type="line"/>
      <point x="368" y="0" type="line"/>
      <point x="559" y="485" type="line"/>
      <point x="378" y="485" type="line"/>
      <point x="285" y="211" type="line"/>
      <point x="188" y="485" type="line"/>
      <point x="10" y="467" type="line"/>
    </contour>
  </outline>
</glyph>
<glyph name="w" format="1">
  <advance width="860"/>
  <unicode hex="0077"/>
  <outline>
    <contour>
      <point x="513" y="0" type="line"/>
      <point x="679" y="0" type="line"/>
      <point x="850" y="485" type="line"/>
      <point x="669" y="485" type="line"/>
      <point x="596" y="210" type="line"/>
      <point x="514" y="485" type="line"/>
      <point x="343" y="485" type="line"/>
      <point x="266" y="210" type="line"/>
      <point x="188" y="485" type="line"/>
      <point x="10" y="467" type="line"/>
      <point x="176" y="0" type="line"/>
      <point x="342" y="0" type="line"/>
      <point x="427" y="251" type="line"/>
    </contour>
  </outline>
</glyph>
<glyph name="x" format="1">
  <advance width="597"/>
  <unicode hex="0078"/>
  <outline>
    <contour>
      <point x="383" y="0" type="line"/>
      <point x="587" y="0" type="line"/>
      <point x="402" y="231" type="line"/>
      <point x="587" y="485" type="line"/>
      <point x="386" y="485" type="line"/>
      <point x="292" y="368" type="line"/>
      <point x="198" y="487" type="line"/>
      <point x="10" y="462" type="line"/>
      <point x="188" y="241" type="line"/>
      <point x="10" y="0" type="line"/>
      <point x="215" y="0" type="line"/>
      <point x="298" y="104" type="line"/>
    </contour>
  </outline>
</glyph>
<glyph name="bar" format="1">
  <advance width="382"/>
  <unicode hex="007C"/>
  <outline>
    <contour>
      <point x="100" y="0" type="line"/>
      <point x="282" y="-16" type="line"/>
      <point x="282" y="697" type="line"/>
      <point x="100" y="713" type="line"/>
    </contour>
  </outline>
</glyph>
<glyph name="asciitilde" format="1">
  <advance width="525"/>
  <unicode hex="007E"/>
  <outline>
    <contour>
      <point x="389" y="400" type="line"/>
      <point x="389" y="378"/>
      <point x="372" y="351"/>
      <point x="347" y="351" type="curve" smooth="yes"/>
      <point x="305" y="351"/>
      <point x="225" y="385"/>
      <point x="170" y="385" type="curve" smooth="yes"/>
      <point x="64" y="385"/>
      <point x="10" y="296"/>
      <point x="10" y="175" type="curve"/>
      <point x="136" y="175" type="line"/>
      <point x="136" y="197"/>
      <point x="173" y="224"/>
      <point x="198" y="224" type="curve" smooth="yes"/>
      <point x="256" y="224"/>
      <point x="321" y="190"/>
      <point x="379" y="190" type="curve" smooth="yes"/>
      <point x="481" y="190"/>
      <point x="515" y="279"/>
      <point x="515" y="400" type="curve"/>
    </contour>
  </outline>
</glyph>
<glyph name="cent" format="1">
  <advance width="487"/>
  <unicode hex="00A2"/>
  <outline>
    <contour>
      <point x="348" y="354"/>
      <point x="371" y="348"/>
      <point x="410" y="328" type="curve"/>
      <point x="461" y="453" type="line"/>
      <point x="430" y="477"/>
      <point x="394" y="490"/>
      <point x="362" y="496" type="curve"/>
      <point x="362" y="631" type="line"/>
      <point x="212" y="631" type="line"/>
      <point x="212" y="492" type="line"/>
      <point x="100" y="463"/>
      <point x="30" y="374"/>
      <point x="30" y="242" type="curve" smooth="yes"/>
      <point x="30" y="109"/>
      <point x="100" y="25"/>
      <point x="212" y="-2" type="curve"/>
      <point x="212" y="-125" type="line"/>
      <point x="362" y="-136" type="line"/>
      <point x="362" y="-5" type="line"/>
      <point x="394" y="1"/>
      <point x="430" y="13"/>
      <point x="461" y="38" type="curve"/>
      <point x="410" y="163" type="line"/>
      <point x="371" y="143"/>
      <point x="345" y="137"/>
      <point x="313" y="137" type="curve" smooth="yes"/>
      <point x="264" y="137"/>
      <point x="218" y="173"/>
      <point x="218" y="242" type="curve" smooth="yes"/>
      <point x="218" y="312"/>
      <point x="264" y="354"/>
      <point x="313" y="354" type="curve" smooth="yes"/>
    </contour>
  </outline>
</glyph>
<glyph name="sterling" format="1">
  <advance width="512"/>
  <unicode hex="00A3"/>
  <outline>
    <contour>
      <point x="443" y="268" type="line"/>
      <point x="426" y="411" type="line"/>
      <point x="293" y="411" type="line"/>
      <point x="293" y="471" type="line" smooth="yes"/>
      <point x="293" y="511"/>
      <point x="317" y="536"/>
      <point x="360" y="536" type="curve" smooth="yes"/>
      <point x="377" y="536"/>
      <point x="407" y="530"/>
      <point x="430" y="517" type="curve"/>
      <point x="482" y="641" type="line"/>
      <point x="458" y="663"/>
      <point x="395" y="684"/>
      <point x="348" y="684" type="curve" smooth="yes"/>
      <point x="224" y="684"/>
      <point x="111" y="621"/>
      <point x="111" y="491" type="curve" smooth="yes"/>
      <point x="111" y="411" type="line"/>
      <point x="30" y="411" type="line"/>
      <point x="30" y="268" type="line"/>
      <point x="111" y="268" type="line"/>
      <point x="111" y="208" type="line" smooth="yes"/>
      <point x="111" y="170"/>
      <point x="89" y="145"/>
      <point x="50" y="143" type="curve" smooth="yes"/>
      <point x="39" y="143" type="line"/>
      <point x="39" y="0" type="line"/>
      <point x="502" y="0" type="line"/>
      <point x="485" y="143" type="line"/>
      <point x="288" y="143" type="line"/>
      <point x="291" y="157"/>
      <point x="293" y="172"/>
      <point x="293" y="188" type="curve" smooth="yes"/>
      <point x="293" y="268" type="line"/>
    </contour>
  </outline>
</glyph>
<glyph name="currency" format="1">
  <advance width="793"/>
  <unicode hex="00A4"/>
  <outline>
    <contour>
      <point x="441" y="-11"/>
      <point x="488" y="-1"/>
      <point x="524" y="16" type="curve"/>
      <point x="631" y="-98" type="line"/>
      <point x="773" y="20" type="line"/>
      <point x="644" y="136" type="line"/>
      <point x="660" y="170"/>
      <point x="670" y="210"/>
      <point x="670" y="252" type="curve" smooth="yes"/>
      <point x="670" y="294"/>
      <point x="660" y="333"/>
      <point x="645" y="366" type="curve"/>
      <point x="761" y="480" type="line"/>
      <point x="636" y="604" type="line"/>
      <point x="610" y="577"/>
      <point x="556" y="518"/>
      <point x="524" y="486" type="curve"/>
      <point x="488" y="503"/>
      <point x="440" y="512"/>
      <point x="396" y="512" type="curve" smooth="yes"/>
      <point x="352" y="512"/>
      <point x="305" y="502"/>
      <point x="269" y="485" type="curve"/>
      <point x="162" y="599" type="line"/>
      <point x="20" y="481" type="line"/>
      <point x="149" y="365" type="line"/>
      <point x="133" y="331"/>
      <point x="123" y="291"/>
      <point x="123" y="249" type="curve" smooth="yes"/>
      <point x="123" y="207"/>
      <point x="133" y="168"/>
      <point x="148" y="135" type="curve"/>
      <point x="32" y="21" type="line"/>
      <point x="157" y="-103" type="line"/>
      <point x="183" y="-76"/>
      <point x="237" y="-17"/>
      <point x="269" y="15" type="curve"/>
      <point x="305" y="-2"/>
      <point x="353" y="-11"/>
      <point x="397" y="-12" type="curve"/>
    </contour>
    <contour>
      <point x="303" y="301"/>
      <point x="340" y="342"/>
      <point x="396" y="342" type="curve" smooth="yes"/>
      <point x="450" y="342"/>
      <point x="491" y="303"/>
      <point x="491" y="251" type="curve" smooth="yes"/>
      <point x="491" y="200"/>
      <point x="453" y="159"/>
      <point x="397" y="159" type="curve" smooth="yes"/>
      <point x="343" y="159"/>
      <point x="303" y="198"/>
      <point x="302" y="250" type="curve"/>
    </contour>
  </outline>
</glyph>
<glyph name="yen" format="1">
  <advance width="669"/>
  <unicode hex="00A5"/>
  <outline>
    <contour>
      <point x="116" y="200" type="line"/>
      <point x="241" y="200" type="line"/>
      <point x="241" y="166" type="line"/>
      <point x="106" y="166" type="line"/>
      <point x="116" y="50" type="line"/>
      <point x="241" y="50" type="line"/>
      <point x="241" y="0" type="line"/>
      <point x="423" y="0" type="line"/>
      <point x="423" y="50" type="line"/>
      <point x="564" y="50" type="line"/>
      <point x="554" y="166" type="line"/>
      <point x="423" y="166" type="line"/>
      <point x="423" y="200" type="line"/>
      <point x="564" y="200" type="line"/>
      <point x="554" y="316" type="line"/>
      <point x="451" y="316" type="line"/>
      <point x="659" y="680" type="line"/>
      <point x="472" y="680" type="line"/>
      <point x="331" y="435" type="line"/>
      <point x="199" y="680" type="line"/>
      <point x="10" y="662" type="line"/>
      <point x="213" y="316" type="line"/>
      <point x="106" y="316" type="line"/>
    </contour>
  </outline>
</glyph>
<glyph name="brokenbar" format="1">
  <advance width="382"/>
  <unicode hex="00A6"/>
  <outline>
    <contour>
      <point x="100" y="410" type="line"/>
      <point x="282" y="394" type="line"/>
      <point x="282" y="697" type="line"/>
      <point x="100" y="713" type="line"/>
    </contour>
    <contour>
      <point x="100" y="0" type="line"/>
      <point x="282" y="-16" type="line"/>
      <point x="282" y="287" type="line"/>
      <point x="100" y="303" type="line"/>
    </contour>
  </outline>
</glyph>
<glyph name="section" format="1">
  <advance width="721"/>
  <unicode hex="00A7"/>
  <outline>
    <contour>
      <point x="194" y="576" type="line"/>
      <point x="92" y="551"/>
      <point x="31" y="481"/>
      <point x="31" y="394" type="curve" smooth="yes"/>
      <point x="31" y="275"/>
      <point x="144" y="208"/>
      <point x="235" y="162" type="curve" smooth="yes"/>
      <point x="287" y="136"/>
      <point x="340" y="107"/>
      <point x="340" y="83" type="curve" smooth="yes"/>
      <point x="340" y="57"/>
      <point x="309" y="30"/>
      <point x="252" y="30" type="curve" smooth="yes"/>
      <point x="202" y="30"/>
      <point x="129" y="52"/>
      <point x="94" y="73" type="curve"/>
      <point x="34" y="-64" type="line"/>
      <point x="87" y="-96"/>
      <point x="187" y="-119"/>
      <point x="257" y="-119" type="curve" smooth="yes"/>
      <point x="426" y="-119"/>
      <point x="528" y="-34"/>
      <point x="528" y="81" type="curve" smooth="yes"/>
      <point x="528" y="83"/>
      <point x="527" y="85"/>
      <point x="527" y="87" type="curve"/>
      <point x="631" y="115"/>
      <point x="691" y="186"/>
      <point x="691" y="274" type="curve" smooth="yes"/>
      <point x="691" y="385"/>
      <point x="582" y="456"/>
      <point x="485" y="506" type="curve" smooth="yes"/>
      <point x="429" y="535"/>
      <point x="382" y="553"/>
      <point x="382" y="583" type="curve" smooth="yes"/>
      <point x="382" y="608"/>
      <point x="407" y="631"/>
      <point x="449" y="631" type="curve" smooth="yes"/>
      <point x="494" y="631"/>
      <point x="520" y="626"/>
      <point x="593" y="601" type="curve"/>
      <point x="647" y="724" type="line"/>
      <point x="594" y="760"/>
      <point x="515" y="780"/>
      <point x="447" y="780" type="curve" smooth="yes"/>
      <point x="291" y="780"/>
      <point x="195" y="697"/>
      <point x="194" y="587" type="curve"/>
    </contour>
    <contour>
      <point x="266" y="342"/>
      <point x="219" y="360"/>
      <point x="219" y="390" type="curve" smooth="yes"/>
      <point x="219" y="411"/>
      <point x="237" y="431"/>
      <point x="269" y="436" type="curve"/>
      <point x="308" y="402"/>
      <point x="355" y="376"/>
      <point x="398" y="354" type="curve" smooth="yes"/>
      <point x="450" y="329"/>
      <point x="503" y="300"/>
      <point x="503" y="276" type="curve" smooth="yes"/>
      <point x="503" y="256"/>
      <point x="485" y="236"/>
      <point x="452" y="227" type="curve"/>
      <point x="414" y="261"/>
      <point x="366" y="289"/>
      <point x="321" y="312" type="curve"/>
    </contour>
  </outline>
</glyph>
<glyph name="dieresis" format="1">
  <advance width="398"/>
  <unicode hex="00A8"/>
  <outline>
    <contour>
      <point x="388" y="732"/>
      <point x="352" y="769"/>
      <point x="304" y="769" type="curve" smooth="yes"/>
      <point x="260" y="769"/>
      <point x="221" y="732"/>
      <point x="221" y="686" type="curve" smooth="yes"/>
      <point x="221" y="639"/>
      <point x="260" y="603"/>
      <point x="304" y="603" type="curve" smooth="yes"/>
      <point x="352" y="603"/>
      <point x="388" y="639"/>
      <point x="388" y="686" type="curve" smooth="yes"/>
    </contour>
    <contour>
      <point x="177" y="732"/>
      <point x="141" y="769"/>
      <point x="93" y="769" type="curve" smooth="yes"/>
      <point x="49" y="769"/>
      <point x="10" y="732"/>
      <point x="10" y="686" type="curve" smooth="yes"/>
      <point x="10" y="639"/>
      <point x="49" y="603"/>
      <point x="93" y="603" type="curve" smooth="yes"/>
      <point x="141" y="603"/>
      <point x="177" y="639"/>
      <point x="177" y="686" type="curve" smooth="yes"/>
    </contour>
    <contour>
      <point x="197" y="570" type="move" name="_top"/>
    </contour>
  </outline>
</glyph>
<glyph name="copyright" format="1">
  <advance width="905"/>
  <unicode hex="00A9"/>
  <outline>
    <contour>
      <point x="297" y="82"/>
      <point x="195" y="192"/>
      <point x="195" y="337" type="curve" smooth="yes"/>
      <point x="195" y="483"/>
      <point x="297" y="593"/>
      <point x="452" y="593" type="curve" smooth="yes"/>
      <point x="624" y="593"/>
      <point x="708" y="483"/>
      <point x="708" y="337" type="curve" smooth="yes"/>
      <point x="708" y="192"/>
      <point x="609" y="82"/>
      <point x="452" y="82" type="curve" smooth="yes"/>
    </contour>
    <contour>
      <point x="689" y="-42"/>
      <point x="845" y="125"/>
      <point x="845" y="336" type="curve" smooth="yes"/>
      <point x="845" y="550"/>
      <point x="689" y="716"/>
      <point x="452" y="716" type="curve" smooth="yes"/>
      <point x="217" y="716"/>
      <point x="60" y="550"/>
      <point x="60" y="336" type="curve" smooth="yes"/>
      <point x="60" y="125"/>
      <point x="217" y="-42"/>
      <point x="452" y="-42" type="curve" smooth="yes"/>
    </contour>
    <contour>
      <point x="511" y="434"/>
      <point x="531" y="428"/>
      <point x="565" y="411" type="curve"/>
      <point x="609" y="520" type="line"/>
      <point x="560" y="559"/>
      <point x="499" y="563"/>
      <point x="464" y="563" type="curve" smooth="yes"/>
      <point x="326" y="563"/>
      <point x="233" y="478"/>
      <point x="233" y="336" type="curve" smooth="yes"/>
      <point x="233" y="194"/>
      <point x="326" y="115"/>
      <point x="464" y="115" type="curve" smooth="yes"/>
      <point x="499" y="115"/>
      <point x="560" y="119"/>
      <point x="609" y="158" type="curve"/>
      <point x="565" y="267" type="line"/>
      <point x="531" y="249"/>
      <point x="508" y="244"/>
      <point x="480" y="244" type="curve" smooth="yes"/>
      <point x="437" y="244"/>
      <point x="397" y="276"/>
      <point x="397" y="336" type="curve" smooth="yes"/>
      <point x="397" y="397"/>
      <point x="437" y="434"/>
      <point x="480" y="434" type="curve" smooth="yes"/>
    </contour>
  </outline>
</glyph>
<glyph name="ordfeminine" format="1">
  <advance width="387"/>
  <unicode hex="00AA"/>
  <outline>
    <contour>
      <point x="137" y="702"/>
      <point x="78" y="686"/>
      <point x="41" y="669" type="curve"/>
      <point x="76" y="559" type="line"/>
      <point x="102" y="570"/>
      <point x="138" y="580"/>
      <point x="162" y="580" type="curve" smooth="yes"/>
      <point x="179" y="580"/>
      <point x="192" y="574"/>
      <point x="199" y="564" type="curve"/>
      <point x="165" y="564" type="line" smooth="yes"/>
      <point x="85" y="564"/>
      <point x="30" y="531"/>
      <point x="30" y="456" type="curve" smooth="yes"/>
      <point x="30" y="384"/>
      <point x="72" y="337"/>
      <point x="160" y="337" type="curve" smooth="yes"/>
      <point x="199" y="337"/>
      <point x="234" y="350"/>
      <point x="256" y="371" type="curve"/>
      <point x="279" y="344" type="line"/>
      <point x="337" y="344" type="line"/>
      <point x="337" y="558" type="line" smooth="yes"/>
      <point x="337" y="646"/>
      <point x="288" y="702"/>
      <point x="194" y="702" type="curve" smooth="yes"/>
    </contour>
    <contour>
      <point x="156" y="451"/>
      <point x="148" y="455"/>
      <point x="148" y="461" type="curve" smooth="yes"/>
      <point x="148" y="471"/>
      <point x="157" y="475"/>
      <point x="171" y="475" type="curve" smooth="yes"/>
      <point x="207" y="475" type="line"/>
      <point x="207" y="470" type="line"/>
      <point x="197" y="458"/>
      <point x="183" y="451"/>
      <point x="168" y="451" type="curve" smooth="yes"/>
    </contour>
  </outline>
</glyph>
<glyph name="guillemotleft" format="1">
  <advance width="407"/>
  <unicode hex="00AB"/>
  <outline>
    <contour>
      <point x="177" y="73" type="line"/>
      <point x="210" y="179" type="line"/>
      <point x="144" y="247" type="line"/>
      <point x="210" y="314" type="line"/>
      <point x="177" y="421" type="line"/>
      <point x="20" y="269" type="line"/>
      <point x="20" y="224" type="line"/>
    </contour>
    <contour>
      <point x="358" y="73" type="line"/>
      <point x="391" y="179" type="line"/>
      <point x="325" y="247" type="line"/>
      <point x="391" y="314" type="line"/>
      <point x="358" y="421" type="line"/>
      <point x="201" y="269" type="line"/>
      <point x="201" y="224" type="line"/>
    </contour>
  </outline>
</glyph>
<glyph name="logicalnot" format="1">
  <advance width="534"/>
  <unicode hex="00AC"/>
  <outline>
    <contour>
      <point x="524" y="110" type="line"/>
      <point x="524" y="357" type="line"/>
      <point x="506" y="424" type="line"/>
      <point x="10" y="424" type="line"/>
      <point x="23" y="281" type="line"/>
      <point x="356" y="281" type="line"/>
      <point x="356" y="117" type="line"/>
    </contour>
  </outline>
</glyph>
<glyph name="registered" format="1">
  <advance width="745"/>
  <unicode hex="00AE"/>
  <outline>
    <contour>
      <point x="554" y="138"/>
      <point x="684" y="286"/>
      <point x="684" y="475" type="curve" smooth="yes"/>
      <point x="684" y="666"/>
      <point x="554" y="815"/>
      <point x="342" y="815" type="curve" smooth="yes"/>
      <point x="132" y="815"/>
      <point x="1" y="666"/>
      <point x="1" y="475" type="curve" smooth="yes"/>
      <point x="1" y="286"/>
      <point x="132" y="138"/>
      <point x="342" y="138" type="curve" smooth="yes"/>
    </contour>
    <contour>
      <point x="197" y="244"/>
      <point x="112" y="342"/>
      <point x="112" y="476" type="curve" smooth="yes"/>
      <point x="112" y="612"/>
      <point x="197" y="710"/>
      <point x="342" y="710" type="curve" smooth="yes"/>
      <point x="486" y="710"/>
      <point x="573" y="612"/>
      <point x="573" y="476" type="curve" smooth="yes"/>
      <point x="573" y="342"/>
      <point x="486" y="244"/>
      <point x="342" y="242" type="curve"/>
    </contour>
    <contour>
      <point x="195" y="300" type="line"/>
      <point x="300" y="300" type="line"/>
      <point x="300" y="412" type="line"/>
      <point x="336" y="412" type="line"/>
      <point x="379" y="300" type="line"/>
      <point x="498" y="300" type="line"/>
      <point x="440" y="436" type="line"/>
      <point x="474" y="456"/>
      <point x="498" y="488"/>
      <point x="498" y="534" type="curve" smooth="yes"/>
      <point x="498" y="620"/>
      <point x="422" y="656"/>
      <point x="344" y="656" type="curve" smooth="yes"/>
      <point x="195" y="656" type="line"/>
    </contour>
    <contour>
      <point x="331" y="574" type="line" smooth="yes"/>
      <point x="363" y="574"/>
      <point x="382" y="566"/>
      <point x="382" y="534" type="curve" smooth="yes"/>
      <point x="382" y="506"/>
      <point x="361" y="492"/>
      <point x="331" y="492" type="curve" smooth="yes"/>
      <point x="300" y="492" type="line"/>
      <point x="300" y="574" type="line"/>
    </contour>
  </outline>
</glyph>
<glyph name="macron" format="1">
  <advance width="310"/>
  <unicode hex="00AF"/>
  <outline>
    <contour>
      <point x="10" y="756" type="line"/>
      <point x="10" y="613" type="line"/>
      <point x="300" y="613" type="line"/>
      <point x="300" y="756" type="line"/>
    </contour>
    <contour>
      <point x="163" y="570" type="move" name="_top"/>
    </contour>
  </outline>
</glyph>
<glyph name="plusminus" format="1">
  <advance width="525"/>
  <unicode hex="00B1"/>
  <outline>
    <contour>
      <point x="505" y="292" type="line"/>
      <point x="495" y="415" type="line"/>
      <point x="338" y="415" type="line"/>
      <point x="338" y="570" type="line"/>
      <point x="190" y="570" type="line"/>
      <point x="190" y="415" type="line"/>
      <point x="22" y="415" type="line"/>
      <point x="33" y="292" type="line"/>
      <point x="190" y="292" type="line"/>
      <point x="190" y="157" type="line"/>
      <point x="338" y="149" type="line"/>
      <point x="338" y="292" type="line"/>
    </contour>
    <contour>
      <point x="503" y="0" type="line"/>
      <point x="493" y="123" type="line"/>
      <point x="20" y="123" type="line"/>
      <point x="31" y="0" type="line"/>
    </contour>
  </outline>
</glyph>
<glyph name="twosuperior" format="1">
  <advance width="409"/>
  <unicode hex="00B2"/>
  <outline>
    <contour>
      <point x="352" y="705"/>
      <point x="317" y="771"/>
      <point x="195" y="771" type="curve" smooth="yes"/>
      <point x="124" y="771"/>
      <point x="64" y="734"/>
      <point x="30" y="706" type="curve"/>
      <point x="88" y="616" type="line"/>
      <point x="115" y="635"/>
      <point x="154" y="660"/>
      <point x="189" y="660" type="curve" smooth="yes"/>
      <point x="215" y="660"/>
      <point x="231" y="648"/>
      <point x="231" y="630" type="curve" smooth="yes"/>
      <point x="230" y="609"/>
      <point x="213" y="579"/>
      <point x="168" y="540" type="curve" smooth="yes"/>
      <point x="40" y="427" type="line"/>
      <point x="40" y="337" type="line"/>
      <point x="369" y="337" type="line"/>
      <point x="357" y="444" type="line"/>
      <point x="234" y="444" type="line"/>
      <point x="257" y="465" type="line" smooth="yes"/>
      <point x="325" y="527"/>
      <point x="352" y="578"/>
      <point x="352" y="643" type="curve" smooth="yes"/>
    </contour>
  </outline>
</glyph>
<glyph name="threesuperior" format="1">
  <advance width="427"/>
  <unicode hex="00B3"/>
  <outline>
    <contour>
      <point x="388" y="718"/>
      <point x="316" y="771"/>
      <point x="205" y="771" type="curve" smooth="yes"/>
      <point x="146" y="771"/>
      <point x="83" y="758"/>
      <point x="30" y="716" type="curve"/>
      <point x="95" y="623" type="line"/>
      <point x="130" y="647"/>
      <point x="163" y="660"/>
      <point x="191" y="660" type="curve" smooth="yes"/>
      <point x="230" y="660"/>
      <point x="248" y="645"/>
      <point x="248" y="626" type="curve" smooth="yes"/>
      <point x="248" y="601"/>
      <point x="221" y="585"/>
      <point x="177" y="585" type="curve" smooth="yes"/>
      <point x="116" y="585" type="line"/>
      <point x="127" y="477" type="line"/>
      <point x="204" y="477" type="line" smooth="yes"/>
      <point x="234" y="477"/>
      <point x="256" y="461"/>
      <point x="256" y="432" type="curve" smooth="yes"/>
      <point x="256" y="406"/>
      <point x="231" y="389"/>
      <point x="197" y="389" type="curve" smooth="yes"/>
      <point x="162" y="389"/>
      <point x="130" y="400"/>
      <point x="87" y="427" type="curve"/>
      <point x="14" y="336" type="line"/>
      <point x="72" y="298"/>
      <point x="141" y="279"/>
      <point x="196" y="279" type="curve" smooth="yes"/>
      <point x="317" y="279"/>
      <point x="397" y="340"/>
      <point x="397" y="428" type="curve" smooth="yes"/>
      <point x="397" y="472"/>
      <point x="367" y="520"/>
      <point x="332" y="541" type="curve"/>
      <point x="359" y="555"/>
      <point x="388" y="603"/>
      <point x="388" y="638" type="curve" smooth="yes"/>
    </contour>
  </outline>
</glyph>
<glyph name="acute" format="1">
  <advance width="274"/>
  <unicode hex="00B4"/>
  <outline>
    <contour>
      <point x="84" y="787" type="line"/>
      <point x="10" y="588" type="line"/>
      <point x="150" y="588" type="line"/>
      <point x="264" y="787" type="line"/>
    </contour>
    <contour>
      <point x="74" y="545" type="move" name="_top"/>
    </contour>
  </outline>
</glyph>
<glyph name="mu" format="1">
  <advance width="595"/>
  <unicode hex="00B5"/>
  <outline>
    <contour>
      <point x="60" y="-219" type="line"/>
      <point x="242" y="-209" type="line"/>
      <point x="242" y="-18" type="line"/>
      <point x="246" y="-18" type="line" smooth="yes"/>
      <point x="328" y="-18"/>
      <point x="394" y="18"/>
      <point x="435" y="41" type="curve"/>
      <point x="473" y="0" type="line"/>
      <point x="564" y="0" type="line"/>
      <point x="564" y="484" type="line"/>
      <point x="382" y="484" type="line"/>
      <point x="382" y="158" type="line"/>
      <point x="353" y="144"/>
      <point x="318" y="130"/>
      <point x="296" y="130" type="curve" smooth="yes"/>
      <point x="263" y="130"/>
      <point x="242" y="151"/>
      <point x="242" y="188" type="curve" smooth="yes"/>
      <point x="242" y="484" type="line"/>
      <point x="60" y="484" type="line"/>
    </contour>
  </outline>
</glyph>
<glyph name="paragraph" format="1">
  <advance width="1073"/>
  <unicode hex="00B6"/>
  <outline>
    <contour>
      <point x="1073" y="680" type="line"/>
      <point x="355" y="680" type="line" smooth="yes"/>
      <point x="192" y="680"/>
      <point x="60" y="613"/>
      <point x="60" y="439" type="curve" smooth="yes"/>
      <point x="60" y="267"/>
      <point x="205" y="191"/>
      <point x="368" y="191" type="curve" smooth="yes"/>
      <point x="393" y="191" type="line"/>
      <point x="393" y="0" type="line"/>
      <point x="574" y="0" type="line"/>
      <point x="574" y="537" type="line"/>
      <point x="753" y="537" type="line"/>
      <point x="753" y="0" type="line"/>
      <point x="935" y="0" type="line"/>
      <point x="935" y="537" type="line"/>
      <point x="1073" y="537" type="line"/>
    </contour>
  </outline>
</glyph>
<glyph name="periodcentered" format="1">
  <advance width="203"/>
  <unicode hex="00B7"/>
  <outline>
    <contour>
      <point x="193" y="315"/>
      <point x="153" y="355"/>
      <point x="102" y="355" type="curve" smooth="yes"/>
      <point x="50" y="355"/>
      <point x="10" y="315"/>
      <point x="10" y="263" type="curve" smooth="yes"/>
      <point x="10" y="211"/>
      <point x="50" y="172"/>
      <point x="102" y="172" type="curve" smooth="yes"/>
      <point x="153" y="172"/>
      <point x="193" y="211"/>
      <point x="193" y="263" type="curve" smooth="yes"/>
    </contour>
  </outline>
</glyph>
<glyph name="cedilla" format="1">
  <advance width="277"/>
  <unicode hex="00B8"/>
  <outline>
    <contour>
      <point x="93" y="13" type="line"/>
      <point x="50" y="-94" type="line"/>
      <point x="105" y="-101"/>
      <point x="135" y="-113"/>
      <point x="135" y="-132" type="curve" smooth="yes"/>
      <point x="135" y="-144"/>
      <point x="121" y="-150"/>
      <point x="104" y="-150" type="curve" smooth="yes"/>
      <point x="85" y="-150"/>
      <point x="61" y="-141"/>
      <point x="48" y="-135" type="curve"/>
      <point x="10" y="-221" type="line"/>
      <point x="43" y="-246"/>
      <point x="87" y="-262"/>
      <point x="126" y="-262" type="curve" smooth="yes"/>
      <point x="199" y="-262"/>
      <point x="267" y="-219"/>
      <point x="267" y="-142" type="curve" smooth="yes"/>
      <point x="267" y="-107"/>
      <point x="249" y="-55"/>
      <point x="199" y="-39" type="curve"/>
      <point x="219" y="13" type="line"/>
    </contour>
    <contour>
      <point x="156" y="25" type="move" name="_bottom"/>
    </contour>
  </outline>
</glyph>
<glyph name="onesuperior" format="1">
  <advance width="384"/>
  <unicode hex="00B9"/>
  <outline>
    <contour>
      <point x="59" y="337" type="line"/>
      <point x="364" y="337" type="line"/>
      <point x="352" y="445" type="line"/>
      <point x="286" y="445" type="line"/>
      <point x="286" y="764" type="line"/>
      <point x="195" y="764" type="line"/>
      <point x="30" y="683" type="line"/>
      <point x="90" y="566" type="line"/>
      <point x="149" y="593" type="line"/>
      <point x="149" y="445" type="line"/>
      <point x="47" y="445" type="line"/>
    </contour>
  </outline>
</glyph>
<glyph name="ordmasculine" format="1">
  <advance width="422"/>
  <unicode hex="00BA"/>
  <outline>
    <contour>
      <point x="30" y="407"/>
      <point x="94" y="337"/>
      <point x="205" y="337" type="curve" smooth="yes"/>
      <point x="319" y="337"/>
      <point x="392" y="406"/>
      <point x="392" y="517" type="curve" smooth="yes"/>
      <point x="392" y="629"/>
      <point x="327" y="702"/>
      <point x="210" y="702" type="curve" smooth="yes"/>
      <point x="99" y="702"/>
      <point x="30" y="632"/>
      <point x="30" y="519" type="curve" smooth="yes"/>
    </contour>
    <contour>
      <point x="244" y="578"/>
      <point x="254" y="555"/>
      <point x="254" y="517" type="curve" smooth="yes"/>
      <point x="254" y="477"/>
      <point x="240" y="458"/>
      <point x="208" y="458" type="curve" smooth="yes"/>
      <point x="179" y="458"/>
      <point x="168" y="479"/>
      <point x="168" y="519" type="curve" smooth="yes"/>
      <point x="168" y="561"/>
      <point x="185" y="578"/>
      <point x="212" y="578" type="curve" smooth="yes"/>
    </contour>
  </outline>
</glyph>
<glyph name="guillemotright" format="1">
  <advance width="407"/>
  <unicode hex="00BB"/>
  <outline>
    <contour>
      <point x="230" y="421" type="line"/>
      <point x="197" y="315" type="line"/>
      <point x="263" y="247" type="line"/>
      <point x="197" y="180" type="line"/>
      <point x="230" y="73" type="line"/>
      <point x="387" y="225" type="line"/>
      <point x="387" y="270" type="line"/>
    </contour>
    <contour>
      <point x="49" y="421" type="line"/>
      <point x="16" y="315" type="line"/>
      <point x="82" y="247" type="line"/>
      <point x="16" y="180" type="line"/>
      <point x="49" y="73" type="line"/>
      <point x="206" y="225" type="line"/>
      <point x="206" y="270" type="line"/>
    </contour>
  </outline>
</glyph>
<glyph name="onequarter" format="1">
  <advance width="993"/>
  <unicode hex="00BC"/>
  <outline>
    <contour>
      <point x="671" y="485" type="line"/>
      <point x="503" y="485" type="line"/>
      <point x="223" y="0" type="line"/>
      <point x="390" y="0" type="line"/>
    </contour>
    <contour>
      <point x="960" y="-75" type="line"/>
      <point x="967" y="36" type="line"/>
      <point x="889" y="36" type="line"/>
      <point x="889" y="326" type="line"/>
      <point x="784" y="326" type="line"/>
      <point x="516" y="28" type="line"/>
      <point x="532" y="-75" type="line"/>
      <point x="748" y="-75" type="line"/>
      <point x="748" y="-166" type="line"/>
      <point x="889" y="-166" type="line"/>
      <point x="889" y="-75" type="line"/>
    </contour>
    <contour>
      <point x="682" y="36" type="line"/>
      <point x="748" y="113" type="line"/>
      <point x="748" y="36" type="line"/>
    </contour>
    <contour>
      <point x="59" y="337" type="line"/>
      <point x="364" y="337" type="line"/>
      <point x="352" y="445" type="line"/>
      <point x="286" y="445" type="line"/>
      <point x="286" y="764" type="line"/>
      <point x="195" y="764" type="line"/>
      <point x="30" y="683" type="line"/>
      <point x="90" y="566" type="line"/>
      <point x="149" y="593" type="line"/>
      <point x="149" y="445" type="line"/>
      <point x="47" y="445" type="line"/>
    </contour>
  </outline>
</glyph>
<glyph name="onehalf" format="1">
  <advance width="970"/>
  <unicode hex="00BD"/>
  <outline>
    <contour>
      <point x="59" y="337" type="line"/>
      <point x="364" y="337" type="line"/>
      <point x="352" y="445" type="line"/>
      <point x="286" y="445" type="line"/>
      <point x="286" y="764" type="line"/>
      <point x="195" y="764" type="line"/>
      <point x="30" y="683" type="line"/>
      <point x="90" y="566" type="line"/>
      <point x="149" y="593" type="line"/>
      <point x="149" y="445" type="line"/>
      <point x="47" y="445" type="line"/>
    </contour>
    <contour>
      <point x="943" y="259"/>
      <point x="908" y="325"/>
      <point x="786" y="325" type="curve" smooth="yes"/>
      <point x="715" y="325"/>
      <point x="655" y="288"/>
      <point x="621" y="260" type="curve"/>
      <point x="679" y="170" type="line"/>
      <point x="706" y="189"/>
      <point x="745" y="214"/>
      <point x="780" y="214" type="curve" smooth="yes"/>
      <point x="806" y="214"/>
      <point x="822" y="202"/>
      <point x="822" y="184" type="curve" smooth="yes"/>
      <point x="821" y="163"/>
      <point x="804" y="133"/>
      <point x="759" y="94" type="curve" smooth="yes"/>
      <point x="631" y="-19" type="line"/>
      <point x="631" y="-109" type="line"/>
      <point x="960" y="-109" type="line"/>
      <point x="948" y="-2" type="line"/>
      <point x="825" y="-2" type="line"/>
      <point x="848" y="19" type="line" smooth="yes"/>
      <point x="916" y="81"/>
      <point x="943" y="132"/>
      <point x="943" y="197" type="curve" smooth="yes"/>
    </contour>
    <contour>
      <point x="691" y="485" type="line"/>
      <point x="523" y="485" type="line"/>
      <point x="243" y="0" type="line"/>
      <point x="410" y="0" type="line"/>
    </contour>
  </outline>
</glyph>
<glyph name="threequarters" format="1">
  <advance width="1013"/>
  <unicode hex="00BE"/>
  <outline>
    <contour>
      <point x="691" y="485" type="line"/>
      <point x="523" y="485" type="line"/>
      <point x="243" y="0" type="line"/>
      <point x="410" y="0" type="line"/>
    </contour>
    <contour>
      <point x="980" y="-75" type="line"/>
      <point x="987" y="36" type="line"/>
      <point x="909" y="36" type="line"/>
      <point x="909" y="326" type="line"/>
      <point x="804" y="326" type="line"/>
      <point x="536" y="28" type="line"/>
      <point x="552" y="-75" type="line"/>
      <point x="768" y="-75" type="line"/>
      <point x="768" y="-166" type="line"/>
      <point x="909" y="-166" type="line"/>
      <point x="909" y="-75" type="line"/>
    </contour>
    <contour>
      <point x="702" y="36" type="line"/>
      <point x="768" y="113" type="line"/>
      <point x="768" y="36" type="line"/>
    </contour>
    <contour>
      <point x="388" y="718"/>
      <point x="316" y="771"/>
      <point x="205" y="771" type="curve" smooth="yes"/>
      <point x="146" y="771"/>
      <point x="83" y="758"/>
      <point x="30" y="716" type="curve"/>
      <point x="95" y="623" type="line"/>
      <point x="130" y="647"/>
      <point x="163" y="660"/>
      <point x="191" y="660" type="curve" smooth="yes"/>
      <point x="230" y="660"/>
      <point x="248" y="645"/>
      <point x="248" y="626" type="curve" smooth="yes"/>
      <point x="248" y="601"/>
      <point x="221" y="585"/>
      <point x="177" y="585" type="curve" smooth="yes"/>
      <point x="116" y="585" type="line"/>
      <point x="127" y="477" type="line"/>
      <point x="204" y="477" type="line" smooth="yes"/>
      <point x="234" y="477"/>
      <point x="256" y="461"/>
      <point x="256" y="432" type="curve" smooth="yes"/>
      <point x="256" y="406"/>
      <point x="231" y="389"/>
      <point x="197" y="389" type="curve" smooth="yes"/>
      <point x="162" y="389"/>
      <point x="130" y="400"/>
      <point x="87" y="427" type="curve"/>
      <point x="14" y="336" type="line"/>
      <point x="72" y="298"/>
      <point x="141" y="279"/>
      <point x="196" y="279" type="curve" smooth="yes"/>
      <point x="317" y="279"/>
      <point x="397" y="340"/>
      <point x="397" y="428" type="curve" smooth="yes"/>
      <point x="397" y="472"/>
      <point x="367" y="520"/>
      <point x="332" y="541" type="curve"/>
      <point x="359" y="555"/>
      <point x="388" y="603"/>
      <point x="388" y="638" type="curve" smooth="yes"/>
    </contour>
  </outline>
</glyph>
<glyph name="questiondown" format="1">
  <advance width="487"/>
  <unicode hex="00BF"/>
  <outline>
    <contour>
      <point x="30" y="40"/>
      <point x="125" y="-37"/>
      <point x="266" y="-37" type="curve" smooth="yes"/>
      <point x="325" y="-37"/>
      <point x="389" y="-24"/>
      <point x="457" y="15" type="curve"/>
      <point x="434" y="164" type="line"/>
      <point x="353" y="119"/>
      <point x="303" y="111"/>
      <point x="269" y="111" type="curve" smooth="yes"/>
      <point x="240" y="111"/>
      <point x="218" y="127"/>
      <point x="218" y="152" type="curve" smooth="yes"/>
      <point x="218" y="188"/>
      <point x="281" y="234"/>
      <point x="369" y="262" type="curve"/>
      <point x="362" y="421" type="line"/>
      <point x="219" y="460" type="line"/>
      <point x="207" y="345" type="line"/>
      <point x="80" y="299"/>
      <point x="30" y="237"/>
      <point x="30" y="155" type="curve" smooth="yes"/>
    </contour>
    <contour>
      <point x="209" y="521"/>
      <point x="249" y="481"/>
      <point x="300" y="481" type="curve" smooth="yes"/>
      <point x="352" y="481"/>
      <point x="392" y="521"/>
      <point x="392" y="573" type="curve" smooth="yes"/>
      <point x="392" y="625"/>
      <point x="352" y="664"/>
      <point x="300" y="664" type="curve" smooth="yes"/>
      <point x="249" y="664"/>
      <point x="209" y="625"/>
      <point x="209" y="573" type="curve" smooth="yes"/>
    </contour>
  </outline>
</glyph>
<glyph name="Acircumflex" format="1">
  <advance width="711"/>
  <unicode hex="00C2"/>
  <outline>
    <contour>
      <point x="447" y="680" type="line"/>
      <point x="265" y="680" type="line"/>
      <point x="10" y="0" type="line"/>
      <point x="191" y="0" type="line"/>
      <point x="238" y="134" type="line"/>
      <point x="473" y="134" type="line"/>
      <point x="522" y="0" type="line"/>
      <point x="701" y="18" type="line"/>
    </contour>
    <contour>
      <point x="294" y="739" type="line"/>
      <point x="347" y="801" type="line"/>
      <point x="399" y="739" type="line"/>
      <point x="572" y="739" type="line"/>
      <point x="398" y="938" type="line"/>
      <point x="291" y="938" type="line"/>
      <point x="117" y="739" type="line"/>
    </contour>
    <contour>
      <point x="353" y="462" type="line"/>
      <point x="421" y="277" type="line"/>
      <point x="288" y="277" type="line"/>
    </contour>
  </outline>
</glyph>
<glyph name="Atilde" format="1">
  <advance width="711"/>
  <unicode hex="00C3"/>
  <outline>
    <contour>
      <point x="447" y="680" type="line"/>
      <point x="265" y="680" type="line"/>
      <point x="10" y="0" type="line"/>
      <point x="191" y="0" type="line"/>
      <point x="238" y="134" type="line"/>
      <point x="473" y="134" type="line"/>
      <point x="522" y="0" type="line"/>
      <point x="701" y="18" type="line"/>
    </contour>
    <contour>
      <point x="292" y="750" type="line"/>
      <point x="292" y="762"/>
      <point x="303" y="779"/>
      <point x="314" y="779" type="curve" smooth="yes"/>
      <point x="343" y="779"/>
      <point x="373" y="745"/>
      <point x="414" y="745" type="curve" smooth="yes"/>
      <point x="476" y="745"/>
      <point x="537" y="784"/>
      <point x="537" y="905" type="curve"/>
      <point x="415" y="905" type="line"/>
      <point x="415" y="893"/>
      <point x="404" y="876"/>
      <point x="393" y="876" type="curve" smooth="yes"/>
      <point x="364" y="876"/>
      <point x="334" y="910"/>
      <point x="293" y="910" type="curve" smooth="yes"/>
      <point x="231" y="910"/>
      <point x="166" y="871"/>
      <point x="166" y="750" type="curve"/>
    </contour>
    <contour>
      <point x="353" y="462" type="line"/>
      <point x="421" y="277" type="line"/>
      <point x="288" y="277" type="line"/>
    </contour>
  </outline>
</glyph>
<glyph name="Adieresis" format="1">
  <advance width="711"/>
  <unicode hex="00C4"/>
  <outline>
    <contour>
      <point x="447" y="680" type="line"/>
      <point x="265" y="680" type="line"/>
      <point x="10" y="0" type="line"/>
      <point x="191" y="0" type="line"/>
      <point x="238" y="134" type="line"/>
      <point x="473" y="134" type="line"/>
      <point x="522" y="0" type="line"/>
      <point x="701" y="18" type="line"/>
    </contour>
    <contour>
      <point x="541" y="882"/>
      <point x="505" y="919"/>
      <point x="457" y="919" type="curve" smooth="yes"/>
      <point x="413" y="919"/>
      <point x="374" y="882"/>
      <point x="374" y="836" type="curve" smooth="yes"/>
      <point x="374" y="789"/>
      <point x="413" y="753"/>
      <point x="457" y="753" type="curve" smooth="yes"/>
      <point x="505" y="753"/>
      <point x="541" y="789"/>
      <point x="541" y="836" type="curve" smooth="yes"/>
    </contour>
    <contour>
      <point x="330" y="882"/>
      <point x="294" y="919"/>
      <point x="246" y="919" type="curve" smooth="yes"/>
      <point x="202" y="919"/>
      <point x="163" y="882"/>
      <point x="163" y="836" type="curve" smooth="yes"/>
      <point x="163" y="789"/>
      <point x="202" y="753"/>
      <point x="246" y="753" type="curve" smooth="yes"/>
      <point x="294" y="753"/>
      <point x="330" y="789"/>
      <point x="330" y="836" type="curve" smooth="yes"/>
    </contour>
    <contour>
      <point x="353" y="462" type="line"/>
      <point x="421" y="277" type="line"/>
      <point x="288" y="277" type="line"/>
    </contour>
  </outline>
</glyph>
<glyph name="Aring" format="1">
  <advance width="711"/>
  <unicode hex="00C5"/>
  <outline>
    <contour>
      <point x="447" y="680" type="line"/>
      <point x="265" y="680" type="line"/>
      <point x="10" y="0" type="line"/>
      <point x="191" y="0" type="line"/>
      <point x="238" y="134" type="line"/>
      <point x="473" y="134" type="line"/>
      <point x="522" y="0" type="line"/>
      <point x="701" y="18" type="line"/>
    </contour>
    <contour>
      <point x="476" y="925"/>
      <point x="418" y="976"/>
      <point x="353" y="976" type="curve" smooth="yes"/>
      <point x="286" y="976"/>
      <point x="230" y="925"/>
      <point x="230" y="859" type="curve" smooth="yes"/>
      <point x="230" y="791"/>
      <point x="286" y="744"/>
      <point x="353" y="744" type="curve" smooth="yes"/>
      <point x="418" y="744"/>
      <point x="476" y="791"/>
      <point x="476" y="859" type="curve" smooth="yes"/>
    </contour>
    <contour>
      <point x="353" y="462" type="line"/>
      <point x="421" y="277" type="line"/>
      <point x="288" y="277" type="line"/>
    </contour>
    <contour>
      <point x="383" y="843"/>
      <point x="371" y="829"/>
      <point x="355" y="829" type="curve" smooth="yes"/>
      <point x="339" y="829"/>
      <point x="325" y="843"/>
      <point x="325" y="859" type="curve" smooth="yes"/>
      <point x="325" y="875"/>
      <point x="339" y="887"/>
      <point x="355" y="887" type="curve" smooth="yes"/>
      <point x="371" y="887"/>
      <point x="383" y="875"/>
      <point x="383" y="859" type="curve" smooth="yes"/>
    </contour>
  </outline>
</glyph>
<glyph name="Ccedilla" format="1">
  <advance width="606"/>
  <unicode hex="00C7"/>
  <outline>
    <contour>
      <point x="416" y="544"/>
      <point x="442" y="539"/>
      <point x="515" y="514" type="curve"/>
      <point x="569" y="637" type="line"/>
      <point x="516" y="673"/>
      <point x="437" y="693"/>
      <point x="369" y="693" type="curve" smooth="yes"/>
      <point x="166" y="693"/>
      <point x="40" y="547"/>
      <point x="40" y="337" type="curve" smooth="yes"/>
      <point x="40" y="151"/>
      <point x="129" y="17"/>
      <point x="307" y="-8" type="curve"/>
      <point x="273" y="-94" type="line"/>
      <point x="328" y="-101"/>
      <point x="358" y="-113"/>
      <point x="358" y="-132" type="curve" smooth="yes"/>
      <point x="358" y="-144"/>
      <point x="344" y="-150"/>
      <point x="327" y="-150" type="curve" smooth="yes"/>
      <point x="308" y="-150"/>
      <point x="284" y="-141"/>
      <point x="271" y="-135" type="curve"/>
      <point x="233" y="-221" type="line"/>
      <point x="266" y="-246"/>
      <point x="310" y="-262"/>
      <point x="349" y="-262" type="curve" smooth="yes"/>
      <point x="422" y="-262"/>
      <point x="490" y="-219"/>
      <point x="490" y="-142" type="curve" smooth="yes"/>
      <point x="490" y="-107"/>
      <point x="472" y="-55"/>
      <point x="422" y="-39" type="curve"/>
      <point x="433" y="-9" type="line"/>
      <point x="485" y="-2"/>
      <point x="538" y="14"/>
      <point x="576" y="37" type="curve"/>
      <point x="507" y="173" type="line"/>
      <point x="472" y="152"/>
      <point x="428" y="136"/>
      <point x="378" y="136" type="curve" smooth="yes"/>
      <point x="292" y="136"/>
      <point x="228" y="210"/>
      <point x="228" y="338" type="curve" smooth="yes"/>
      <point x="228" y="462"/>
      <point x="289" y="544"/>
      <point x="371" y="544" type="curve" smooth="yes"/>
    </contour>
  </outline>
</glyph>
<glyph name="Egrave" format="1">
  <advance width="588"/>
  <unicode hex="00C8"/>
  <outline>
    <contour>
      <point x="70" y="0" type="line"/>
      <point x="568" y="0" type="line"/>
      <point x="551" y="143" type="line"/>
      <point x="252" y="143" type="line"/>
      <point x="252" y="270" type="line"/>
      <point x="478" y="270" type="line"/>
      <point x="461" y="413" type="line"/>
      <point x="252" y="413" type="line"/>
      <point x="252" y="537" type="line"/>
      <point x="538" y="537" type="line"/>
      <point x="521" y="680" type="line"/>
      <point x="70" y="680" type="line"/>
    </contour>
    <contour>
      <point x="163" y="932" type="line"/>
      <point x="274" y="738" type="line"/>
      <point x="410" y="738" type="line"/>
      <point x="338" y="932" type="line"/>
    </contour>
  </outline>
</glyph>
<glyph name="Eacute" format="1">
  <advance width="588"/>
  <unicode hex="00C9"/>
  <outline>
    <contour>
      <point x="70" y="0" type="line"/>
      <point x="568" y="0" type="line"/>
      <point x="551" y="143" type="line"/>
      <point x="252" y="143" type="line"/>
      <point x="252" y="270" type="line"/>
      <point x="478" y="270" type="line"/>
      <point x="461" y="413" type="line"/>
      <point x="252" y="413" type="line"/>
      <point x="252" y="537" type="line"/>
      <point x="538" y="537" type="line"/>
      <point x="521" y="680" type="line"/>
      <point x="70" y="680" type="line"/>
    </contour>
    <contour>
      <point x="307" y="932" type="line"/>
      <point x="235" y="738" type="line"/>
      <point x="371" y="738" type="line"/>
      <point x="482" y="932" type="line"/>
    </contour>
  </outline>
</glyph>
<glyph name="Ecircumflex" format="1">
  <advance width="588"/>
  <unicode hex="00CA"/>
  <outline>
    <contour>
      <point x="70" y="0" type="line"/>
      <point x="568" y="0" type="line"/>
      <point x="551" y="143" type="line"/>
      <point x="252" y="143" type="line"/>
      <point x="252" y="270" type="line"/>
      <point x="478" y="270" type="line"/>
      <point x="461" y="413" type="line"/>
      <point x="252" y="413" type="line"/>
      <point x="252" y="537" type="line"/>
      <point x="538" y="537" type="line"/>
      <point x="521" y="680" type="line"/>
      <point x="70" y="680" type="line"/>
    </contour>
    <contour>
      <point x="250" y="739" type="line"/>
      <point x="303" y="801" type="line"/>
      <point x="355" y="739" type="line"/>
      <point x="528" y="739" type="line"/>
      <point x="354" y="938" type="line"/>
      <point x="247" y="938" type="line"/>
      <point x="73" y="739" type="line"/>
    </contour>
  </outline>
</glyph>
<glyph name="Edieresis" format="1">
  <advance width="588"/>
  <unicode hex="00CB"/>
  <outline>
    <contour>
      <point x="568" y="0" type="line"/>
      <point x="551" y="143" type="line"/>
      <point x="252" y="143" type="line"/>
      <point x="252" y="270" type="line"/>
      <point x="478" y="270" type="line"/>
      <point x="461" y="413" type="line"/>
      <point x="252" y="413" type="line"/>
      <point x="252" y="537" type="line"/>
      <point x="538" y="537" type="line"/>
      <point x="521" y="680" type="line"/>
      <point x="70" y="680" type="line"/>
      <point x="70" y="0" type="line"/>
    </contour>
    <contour>
      <point x="494" y="882"/>
      <point x="458" y="919"/>
      <point x="410" y="919" type="curve" smooth="yes"/>
      <point x="366" y="919"/>
      <point x="327" y="882"/>
      <point x="327" y="836" type="curve" smooth="yes"/>
      <point x="327" y="789"/>
      <point x="366" y="753"/>
      <point x="410" y="753" type="curve" smooth="yes"/>
      <point x="458" y="753"/>
      <point x="494" y="789"/>
      <point x="494" y="836" type="curve" smooth="yes"/>
    </contour>
    <contour>
      <point x="283" y="882"/>
      <point x="247" y="919"/>
      <point x="199" y="919" type="curve" smooth="yes"/>
      <point x="155" y="919"/>
      <point x="116" y="882"/>
      <point x="116" y="836" type="curve" smooth="yes"/>
      <point x="116" y="789"/>
      <point x="155" y="753"/>
      <point x="199" y="753" type="curve" smooth="yes"/>
      <point x="247" y="753"/>
      <point x="283" y="789"/>
      <point x="283" y="836" type="curve" smooth="yes"/>
    </contour>
  </outline>
</glyph>
<glyph name="Igrave" format="1">
  <advance width="322"/>
  <unicode hex="00CC"/>
  <outline>
    <contour>
      <point x="70" y="0" type="line"/>
      <point x="252" y="0" type="line"/>
      <point x="252" y="680" type="line"/>
      <point x="70" y="680" type="line"/>
    </contour>
    <contour>
      <point x="0" y="932" type="line"/>
      <point x="111" y="738" type="line"/>
      <point x="247" y="738" type="line"/>
      <point x="175" y="932" type="line"/>
    </contour>
  </outline>
</glyph>
<glyph name="Iacute" format="1">
  <advance width="322"/>
  <unicode hex="00CD"/>
  <outline>
    <contour>
      <point x="70" y="0" type="line"/>
      <point x="252" y="0" type="line"/>
      <point x="252" y="680" type="line"/>
      <point x="70" y="680" type="line"/>
    </contour>
    <contour>
      <point x="145" y="932" type="line"/>
      <point x="73" y="738" type="line"/>
      <point x="209" y="738" type="line"/>
      <point x="320" y="932" type="line"/>
    </contour>
  </outline>
</glyph>
<glyph name="Icircumflex" format="1">
  <advance width="322"/>
  <unicode hex="00CE"/>
  <outline>
    <contour>
      <point x="70" y="0" type="line"/>
      <point x="252" y="0" type="line"/>
      <point x="252" y="680" type="line"/>
      <point x="70" y="680" type="line"/>
    </contour>
    <contour>
      <point x="114" y="739" type="line"/>
      <point x="167" y="801" type="line"/>
      <point x="219" y="739" type="line"/>
      <point x="392" y="739" type="line"/>
      <point x="218" y="938" type="line"/>
      <point x="111" y="938" type="line"/>
      <point x="-63" y="739" type="line"/>
    </contour>
  </outline>
</glyph>
<glyph name="Idieresis" format="1">
  <advance width="322"/>
  <unicode hex="00CF"/>
  <outline>
    <contour>
      <point x="70" y="0" type="line"/>
      <point x="252" y="0" type="line"/>
      <point x="252" y="680" type="line"/>
      <point x="70" y="680" type="line"/>
    </contour>
    <contour>
      <point x="345" y="882"/>
      <point x="309" y="919"/>
      <point x="261" y="919" type="curve" smooth="yes"/>
      <point x="217" y="919"/>
      <point x="178" y="882"/>
      <point x="178" y="836" type="curve" smooth="yes"/>
      <point x="178" y="789"/>
      <point x="217" y="753"/>
      <point x="261" y="753" type="curve" smooth="yes"/>
      <point x="309" y="753"/>
      <point x="345" y="789"/>
      <point x="345" y="836" type="curve" smooth="yes"/>
    </contour>
    <contour>
      <point x="134" y="882"/>
      <point x="98" y="919"/>
      <point x="50" y="919" type="curve" smooth="yes"/>
      <point x="6" y="919"/>
      <point x="-33" y="882"/>
      <point x="-33" y="836" type="curve" smooth="yes"/>
      <point x="-33" y="789"/>
      <point x="6" y="753"/>
      <point x="50" y="753" type="curve" smooth="yes"/>
      <point x="98" y="753"/>
      <point x="134" y="789"/>
      <point x="134" y="836" type="curve" smooth="yes"/>
    </contour>
  </outline>
</glyph>
<glyph name="Ntilde" format="1">
  <advance width="753"/>
  <unicode hex="00D1"/>
  <outline>
    <contour>
      <point x="70" y="0" type="line"/>
      <point x="252" y="0" type="line"/>
      <point x="252" y="358" type="line"/>
      <point x="513" y="0" type="line"/>
      <point x="683" y="0" type="line"/>
      <point x="683" y="680" type="line"/>
      <point x="501" y="680" type="line"/>
      <point x="501" y="311" type="line"/>
      <point x="239" y="680" type="line"/>
      <point x="70" y="680" type="line"/>
    </contour>
    <contour>
      <point x="311" y="750" type="line"/>
      <point x="311" y="762"/>
      <point x="322" y="779"/>
      <point x="333" y="779" type="curve" smooth="yes"/>
      <point x="362" y="779"/>
      <point x="392" y="745"/>
      <point x="433" y="745" type="curve" smooth="yes"/>
      <point x="495" y="745"/>
      <point x="556" y="784"/>
      <point x="556" y="905" type="curve"/>
      <point x="434" y="905" type="line"/>
      <point x="434" y="893"/>
      <point x="423" y="876"/>
      <point x="412" y="876" type="curve" smooth="yes"/>
      <point x="383" y="876"/>
      <point x="353" y="910"/>
      <point x="312" y="910" type="curve" smooth="yes"/>
      <point x="250" y="910"/>
      <point x="185" y="871"/>
      <point x="185" y="750" type="curve"/>
    </contour>
  </outline>
</glyph>
<glyph name="Otilde" format="1">
  <advance width="743"/>
  <unicode hex="00D5"/>
  <outline>
    <contour>
      <point x="267" y="138"/>
      <point x="227" y="223"/>
      <point x="227" y="338" type="curve" smooth="yes"/>
      <point x="227" y="461"/>
      <point x="282" y="542"/>
      <point x="373" y="542" type="curve" smooth="yes"/>
      <point x="475" y="542"/>
      <point x="516" y="458"/>
      <point x="516" y="344" type="curve" smooth="yes"/>
      <point x="516" y="206"/>
      <point x="464" y="138"/>
      <point x="370" y="138" type="curve" smooth="yes"/>
    </contour>
    <contour>
      <point x="166" y="694"/>
      <point x="40" y="548"/>
      <point x="40" y="337" type="curve" smooth="yes"/>
      <point x="40" y="141"/>
      <point x="152" y="-14"/>
      <point x="371" y="-14" type="curve" smooth="yes"/>
      <point x="580" y="-14"/>
      <point x="703" y="132"/>
      <point x="703" y="344" type="curve" smooth="yes"/>
      <point x="703" y="540"/>
      <point x="593" y="694"/>
      <point x="371" y="694" type="curve" smooth="yes"/>
    </contour>
    <contour>
      <point x="312" y="750" type="line"/>
      <point x="312" y="762"/>
      <point x="323" y="779"/>
      <point x="334" y="779" type="curve" smooth="yes"/>
      <point x="363" y="779"/>
      <point x="393" y="745"/>
      <point x="434" y="745" type="curve" smooth="yes"/>
      <point x="496" y="745"/>
      <point x="557" y="784"/>
      <point x="557" y="905" type="curve"/>
      <point x="435" y="905" type="line"/>
      <point x="435" y="893"/>
      <point x="424" y="876"/>
      <point x="413" y="876" type="curve" smooth="yes"/>
      <point x="384" y="876"/>
      <point x="354" y="910"/>
      <point x="313" y="910" type="curve" smooth="yes"/>
      <point x="251" y="910"/>
      <point x="186" y="871"/>
      <point x="186" y="750" type="curve"/>
    </contour>
  </outline>
</glyph>
<glyph name="Odieresis" format="1">
  <advance width="743"/>
  <unicode hex="00D6"/>
  <outline>
    <contour>
      <point x="267" y="138"/>
      <point x="227" y="223"/>
      <point x="227" y="338" type="curve" smooth="yes"/>
      <point x="227" y="461"/>
      <point x="282" y="542"/>
      <point x="373" y="542" type="curve" smooth="yes"/>
      <point x="475" y="542"/>
      <point x="516" y="458"/>
      <point x="516" y="344" type="curve" smooth="yes"/>
      <point x="516" y="206"/>
      <point x="464" y="138"/>
      <point x="370" y="138" type="curve" smooth="yes"/>
    </contour>
    <contour>
      <point x="166" y="694"/>
      <point x="40" y="548"/>
      <point x="40" y="337" type="curve" smooth="yes"/>
      <point x="40" y="141"/>
      <point x="152" y="-14"/>
      <point x="371" y="-14" type="curve" smooth="yes"/>
      <point x="580" y="-14"/>
      <point x="703" y="132"/>
      <point x="703" y="344" type="curve" smooth="yes"/>
      <point x="703" y="540"/>
      <point x="593" y="694"/>
      <point x="371" y="694" type="curve" smooth="yes"/>
    </contour>
    <contour>
      <point x="560" y="882"/>
      <point x="524" y="919"/>
      <point x="476" y="919" type="curve" smooth="yes"/>
      <point x="432" y="919"/>
      <point x="393" y="882"/>
      <point x="393" y="836" type="curve" smooth="yes"/>
      <point x="393" y="789"/>
      <point x="432" y="753"/>
      <point x="476" y="753" type="curve" smooth="yes"/>
      <point x="524" y="753"/>
      <point x="560" y="789"/>
      <point x="560" y="836" type="curve" smooth="yes"/>
    </contour>
    <contour>
      <point x="349" y="882"/>
      <point x="313" y="919"/>
      <point x="265" y="919" type="curve" smooth="yes"/>
      <point x="221" y="919"/>
      <point x="182" y="882"/>
      <point x="182" y="836" type="curve" smooth="yes"/>
      <point x="182" y="789"/>
      <point x="221" y="753"/>
      <point x="265" y="753" type="curve" smooth="yes"/>
      <point x="313" y="753"/>
      <point x="349" y="789"/>
      <point x="349" y="836" type="curve" smooth="yes"/>
    </contour>
  </outline>
</glyph>
<glyph name="multiply" format="1">
  <advance width="587"/>
  <unicode hex="00D7"/>
  <outline>
    <contour>
      <point x="20" y="50" type="line"/>
      <point x="184" y="24" type="line"/>
      <point x="213" y="60"/>
      <point x="250" y="109"/>
      <point x="280" y="146" type="curve"/>
      <point x="369" y="29" type="line"/>
      <point x="550" y="29" type="line"/>
      <point x="499" y="90"/>
      <point x="424" y="186"/>
      <point x="375" y="250" type="curve"/>
      <point x="567" y="484" type="line"/>
      <point x="382" y="484" type="line"/>
      <point x="287" y="364" type="line"/>
      <point x="191" y="487" type="line"/>
      <point x="28" y="463" type="line"/>
      <point x="190" y="259" type="line"/>
    </contour>
  </outline>
</glyph>
<glyph name="Oslash" format="1">
  <advance width="743"/>
  <unicode hex="00D8"/>
  <outline>
    <contour>
      <point x="166" y="694"/>
      <point x="40" y="548"/>
      <point x="40" y="337" type="curve" smooth="yes"/>
      <point x="40" y="141"/>
      <point x="152" y="-14"/>
      <point x="371" y="-14" type="curve" smooth="yes"/>
      <point x="580" y="-14"/>
      <point x="703" y="132"/>
      <point x="703" y="344" type="curve" smooth="yes"/>
      <point x="703" y="540"/>
      <point x="593" y="694"/>
      <point x="371" y="694" type="curve" smooth="yes"/>
    </contour>
    <contour>
      <point x="227" y="461"/>
      <point x="282" y="542"/>
      <point x="373" y="542" type="curve" smooth="yes"/>
      <point x="379" y="542"/>
      <point x="385" y="541"/>
      <point x="391" y="541" type="curve"/>
      <point x="252" y="208" type="line"/>
      <point x="235" y="242"/>
      <point x="227" y="287"/>
      <point x="227" y="338" type="curve" smooth="yes"/>
    </contour>
    <contour>
      <point x="360" y="138" type="line"/>
      <point x="496" y="459" type="line"/>
      <point x="510" y="427"/>
      <point x="516" y="388"/>
      <point x="516" y="344" type="curve" smooth="yes"/>
      <point x="516" y="206"/>
      <point x="464" y="138"/>
      <point x="370" y="138" type="curve"/>
    </contour>
  </outline>
</glyph>
<glyph name="Ugrave" format="1">
  <advance width="730"/>
  <unicode hex="00D9"/>
  <outline>
    <contour>
      <point x="488" y="269" type="line" smooth="yes"/>
      <point x="488" y="183"/>
      <point x="437" y="138"/>
      <point x="365" y="138" type="curve" smooth="yes"/>
      <point x="293" y="138"/>
      <point x="242" y="183"/>
      <point x="242" y="269" type="curve" smooth="yes"/>
      <point x="242" y="680" type="line"/>
      <point x="60" y="680" type="line"/>
      <point x="60" y="260" type="line" smooth="yes"/>
      <point x="60" y="82"/>
      <point x="183" y="-14"/>
      <point x="365" y="-14" type="curve" smooth="yes"/>
      <point x="547" y="-14"/>
      <point x="670" y="82"/>
      <point x="670" y="260" type="curve" smooth="yes"/>
      <point x="670" y="680" type="line"/>
      <point x="488" y="680" type="line"/>
    </contour>
    <contour>
      <point x="202" y="932" type="line"/>
      <point x="313" y="738" type="line"/>
      <point x="449" y="738" type="line"/>
      <point x="377" y="932" type="line"/>
    </contour>
  </outline>
</glyph>
<glyph name="Ucircumflex" format="1">
  <advance width="730"/>
  <unicode hex="00DB"/>
  <outline>
    <contour>
      <point x="488" y="269" type="line" smooth="yes"/>
      <point x="488" y="183"/>
      <point x="437" y="138"/>
      <point x="365" y="138" type="curve" smooth="yes"/>
      <point x="293" y="138"/>
      <point x="242" y="183"/>
      <point x="242" y="269" type="curve" smooth="yes"/>
      <point x="242" y="680" type="line"/>
      <point x="60" y="680" type="line"/>
      <point x="60" y="260" type="line" smooth="yes"/>
      <point x="60" y="82"/>
      <point x="183" y="-14"/>
      <point x="365" y="-14" type="curve" smooth="yes"/>
      <point x="547" y="-14"/>
      <point x="670" y="82"/>
      <point x="670" y="260" type="curve" smooth="yes"/>
      <point x="670" y="680" type="line"/>
      <point x="488" y="680" type="line"/>
    </contour>
    <contour>
      <point x="308" y="739" type="line"/>
      <point x="361" y="801" type="line"/>
      <point x="413" y="739" type="line"/>
      <point x="586" y="739" type="line"/>
      <point x="412" y="938" type="line"/>
      <point x="305" y="938" type="line"/>
      <point x="131" y="739" type="line"/>
    </contour>
  </outline>
</glyph>
<glyph name="Udieresis" format="1">
  <advance width="730"/>
  <unicode hex="00DC"/>
  <outline>
    <contour>
      <point x="488" y="269" type="line" smooth="yes"/>
      <point x="488" y="183"/>
      <point x="437" y="138"/>
      <point x="365" y="138" type="curve" smooth="yes"/>
      <point x="293" y="138"/>
      <point x="242" y="183"/>
      <point x="242" y="269" type="curve" smooth="yes"/>
      <point x="242" y="680" type="line"/>
      <point x="60" y="680" type="line"/>
      <point x="60" y="260" type="line" smooth="yes"/>
      <point x="60" y="82"/>
      <point x="183" y="-14"/>
      <point x="365" y="-14" type="curve" smooth="yes"/>
      <point x="547" y="-14"/>
      <point x="670" y="82"/>
      <point x="670" y="260" type="curve" smooth="yes"/>
      <point x="670" y="680" type="line"/>
      <point x="488" y="680" type="line"/>
    </contour>
    <contour>
      <point x="553" y="882"/>
      <point x="517" y="919"/>
      <point x="469" y="919" type="curve" smooth="yes"/>
      <point x="425" y="919"/>
      <point x="386" y="882"/>
      <point x="386" y="836" type="curve" smooth="yes"/>
      <point x="386" y="789"/>
      <point x="425" y="753"/>
      <point x="469" y="753" type="curve" smooth="yes"/>
      <point x="517" y="753"/>
      <point x="553" y="789"/>
      <point x="553" y="836" type="curve" smooth="yes"/>
    </contour>
    <contour>
      <point x="342" y="882"/>
      <point x="306" y="919"/>
      <point x="258" y="919" type="curve" smooth="yes"/>
      <point x="214" y="919"/>
      <point x="175" y="882"/>
      <point x="175" y="836" type="curve" smooth="yes"/>
      <point x="175" y="789"/>
      <point x="214" y="753"/>
      <point x="258" y="753" type="curve" smooth="yes"/>
      <point x="306" y="753"/>
      <point x="342" y="789"/>
      <point x="342" y="836" type="curve" smooth="yes"/>
    </contour>
  </outline>
</glyph>
<glyph name="Yacute" format="1">
  <advance width="669"/>
  <unicode hex="00DD"/>
  <outline>
    <contour>
      <point x="241" y="0" type="line"/>
      <point x="423" y="0" type="line"/>
      <point x="423" y="266" type="line"/>
      <point x="659" y="680" type="line"/>
      <point x="472" y="680" type="line"/>
      <point x="331" y="435" type="line"/>
      <point x="199" y="680" type="line"/>
      <point x="10" y="662" type="line"/>
      <point x="241" y="268" type="line"/>
    </contour>
    <contour>
      <point x="302" y="932" type="line"/>
      <point x="230" y="738" type="line"/>
      <point x="366" y="738" type="line"/>
      <point x="477" y="932" type="line"/>
    </contour>
  </outline>
</glyph>
<glyph name="Thorn" format="1">
  <advance width="666"/>
  <unicode hex="00DE"/>
  <outline>
    <contour>
      <point x="70" y="0" type="line"/>
      <point x="252" y="0" type="line"/>
      <point x="252" y="100" type="line"/>
      <point x="348" y="100" type="line" smooth="yes"/>
      <point x="496" y="100"/>
      <point x="636" y="174"/>
      <point x="636" y="337" type="curve" smooth="yes"/>
      <point x="636" y="502"/>
      <point x="508" y="582"/>
      <point x="356" y="582" type="curve" smooth="yes"/>
      <point x="252" y="582" type="line"/>
      <point x="252" y="680" type="line"/>
      <point x="70" y="680" type="line"/>
    </contour>
    <contour>
      <point x="350" y="439" type="line" smooth="yes"/>
      <point x="412" y="439"/>
      <point x="448" y="397"/>
      <point x="448" y="337" type="curve" smooth="yes"/>
      <point x="448" y="283"/>
      <point x="408" y="243"/>
      <point x="352" y="243" type="curve" smooth="yes"/>
      <point x="252" y="243" type="line"/>
      <point x="252" y="439" type="line"/>
    </contour>
  </outline>
</glyph>
<glyph name="germandbls" format="1">
  <advance width="656"/>
  <unicode hex="00DF"/>
  <outline>
    <contour>
      <point x="162" y="702"/>
      <point x="60" y="609"/>
      <point x="60" y="472" type="curve" smooth="yes"/>
      <point x="60" y="0" type="line"/>
      <point x="242" y="0" type="line"/>
      <point x="242" y="457" type="line" smooth="yes"/>
      <point x="242" y="518"/>
      <point x="290" y="549"/>
      <point x="329" y="549" type="curve" smooth="yes"/>
      <point x="381" y="549"/>
      <point x="404" y="518"/>
      <point x="404" y="485" type="curve" smooth="yes"/>
      <point x="404" y="453"/>
      <point x="374" y="416"/>
      <point x="327" y="416" type="curve" smooth="yes"/>
      <point x="300" y="416" type="line"/>
      <point x="300" y="286" type="line"/>
      <point x="379" y="286" type="line" smooth="yes"/>
      <point x="414" y="286"/>
      <point x="445" y="261"/>
      <point x="445" y="214" type="curve" smooth="yes"/>
      <point x="445" y="173"/>
      <point x="411" y="149"/>
      <point x="371" y="149" type="curve" smooth="yes"/>
      <point x="295" y="149" type="line"/>
      <point x="295" y="0" type="line"/>
      <point x="388" y="0" type="line" smooth="yes"/>
      <point x="533" y="0"/>
      <point x="630" y="77"/>
      <point x="630" y="200" type="curve" smooth="yes"/>
      <point x="630" y="270"/>
      <point x="586" y="341"/>
      <point x="529" y="364" type="curve"/>
      <point x="569" y="398"/>
      <point x="586" y="459"/>
      <point x="586" y="503" type="curve" smooth="yes"/>
      <point x="586" y="634"/>
      <point x="463" y="702"/>
      <point x="323" y="702" type="curve" smooth="yes"/>
    </contour>
  </outline>
</glyph>
<glyph name="atilde" format="1">
  <advance width="511"/>
  <unicode hex="00E3"/>
  <outline>
    <contour>
      <point x="180" y="502"/>
      <point x="97" y="479"/>
      <point x="46" y="456" type="curve"/>
      <point x="94" y="325" type="line"/>
      <point x="131" y="341"/>
      <point x="182" y="354"/>
      <point x="215" y="354" type="curve" smooth="yes"/>
      <point x="249" y="354"/>
      <point x="273" y="337"/>
      <point x="278" y="308" type="curve"/>
      <point x="220" y="308" type="line" smooth="yes"/>
      <point x="107" y="308"/>
      <point x="30" y="262"/>
      <point x="30" y="156" type="curve" smooth="yes"/>
      <point x="30" y="56"/>
      <point x="89" y="-11"/>
      <point x="212" y="-11" type="curve" smooth="yes"/>
      <point x="267" y="-11"/>
      <point x="317" y="8"/>
      <point x="347" y="37" type="curve"/>
      <point x="380" y="0" type="line"/>
      <point x="461" y="0" type="line"/>
      <point x="461" y="300" type="line" smooth="yes"/>
      <point x="461" y="423"/>
      <point x="392" y="502"/>
      <point x="260" y="502" type="curve" smooth="yes"/>
    </contour>
    <contour>
      <point x="197" y="600" type="line"/>
      <point x="197" y="612"/>
      <point x="208" y="629"/>
      <point x="219" y="629" type="curve" smooth="yes"/>
      <point x="248" y="629"/>
      <point x="278" y="595"/>
      <point x="319" y="595" type="curve" smooth="yes"/>
      <point x="381" y="595"/>
      <point x="442" y="634"/>
      <point x="442" y="755" type="curve"/>
      <point x="320" y="755" type="line"/>
      <point x="320" y="743"/>
      <point x="309" y="726"/>
      <point x="298" y="726" type="curve" smooth="yes"/>
      <point x="269" y="726"/>
      <point x="239" y="760"/>
      <point x="198" y="760" type="curve" smooth="yes"/>
      <point x="136" y="760"/>
      <point x="71" y="721"/>
      <point x="71" y="600" type="curve"/>
    </contour>
    <contour>
      <point x="198" y="135"/>
      <point x="182" y="147"/>
      <point x="182" y="163" type="curve" smooth="yes"/>
      <point x="182" y="185"/>
      <point x="199" y="198"/>
      <point x="223" y="198" type="curve" smooth="yes"/>
      <point x="279" y="198" type="line"/>
      <point x="279" y="162" type="line"/>
      <point x="258" y="145"/>
      <point x="236" y="135"/>
      <point x="215" y="135" type="curve" smooth="yes"/>
    </contour>
  </outline>
</glyph>
<glyph name="ae" format="1">
  <advance width="811"/>
  <unicode hex="00E6"/>
  <outline>
    <contour>
      <point x="491" y="502"/>
      <point x="439" y="487"/>
      <point x="396" y="459" type="curve"/>
      <point x="363" y="487"/>
      <point x="318" y="502"/>
      <point x="260" y="502" type="curve" smooth="yes"/>
      <point x="180" y="502"/>
      <point x="97" y="479"/>
      <point x="46" y="456" type="curve"/>
      <point x="94" y="325" type="line"/>
      <point x="131" y="341"/>
      <point x="182" y="354"/>
      <point x="215" y="354" type="curve" smooth="yes"/>
      <point x="249" y="354"/>
      <point x="273" y="337"/>
      <point x="278" y="308" type="curve"/>
      <point x="220" y="308" type="line" smooth="yes"/>
      <point x="107" y="308"/>
      <point x="30" y="262"/>
      <point x="30" y="156" type="curve" smooth="yes"/>
      <point x="30" y="56"/>
      <point x="89" y="-11"/>
      <point x="212" y="-11" type="curve" smooth="yes"/>
      <point x="285" y="-11"/>
      <point x="333" y="19"/>
      <point x="363" y="51" type="curve"/>
      <point x="412" y="8"/>
      <point x="482" y="-11"/>
      <point x="563" y="-11" type="curve" smooth="yes"/>
      <point x="603" y="-11"/>
      <point x="703" y="-3"/>
      <point x="759" y="38" type="curve"/>
      <point x="708" y="161" type="line"/>
      <point x="670" y="142"/>
      <point x="624" y="135"/>
      <point x="581" y="135" type="curve" smooth="yes"/>
      <point x="536" y="135"/>
      <point x="502" y="149"/>
      <point x="486" y="187" type="curve"/>
      <point x="781" y="187" type="line"/>
      <point x="781" y="250" type="line" smooth="yes"/>
      <point x="781" y="387"/>
      <point x="704" y="502"/>
      <point x="549" y="502" type="curve" smooth="yes"/>
    </contour>
    <contour>
      <point x="590" y="356"/>
      <point x="605" y="319"/>
      <point x="607" y="297" type="curve"/>
      <point x="481" y="297" type="line"/>
      <point x="490" y="334"/>
      <point x="511" y="356"/>
      <point x="544" y="356" type="curve" smooth="yes"/>
    </contour>
    <contour>
      <point x="277" y="155"/>
      <point x="253" y="135"/>
      <point x="215" y="135" type="curve" smooth="yes"/>
      <point x="198" y="135"/>
      <point x="182" y="147"/>
      <point x="182" y="163" type="curve" smooth="yes"/>
      <point x="182" y="185"/>
      <point x="199" y="198"/>
      <point x="223" y="198" type="curve" smooth="yes"/>
      <point x="290" y="198" type="line"/>
      <point x="291" y="189"/>
      <point x="293" y="181"/>
      <point x="295" y="173" type="curve"/>
    </contour>
  </outline>
</glyph>
<glyph name="ccedilla" format="1">
  <advance width="487"/>
  <unicode hex="00E7"/>
  <outline>
    <contour>
      <point x="348" y="354"/>
      <point x="371" y="348"/>
      <point x="410" y="328" type="curve"/>
      <point x="461" y="453" type="line"/>
      <point x="405" y="497"/>
      <point x="335" y="502"/>
      <point x="295" y="502" type="curve" smooth="yes"/>
      <point x="137" y="502"/>
      <point x="30" y="405"/>
      <point x="30" y="242" type="curve" smooth="yes"/>
      <point x="30" y="106"/>
      <point x="104" y="21"/>
      <point x="220" y="-3" type="curve"/>
      <point x="184" y="-94" type="line"/>
      <point x="239" y="-101"/>
      <point x="269" y="-113"/>
      <point x="269" y="-132" type="curve" smooth="yes"/>
      <point x="269" y="-144"/>
      <point x="255" y="-150"/>
      <point x="238" y="-150" type="curve" smooth="yes"/>
      <point x="219" y="-150"/>
      <point x="195" y="-141"/>
      <point x="182" y="-135" type="curve"/>
      <point x="144" y="-221" type="line"/>
      <point x="177" y="-246"/>
      <point x="221" y="-262"/>
      <point x="260" y="-262" type="curve" smooth="yes"/>
      <point x="333" y="-262"/>
      <point x="401" y="-219"/>
      <point x="401" y="-142" type="curve" smooth="yes"/>
      <point x="401" y="-107"/>
      <point x="383" y="-55"/>
      <point x="333" y="-39" type="curve"/>
      <point x="345" y="-7" type="line"/>
      <point x="381" y="-2"/>
      <point x="424" y="9"/>
      <point x="461" y="38" type="curve"/>
      <point x="410" y="163" type="line"/>
      <point x="371" y="143"/>
      <point x="345" y="137"/>
      <point x="313" y="137" type="curve" smooth="yes"/>
      <point x="264" y="137"/>
      <point x="218" y="173"/>
      <point x="218" y="242" type="curve" smooth="yes"/>
      <point x="218" y="312"/>
      <point x="264" y="354"/>
      <point x="313" y="354" type="curve" smooth="yes"/>
    </contour>
  </outline>
</glyph>
<glyph name="edieresis" format="1">
  <advance width="553"/>
  <unicode hex="00EB"/>
  <outline>
    <contour>
      <point x="144" y="502"/>
      <point x="30" y="405"/>
      <point x="30" y="242" type="curve" smooth="yes"/>
      <point x="30" y="65"/>
      <point x="147" y="-11"/>
      <point x="305" y="-11" type="curve" smooth="yes"/>
      <point x="345" y="-11"/>
      <point x="445" y="-3"/>
      <point x="501" y="38" type="curve"/>
      <point x="450" y="161" type="line"/>
      <point x="412" y="142"/>
      <point x="366" y="135"/>
      <point x="323" y="135" type="curve" smooth="yes"/>
      <point x="278" y="135"/>
      <point x="244" y="149"/>
      <point x="228" y="187" type="curve"/>
      <point x="523" y="187" type="line"/>
      <point x="523" y="250" type="line" smooth="yes"/>
      <point x="523" y="387"/>
      <point x="446" y="502"/>
      <point x="291" y="502" type="curve" smooth="yes"/>
    </contour>
    <contour>
      <point x="268" y="732"/>
      <point x="232" y="769"/>
      <point x="184" y="769" type="curve" smooth="yes"/>
      <point x="140" y="769"/>
      <point x="101" y="732"/>
      <point x="101" y="686" type="curve" smooth="yes"/>
      <point x="101" y="639"/>
      <point x="140" y="603"/>
      <point x="184" y="603" type="curve" smooth="yes"/>
      <point x="232" y="603"/>
      <point x="268" y="639"/>
      <point x="268" y="686" type="curve" smooth="yes"/>
    </contour>
    <contour>
      <point x="479" y="732"/>
      <point x="443" y="769"/>
      <point x="395" y="769" type="curve" smooth="yes"/>
      <point x="351" y="769"/>
      <point x="312" y="732"/>
      <point x="312" y="686" type="curve" smooth="yes"/>
      <point x="312" y="639"/>
      <point x="351" y="603"/>
      <point x="395" y="603" type="curve" smooth="yes"/>
      <point x="443" y="603"/>
      <point x="479" y="639"/>
      <point x="479" y="686" type="curve" smooth="yes"/>
    </contour>
    <contour>
      <point x="332" y="356"/>
      <point x="347" y="319"/>
      <point x="349" y="297" type="curve"/>
      <point x="223" y="297" type="line"/>
      <point x="232" y="334"/>
      <point x="253" y="356"/>
      <point x="286" y="356" type="curve" smooth="yes"/>
    </contour>
  </outline>
</glyph>
<glyph name="igrave" format="1">
  <advance width="302"/>
  <unicode hex="00EC"/>
  <outline>
    <contour>
      <point x="60" y="0" type="line"/>
      <point x="242" y="0" type="line"/>
      <point x="242" y="485" type="line"/>
      <point x="60" y="485" type="line"/>
    </contour>
    <contour>
      <point x="-2" y="787" type="line"/>
      <point x="112" y="588" type="line"/>
      <point x="252" y="588" type="line"/>
      <point x="178" y="787" type="line"/>
    </contour>
  </outline>
</glyph>
<glyph name="iacute" format="1">
  <advance width="302"/>
  <unicode hex="00ED"/>
  <outline>
    <contour>
      <point x="60" y="0" type="line"/>
      <point x="242" y="0" type="line"/>
      <point x="242" y="485" type="line"/>
      <point x="60" y="485" type="line"/>
    </contour>
    <contour>
      <point x="124" y="787" type="line"/>
      <point x="50" y="588" type="line"/>
      <point x="190" y="588" type="line"/>
      <point x="304" y="787" type="line"/>
    </contour>
  </outline>
</glyph>
<glyph name="icircumflex" format="1">
  <advance width="302"/>
  <unicode hex="00EE"/>
  <outline>
    <contour>
      <point x="60" y="0" type="line"/>
      <point x="242" y="0" type="line"/>
      <point x="242" y="485" type="line"/>
      <point x="60" y="485" type="line"/>
    </contour>
    <contour>
      <point x="101" y="588" type="line"/>
      <point x="154" y="650" type="line"/>
      <point x="206" y="588" type="line"/>
      <point x="379" y="588" type="line"/>
      <point x="205" y="787" type="line"/>
      <point x="98" y="787" type="line"/>
      <point x="-76" y="588" type="line"/>
    </contour>
  </outline>
</glyph>
<glyph name="idieresis" format="1">
  <advance width="302"/>
  <unicode hex="00EF"/>
  <outline>
    <contour>
      <point x="60" y="0" type="line"/>
      <point x="242" y="0" type="line"/>
      <point x="242" y="485" type="line"/>
      <point x="60" y="485" type="line"/>
    </contour>
    <contour>
      <point x="340" y="732"/>
      <point x="304" y="769"/>
      <point x="256" y="769" type="curve" smooth="yes"/>
      <point x="212" y="769"/>
      <point x="173" y="732"/>
      <point x="173" y="686" type="curve" smooth="yes"/>
      <point x="173" y="639"/>
      <point x="212" y="603"/>
      <point x="256" y="603" type="curve" smooth="yes"/>
      <point x="304" y="603"/>
      <point x="340" y="639"/>
      <point x="340" y="686" type="curve" smooth="yes"/>
    </contour>
    <contour>
      <point x="129" y="732"/>
      <point x="93" y="769"/>
      <point x="45" y="769" type="curve" smooth="yes"/>
      <point x="1" y="769"/>
      <point x="-38" y="732"/>
      <point x="-38" y="686" type="curve" smooth="yes"/>
      <point x="-38" y="639"/>
      <point x="1" y="603"/>
      <point x="45" y="603" type="curve" smooth="yes"/>
      <point x="93" y="603"/>
      <point x="129" y="639"/>
      <point x="129" y="686" type="curve" smooth="yes"/>
    </contour>
  </outline>
</glyph>
<glyph name="eth" format="1">
  <advance width="617"/>
  <unicode hex="00F0"/>
  <outline>
    <contour>
      <point x="449" y="611" type="line"/>
      <point x="363" y="702" type="line"/>
      <point x="305" y="657" type="line"/>
      <point x="269" y="675"/>
      <point x="231" y="689"/>
      <point x="192" y="697" type="curve"/>
      <point x="106" y="571" type="line"/>
      <point x="121" y="567"/>
      <point x="142" y="559"/>
      <point x="164" y="548" type="curve"/>
      <point x="110" y="506" type="line"/>
      <point x="201" y="419" type="line"/>
      <point x="275" y="476" type="line"/>
      <point x="306" y="450"/>
      <point x="334" y="419"/>
      <point x="355" y="387" type="curve"/>
      <point x="323" y="403"/>
      <point x="291" y="414"/>
      <point x="270" y="414" type="curve" smooth="yes"/>
      <point x="133" y="414"/>
      <point x="30" y="328"/>
      <point x="30" y="213" type="curve" smooth="yes"/>
      <point x="30" y="95"/>
      <point x="127" y="-13"/>
      <point x="279" y="-13" type="curve" smooth="yes"/>
      <point x="448" y="-13"/>
      <point x="577" y="80"/>
      <point x="577" y="267" type="curve" smooth="yes"/>
      <point x="577" y="374"/>
      <point x="512" y="495"/>
      <point x="413" y="583" type="curve"/>
    </contour>
    <contour>
      <point x="241" y="134"/>
      <point x="218" y="174"/>
      <point x="218" y="209" type="curve" smooth="yes"/>
      <point x="218" y="253"/>
      <point x="243" y="287"/>
      <point x="297" y="287" type="curve" smooth="yes"/>
      <point x="329" y="287"/>
      <point x="363" y="264"/>
      <point x="386" y="240" type="curve"/>
      <point x="374" y="168"/>
      <point x="334" y="134"/>
      <point x="286" y="134" type="curve" smooth="yes"/>
    </contour>
  </outline>
</glyph>
<glyph name="ntilde" format="1">
  <advance width="624"/>
  <unicode hex="00F1"/>
  <outline>
    <contour>
      <point x="301" y="502"/>
      <point x="231" y="466"/>
      <point x="189" y="442" type="curve"/>
      <point x="151" y="484" type="line"/>
      <point x="60" y="484" type="line"/>
      <point x="60" y="0" type="line"/>
      <point x="242" y="0" type="line"/>
      <point x="242" y="326" type="line"/>
      <point x="271" y="339"/>
      <point x="310" y="354"/>
      <point x="333" y="354" type="curve" smooth="yes"/>
      <point x="366" y="354"/>
      <point x="392" y="333"/>
      <point x="392" y="296" type="curve" smooth="yes"/>
      <point x="392" y="0" type="line"/>
      <point x="574" y="0" type="line"/>
      <point x="574" y="300" type="line" smooth="yes"/>
      <point x="574" y="416"/>
      <point x="521" y="502"/>
      <point x="383" y="502" type="curve" smooth="yes"/>
    </contour>
    <contour>
      <point x="245" y="600" type="line"/>
      <point x="245" y="612"/>
      <point x="256" y="629"/>
      <point x="267" y="629" type="curve" smooth="yes"/>
      <point x="296" y="629"/>
      <point x="326" y="595"/>
      <point x="367" y="595" type="curve" smooth="yes"/>
      <point x="429" y="595"/>
      <point x="490" y="634"/>
      <point x="490" y="755" type="curve"/>
      <point x="368" y="755" type="line"/>
      <point x="368" y="743"/>
      <point x="357" y="726"/>
      <point x="346" y="726" type="curve" smooth="yes"/>
      <point x="317" y="726"/>
      <point x="287" y="760"/>
      <point x="246" y="760" type="curve" smooth="yes"/>
      <point x="184" y="760"/>
      <point x="119" y="721"/>
      <point x="119" y="600" type="curve"/>
    </contour>
  </outline>
</glyph>
<glyph name="ograve" format="1">
  <advance width="610"/>
  <unicode hex="00F2"/>
  <outline>
    <contour>
      <point x="152" y="502"/>
      <point x="30" y="409"/>
      <point x="30" y="245" type="curve" smooth="yes"/>
      <point x="30" y="71"/>
      <point x="144" y="-11"/>
      <point x="301" y="-11" type="curve" smooth="yes"/>
      <point x="458" y="-11"/>
      <point x="580" y="76"/>
      <point x="580" y="240" type="curve" smooth="yes"/>
      <point x="580" y="414"/>
      <point x="466" y="502"/>
      <point x="305" y="502" type="curve" smooth="yes"/>
    </contour>
    <contour>
      <point x="248" y="137"/>
      <point x="218" y="180"/>
      <point x="218" y="245" type="curve" smooth="yes"/>
      <point x="218" y="313"/>
      <point x="250" y="354"/>
      <point x="307" y="354" type="curve" smooth="yes"/>
      <point x="362" y="354"/>
      <point x="392" y="305"/>
      <point x="392" y="240" type="curve" smooth="yes"/>
      <point x="392" y="172"/>
      <point x="360" y="137"/>
      <point x="303" y="137" type="curve" smooth="yes"/>
    </contour>
    <contour>
      <point x="147" y="787" type="line"/>
      <point x="261" y="588" type="line"/>
      <point x="401" y="588" type="line"/>
      <point x="327" y="787" type="line"/>
    </contour>
  </outline>
</glyph>
<glyph name="otilde" format="1">
  <advance width="610"/>
  <unicode hex="00F5"/>
  <outline>
    <contour>
      <point x="152" y="502"/>
      <point x="30" y="409"/>
      <point x="30" y="245" type="curve" smooth="yes"/>
      <point x="30" y="71"/>
      <point x="144" y="-11"/>
      <point x="301" y="-11" type="curve" smooth="yes"/>
      <point x="458" y="-11"/>
      <point x="580" y="76"/>
      <point x="580" y="240" type="curve" smooth="yes"/>
      <point x="580" y="414"/>
      <point x="466" y="502"/>
      <point x="305" y="502" type="curve" smooth="yes"/>
    </contour>
    <contour>
      <point x="248" y="137"/>
      <point x="218" y="180"/>
      <point x="218" y="245" type="curve" smooth="yes"/>
      <point x="218" y="313"/>
      <point x="250" y="354"/>
      <point x="307" y="354" type="curve" smooth="yes"/>
      <point x="362" y="354"/>
      <point x="392" y="305"/>
      <point x="392" y="240" type="curve" smooth="yes"/>
      <point x="392" y="172"/>
      <point x="360" y="137"/>
      <point x="303" y="137" type="curve" smooth="yes"/>
    </contour>
    <contour>
      <point x="244" y="600" type="line"/>
      <point x="244" y="612"/>
      <point x="255" y="629"/>
      <point x="266" y="629" type="curve" smooth="yes"/>
      <point x="295" y="629"/>
      <point x="325" y="595"/>
      <point x="366" y="595" type="curve" smooth="yes"/>
      <point x="428" y="595"/>
      <point x="489" y="634"/>
      <point x="489" y="755" type="curve"/>
      <point x="367" y="755" type="line"/>
      <point x="367" y="743"/>
      <point x="356" y="726"/>
      <point x="345" y="726" type="curve" smooth="yes"/>
      <point x="316" y="726"/>
      <point x="286" y="760"/>
      <point x="245" y="760" type="curve" smooth="yes"/>
      <point x="183" y="760"/>
      <point x="118" y="721"/>
      <point x="118" y="600" type="curve"/>
    </contour>
  </outline>
</glyph>
<glyph name="divide" format="1">
  <advance width="492"/>
  <unicode hex="00F7"/>
  <outline>
    <contour>
      <point x="337" y="143"/>
      <point x="297" y="183"/>
      <point x="246" y="183" type="curve" smooth="yes"/>
      <point x="194" y="183"/>
      <point x="154" y="143"/>
      <point x="154" y="91" type="curve" smooth="yes"/>
      <point x="154" y="39"/>
      <point x="194" y="0"/>
      <point x="246" y="0" type="curve" smooth="yes"/>
      <point x="297" y="0"/>
      <point x="337" y="39"/>
      <point x="337" y="91" type="curve" smooth="yes"/>
    </contour>
    <contour>
      <point x="337" y="511"/>
      <point x="297" y="551"/>
      <point x="246" y="551" type="curve" smooth="yes"/>
      <point x="194" y="551"/>
      <point x="154" y="511"/>
      <point x="154" y="459" type="curve" smooth="yes"/>
      <point x="154" y="407"/>
      <point x="194" y="368"/>
      <point x="246" y="368" type="curve" smooth="yes"/>
      <point x="297" y="368"/>
      <point x="337" y="407"/>
      <point x="337" y="459" type="curve" smooth="yes"/>
    </contour>
    <contour>
      <point x="472" y="207" type="line"/>
      <point x="462" y="340" type="line"/>
      <point x="20" y="340" type="line"/>
      <point x="31" y="207" type="line"/>
    </contour>
  </outline>
</glyph>
<glyph name="oslash" format="1">
  <advance width="610"/>
  <unicode hex="00F8"/>
  <outline>
    <contour>
      <point x="152" y="502"/>
      <point x="30" y="409"/>
      <point x="30" y="245" type="curve" smooth="yes"/>
      <point x="30" y="71"/>
      <point x="144" y="-11"/>
      <point x="301" y="-11" type="curve" smooth="yes"/>
      <point x="458" y="-11"/>
      <point x="580" y="76"/>
      <point x="580" y="240" type="curve" smooth="yes"/>
      <point x="580" y="414"/>
      <point x="466" y="502"/>
      <point x="305" y="502" type="curve" smooth="yes"/>
    </contour>
    <contour>
      <point x="210" y="313"/>
      <point x="250" y="360"/>
      <point x="307" y="360" type="curve"/>
      <point x="217" y="199" type="line"/>
      <point x="212" y="213"/>
      <point x="210" y="228"/>
      <point x="210" y="245" type="curve" smooth="yes"/>
    </contour>
    <contour>
      <point x="400" y="173"/>
      <point x="361" y="133"/>
      <point x="305" y="132" type="curve"/>
      <point x="393" y="284" type="line"/>
      <point x="397" y="270"/>
      <point x="400" y="255"/>
      <point x="400" y="240" type="curve" smooth="yes"/>
    </contour>
  </outline>
</glyph>
<glyph name="ugrave" format="1">
  <advance width="614"/>
  <unicode hex="00F9"/>
  <outline>
    <contour>
      <point x="318" y="-18"/>
      <point x="384" y="18"/>
      <point x="425" y="41" type="curve"/>
      <point x="463" y="0" type="line"/>
      <point x="554" y="0" type="line"/>
      <point x="554" y="484" type="line"/>
      <point x="372" y="484" type="line"/>
      <point x="372" y="158" type="line"/>
      <point x="343" y="144"/>
      <point x="308" y="130"/>
      <point x="286" y="130" type="curve" smooth="yes"/>
      <point x="253" y="130"/>
      <point x="232" y="151"/>
      <point x="232" y="188" type="curve" smooth="yes"/>
      <point x="232" y="484" type="line"/>
      <point x="50" y="484" type="line"/>
      <point x="50" y="184" type="line" smooth="yes"/>
      <point x="50" y="68"/>
      <point x="98" y="-18"/>
      <point x="236" y="-18" type="curve" smooth="yes"/>
    </contour>
    <contour>
      <point x="159" y="787" type="line"/>
      <point x="273" y="588" type="line"/>
      <point x="413" y="588" type="line"/>
      <point x="339" y="787" type="line"/>
    </contour>
  </outline>
</glyph>
<glyph name="udieresis" format="1">
  <advance width="614"/>
  <unicode hex="00FC"/>
  <outline>
    <contour>
      <point x="318" y="-18"/>
      <point x="384" y="18"/>
      <point x="425" y="41" type="curve"/>
      <point x="463" y="0" type="line"/>
      <point x="554" y="0" type="line"/>
      <point x="554" y="484" type="line"/>
      <point x="372" y="484" type="line"/>
      <point x="372" y="158" type="line"/>
      <point x="343" y="144"/>
      <point x="308" y="130"/>
      <point x="286" y="130" type="curve" smooth="yes"/>
      <point x="253" y="130"/>
      <point x="232" y="151"/>
      <point x="232" y="188" type="curve" smooth="yes"/>
      <point x="232" y="484" type="line"/>
      <point x="50" y="484" type="line"/>
      <point x="50" y="184" type="line" smooth="yes"/>
      <point x="50" y="68"/>
      <point x="98" y="-18"/>
      <point x="236" y="-18" type="curve" smooth="yes"/>
    </contour>
    <contour>
      <point x="277" y="732"/>
      <point x="241" y="769"/>
      <point x="193" y="769" type="curve" smooth="yes"/>
      <point x="149" y="769"/>
      <point x="110" y="732"/>
      <point x="110" y="686" type="curve" smooth="yes"/>
      <point x="110" y="639"/>
      <point x="149" y="603"/>
      <point x="193" y="603" type="curve" smooth="yes"/>
      <point x="241" y="603"/>
      <point x="277" y="639"/>
      <point x="277" y="686" type="curve" smooth="yes"/>
    </contour>
    <contour>
      <point x="488" y="732"/>
      <point x="452" y="769"/>
      <point x="404" y="769" type="curve" smooth="yes"/>
      <point x="360" y="769"/>
      <point x="321" y="732"/>
      <point x="321" y="686" type="curve" smooth="yes"/>
      <point x="321" y="639"/>
      <point x="360" y="603"/>
      <point x="404" y="603" type="curve" smooth="yes"/>
      <point x="452" y="603"/>
      <point x="488" y="639"/>
      <point x="488" y="686" type="curve" smooth="yes"/>
    </contour>
  </outline>
</glyph>
<glyph name="yacute" format="1">
  <advance width="569"/>
  <unicode hex="00FD"/>
  <outline>
    <contour>
      <point x="188" y="-2" type="line" smooth="yes"/>
      <point x="177" y="-31"/>
      <point x="112" y="-58"/>
      <point x="64" y="-78" type="curve"/>
      <point x="125" y="-219" type="line"/>
      <point x="221" y="-197"/>
      <point x="315" y="-136"/>
      <point x="346" y="-57" type="curve" smooth="yes"/>
      <point x="559" y="485" type="line"/>
      <point x="378" y="485" type="line"/>
      <point x="285" y="211" type="line"/>
      <point x="188" y="485" type="line"/>
      <point x="10" y="467" type="line"/>
      <point x="192" y="9" type="line"/>
    </contour>
    <contour>
      <point x="232" y="787" type="line"/>
      <point x="158" y="588" type="line"/>
      <point x="298" y="588" type="line"/>
      <point x="412" y="787" type="line"/>
    </contour>
  </outline>
</glyph>
<glyph name="ydieresis" format="1">
  <advance width="569"/>
  <unicode hex="00FF"/>
  <outline>
    <contour>
      <point x="188" y="-2" type="line" smooth="yes"/>
      <point x="177" y="-31"/>
      <point x="112" y="-58"/>
      <point x="64" y="-78" type="curve"/>
      <point x="125" y="-219" type="line"/>
      <point x="221" y="-197"/>
      <point x="315" y="-136"/>
      <point x="346" y="-57" type="curve" smooth="yes"/>
      <point x="559" y="485" type="line"/>
      <point x="378" y="485" type="line"/>
      <point x="285" y="211" type="line"/>
      <point x="188" y="485" type="line"/>
      <point x="10" y="467" type="line"/>
      <point x="192" y="9" type="line"/>
    </contour>
    <contour>
      <point x="264" y="732"/>
      <point x="228" y="769"/>
      <point x="180" y="769" type="curve" smooth="yes"/>
      <point x="136" y="769"/>
      <point x="97" y="732"/>
      <point x="97" y="686" type="curve" smooth="yes"/>
      <point x="97" y="639"/>
      <point x="136" y="603"/>
      <point x="180" y="603" type="curve" smooth="yes"/>
      <point x="228" y="603"/>
      <point x="264" y="639"/>
      <point x="264" y="686" type="curve" smooth="yes"/>
    </contour>
    <contour>
      <point x="475" y="732"/>
      <point x="439" y="769"/>
      <point x="391" y="769" type="curve" smooth="yes"/>
      <point x="347" y="769"/>
      <point x="308" y="732"/>
      <point x="308" y="686" type="curve" smooth="yes"/>
      <point x="308" y="639"/>
      <point x="347" y="603"/>
      <point x="391" y="603" type="curve" smooth="yes"/>
      <point x="439" y="603"/>
      <point x="475" y="639"/>
      <point x="475" y="686" type="curve" smooth="yes"/>
    </contour>
  </outline>
</glyph>
<glyph name="amacron" format="1">
  <advance width="511"/>
  <unicode hex="0101"/>
  <outline>
    <contour>
      <point x="180" y="502"/>
      <point x="97" y="479"/>
      <point x="46" y="456" type="curve"/>
      <point x="94" y="325" type="line"/>
      <point x="131" y="341"/>
      <point x="182" y="354"/>
      <point x="215" y="354" type="curve" smooth="yes"/>
      <point x="249" y="354"/>
      <point x="273" y="337"/>
      <point x="278" y="308" type="curve"/>
      <point x="220" y="308" type="line" smooth="yes"/>
      <point x="107" y="308"/>
      <point x="30" y="262"/>
      <point x="30" y="156" type="curve" smooth="yes"/>
      <point x="30" y="56"/>
      <point x="89" y="-11"/>
      <point x="212" y="-11" type="curve" smooth="yes"/>
      <point x="267" y="-11"/>
      <point x="317" y="8"/>
      <point x="347" y="37" type="curve"/>
      <point x="380" y="0" type="line"/>
      <point x="461" y="0" type="line"/>
      <point x="461" y="300" type="line" smooth="yes"/>
      <point x="461" y="423"/>
      <point x="392" y="502"/>
      <point x="260" y="502" type="curve" smooth="yes"/>
    </contour>
    <contour>
      <point x="113" y="756" type="line"/>
      <point x="113" y="613" type="line"/>
      <point x="403" y="613" type="line"/>
      <point x="403" y="756" type="line"/>
    </contour>
    <contour>
      <point x="198" y="135"/>
      <point x="182" y="147"/>
      <point x="182" y="163" type="curve" smooth="yes"/>
      <point x="182" y="185"/>
      <point x="199" y="198"/>
      <point x="223" y="198" type="curve" smooth="yes"/>
      <point x="279" y="198" type="line"/>
      <point x="279" y="162" type="line"/>
      <point x="258" y="145"/>
      <point x="236" y="135"/>
      <point x="215" y="135" type="curve" smooth="yes"/>
    </contour>
  </outline>
</glyph>
<glyph name="Aogonek" format="1">
  <advance width="711"/>
  <unicode hex="0104"/>
  <outline>
    <contour>
      <point x="353" y="462" type="line"/>
      <point x="421" y="277" type="line"/>
      <point x="288" y="277" type="line"/>
    </contour>
    <contour>
      <point x="447" y="680" type="line"/>
      <point x="265" y="680" type="line"/>
      <point x="10" y="0" type="line"/>
      <point x="191" y="0" type="line"/>
      <point x="238" y="134" type="line"/>
      <point x="473" y="134" type="line"/>
      <point x="522" y="0" type="line"/>
      <point x="506" y="-19"/>
      <point x="493" y="-68"/>
      <point x="493" y="-93" type="curve" smooth="yes"/>
      <point x="493" y="-168"/>
      <point x="543" y="-240"/>
      <point x="641" y="-240" type="curve" smooth="yes"/>
      <point x="694" y="-240"/>
      <point x="741" y="-220"/>
      <point x="764" y="-193" type="curve"/>
      <point x="703" y="-91" type="line"/>
      <point x="684" y="-108"/>
      <point x="672" y="-111"/>
      <point x="659" y="-111" type="curve" smooth="yes"/>
      <point x="641" y="-111"/>
      <point x="630" y="-95"/>
      <point x="630" y="-79" type="curve" smooth="yes"/>
      <point x="630" y="-53"/>
      <point x="674" y="3"/>
      <point x="701" y="18" type="curve"/>
    </contour>
  </outline>
</glyph>
<glyph name="aogonek" format="1">
  <advance width="511"/>
  <unicode hex="0105"/>
  <outline>
    <contour>
      <point x="180" y="502"/>
      <point x="97" y="479"/>
      <point x="46" y="456" type="curve"/>
      <point x="94" y="325" type="line"/>
      <point x="131" y="341"/>
      <point x="182" y="354"/>
      <point x="215" y="354" type="curve" smooth="yes"/>
      <point x="249" y="354"/>
      <point x="273" y="337"/>
      <point x="278" y="308" type="curve"/>
      <point x="220" y="308" type="line" smooth="yes"/>
      <point x="107" y="308"/>
      <point x="30" y="262"/>
      <point x="30" y="156" type="curve" smooth="yes"/>
      <point x="30" y="56"/>
      <point x="89" y="-11"/>
      <point x="212" y="-11" type="curve" smooth="yes"/>
      <point x="267" y="-11"/>
      <point x="317" y="8"/>
      <point x="347" y="37" type="curve"/>
      <point x="351" y="33" type="line"/>
      <point x="322" y="1"/>
      <point x="296" y="-40"/>
      <point x="296" y="-93" type="curve" smooth="yes"/>
      <point x="296" y="-168"/>
      <point x="346" y="-240"/>
      <point x="444" y="-240" type="curve" smooth="yes"/>
      <point x="497" y="-240"/>
      <point x="544" y="-220"/>
      <point x="567" y="-193" type="curve"/>
      <point x="506" y="-91" type="line"/>
      <point x="487" y="-108"/>
      <point x="475" y="-111"/>
      <point x="462" y="-111" type="curve" smooth="yes"/>
      <point x="444" y="-111"/>
      <point x="433" y="-95"/>
      <point x="433" y="-79" type="curve" smooth="yes"/>
      <point x="433" y="-56"/>
      <point x="448" y="-20"/>
      <point x="461" y="0" type="curve"/>
      <point x="461" y="300" type="line" smooth="yes"/>
      <point x="461" y="423"/>
      <point x="392" y="502"/>
      <point x="260" y="502" type="curve" smooth="yes"/>
    </contour>
    <contour>
      <point x="198" y="135"/>
      <point x="182" y="147"/>
      <point x="182" y="163" type="curve" smooth="yes"/>
      <point x="182" y="185"/>
      <point x="199" y="198"/>
      <point x="223" y="198" type="curve" smooth="yes"/>
      <point x="279" y="198" type="line"/>
      <point x="279" y="162" type="line"/>
      <point x="258" y="145"/>
      <point x="236" y="135"/>
      <point x="215" y="135" type="curve" smooth="yes"/>
    </contour>
  </outline>
</glyph>
<glyph name="cacute" format="1">
  <advance width="487"/>
  <unicode hex="0107"/>
  <outline>
    <contour>
      <point x="348" y="354"/>
      <point x="371" y="348"/>
      <point x="410" y="328" type="curve"/>
      <point x="461" y="453" type="line"/>
      <point x="405" y="497"/>
      <point x="335" y="502"/>
      <point x="295" y="502" type="curve" smooth="yes"/>
      <point x="137" y="502"/>
      <point x="30" y="405"/>
      <point x="30" y="242" type="curve" smooth="yes"/>
      <point x="30" y="79"/>
      <point x="137" y="-11"/>
      <point x="295" y="-11" type="curve" smooth="yes"/>
      <point x="335" y="-11"/>
      <point x="405" y="-6"/>
      <point x="461" y="38" type="curve"/>
      <point x="410" y="163" type="line"/>
      <point x="371" y="143"/>
      <point x="345" y="137"/>
      <point x="313" y="137" type="curve" smooth="yes"/>
      <point x="264" y="137"/>
      <point x="218" y="173"/>
      <point x="218" y="242" type="curve" smooth="yes"/>
      <point x="218" y="312"/>
      <point x="264" y="354"/>
      <point x="313" y="354" type="curve" smooth="yes"/>
    </contour>
    <contour>
      <point x="265" y="787" type="line"/>
      <point x="191" y="588" type="line"/>
      <point x="331" y="588" type="line"/>
      <point x="445" y="787" type="line"/>
    </contour>
  </outline>
</glyph>
<glyph name="Ccaron" format="1">
  <advance width="606"/>
  <unicode hex="010C"/>
  <outline>
    <contour>
      <point x="416" y="544"/>
      <point x="442" y="539"/>
      <point x="515" y="514" type="curve"/>
      <point x="569" y="637" type="line"/>
      <point x="516" y="673"/>
      <point x="437" y="693"/>
      <point x="369" y="693" type="curve" smooth="yes"/>
      <point x="166" y="693"/>
      <point x="40" y="547"/>
      <point x="40" y="337" type="curve" smooth="yes"/>
      <point x="40" y="130"/>
      <point x="151" y="-13"/>
      <point x="373" y="-13" type="curve" smooth="yes"/>
      <point x="443" y="-13"/>
      <point x="523" y="5"/>
      <point x="576" y="37" type="curve"/>
      <point x="507" y="173" type="line"/>
      <point x="472" y="152"/>
      <point x="428" y="136"/>
      <point x="378" y="136" type="curve" smooth="yes"/>
      <point x="292" y="136"/>
      <point x="228" y="210"/>
      <point x="228" y="338" type="curve" smooth="yes"/>
      <point x="228" y="462"/>
      <point x="289" y="544"/>
      <point x="371" y="544" type="curve" smooth="yes"/>
    </contour>
    <contour>
      <point x="141" y="938" type="line"/>
      <point x="315" y="739" type="line"/>
      <point x="422" y="739" type="line"/>
      <point x="596" y="938" type="line"/>
      <point x="423" y="938" type="line"/>
      <point x="371" y="876" type="line"/>
      <point x="318" y="938" type="line"/>
    </contour>
  </outline>
</glyph>
<glyph name="Dcaron" format="1">
  <advance width="719"/>
  <unicode hex="010E"/>
  <outline>
    <contour>
      <point x="70" y="0" type="line"/>
      <point x="364" y="0" type="line" smooth="yes"/>
      <point x="556" y="0"/>
      <point x="689" y="131"/>
      <point x="689" y="344" type="curve" smooth="yes"/>
      <point x="689" y="538"/>
      <point x="579" y="680"/>
      <point x="368" y="680" type="curve" smooth="yes"/>
      <point x="70" y="680" type="line"/>
    </contour>
    <contour>
      <point x="359" y="537" type="line" smooth="yes"/>
      <point x="451" y="537"/>
      <point x="501" y="457"/>
      <point x="501" y="344" type="curve" smooth="yes"/>
      <point x="501" y="208"/>
      <point x="437" y="143"/>
      <point x="352" y="143" type="curve" smooth="yes"/>
      <point x="252" y="143" type="line"/>
      <point x="252" y="537" type="line"/>
    </contour>
    <contour>
      <point x="105" y="938" type="line"/>
      <point x="279" y="739" type="line"/>
      <point x="386" y="739" type="line"/>
      <point x="560" y="938" type="line"/>
      <point x="387" y="938" type="line"/>
      <point x="335" y="876" type="line"/>
      <point x="282" y="938" type="line"/>
    </contour>
  </outline>
</glyph>
<glyph name="dcaron" format="1">
  <advance width="824"/>
  <unicode hex="010F"/>
  <outline>
    <contour>
      <point x="551" y="706" type="line"/>
      <point x="369" y="695" type="line"/>
      <point x="369" y="479" type="line"/>
      <point x="338" y="493"/>
      <point x="305" y="502"/>
      <point x="273" y="502" type="curve" smooth="yes"/>
      <point x="101" y="502"/>
      <point x="30" y="387"/>
      <point x="30" y="241" type="curve" smooth="yes"/>
      <point x="30" y="96"/>
      <point x="106" y="-11"/>
      <point x="263" y="-11" type="curve" smooth="yes"/>
      <point x="348" y="-11"/>
      <point x="398" y="23"/>
      <point x="427" y="50" type="curve"/>
      <point x="459" y="0" type="line"/>
      <point x="551" y="0" type="line"/>
    </contour>
    <contour>
      <point x="814" y="699"/>
      <point x="773" y="742"/>
      <point x="722" y="742" type="curve" smooth="yes"/>
      <point x="670" y="742"/>
      <point x="630" y="695"/>
      <point x="630" y="650" type="curve" smooth="yes"/>
      <point x="630" y="616"/>
      <point x="649" y="587"/>
      <point x="673" y="572" type="curve"/>
      <point x="667" y="554"/>
      <point x="640" y="532"/>
      <point x="621" y="521" type="curve"/>
      <point x="657" y="441" type="line"/>
      <point x="746" y="474"/>
      <point x="814" y="556"/>
      <point x="814" y="635" type="curve" smooth="yes"/>
    </contour>
    <contour>
      <point x="250" y="137"/>
      <point x="218" y="187"/>
      <point x="218" y="245" type="curve" smooth="yes"/>
      <point x="218" y="293"/>
      <point x="239" y="354"/>
      <point x="294" y="354" type="curve" smooth="yes"/>
      <point x="318" y="354"/>
      <point x="350" y="341"/>
      <point x="369" y="323" type="curve"/>
      <point x="369" y="151" type="line"/>
      <point x="352" y="143"/>
      <point x="324" y="137"/>
      <point x="309" y="137" type="curve" smooth="yes"/>
    </contour>
  </outline>
</glyph>
<glyph name="Dcroat" format="1">
  <advance width="727"/>
  <unicode hex="0110"/>
  <outline>
    <contour>
      <point x="0" y="413" type="line"/>
      <point x="17" y="270" type="line"/>
      <point x="78" y="270" type="line"/>
      <point x="78" y="0" type="line"/>
      <point x="372" y="0" type="line" smooth="yes"/>
      <point x="564" y="0"/>
      <point x="697" y="131"/>
      <point x="697" y="344" type="curve" smooth="yes"/>
      <point x="697" y="538"/>
      <point x="587" y="680"/>
      <point x="376" y="680" type="curve" smooth="yes"/>
      <point x="78" y="680" type="line"/>
      <point x="78" y="413" type="line"/>
    </contour>
    <contour>
      <point x="367" y="537" type="line" smooth="yes"/>
      <point x="459" y="537"/>
      <point x="509" y="457"/>
      <point x="509" y="344" type="curve" smooth="yes"/>
      <point x="509" y="208"/>
      <point x="445" y="143"/>
      <point x="360" y="143" type="curve" smooth="yes"/>
      <point x="260" y="143" type="line"/>
      <point x="260" y="270" type="line"/>
      <point x="386" y="270" type="line"/>
      <point x="369" y="413" type="line"/>
      <point x="260" y="413" type="line"/>
      <point x="260" y="537" type="line"/>
    </contour>
  </outline>
</glyph>
<glyph name="dcroat" format="1">
  <advance width="611"/>
  <unicode hex="0111"/>
  <outline>
    <contour>
      <point x="267" y="643" type="line"/>
      <point x="284" y="530" type="line"/>
      <point x="369" y="530" type="line"/>
      <point x="369" y="479" type="line"/>
      <point x="338" y="493"/>
      <point x="305" y="502"/>
      <point x="273" y="502" type="curve" smooth="yes"/>
      <point x="101" y="502"/>
      <point x="30" y="387"/>
      <point x="30" y="241" type="curve" smooth="yes"/>
      <point x="30" y="96"/>
      <point x="106" y="-11"/>
      <point x="263" y="-11" type="curve" smooth="yes"/>
      <point x="348" y="-11"/>
      <point x="398" y="23"/>
      <point x="427" y="50" type="curve"/>
      <point x="459" y="0" type="line"/>
      <point x="551" y="0" type="line"/>
      <point x="551" y="530" type="line"/>
      <point x="619" y="530" type="line"/>
      <point x="602" y="643" type="line"/>
      <point x="551" y="643" type="line"/>
      <point x="551" y="706" type="line"/>
      <point x="369" y="695" type="line"/>
      <point x="369" y="643" type="line"/>
    </contour>
    <contour>
      <point x="250" y="137"/>
      <point x="218" y="187"/>
      <point x="218" y="245" type="curve" smooth="yes"/>
      <point x="218" y="293"/>
      <point x="239" y="354"/>
      <point x="294" y="354" type="curve" smooth="yes"/>
      <point x="318" y="354"/>
      <point x="350" y="341"/>
      <point x="369" y="323" type="curve"/>
      <point x="369" y="151" type="line"/>
      <point x="352" y="143"/>
      <point x="324" y="137"/>
      <point x="309" y="137" type="curve" smooth="yes"/>
    </contour>
  </outline>
</glyph>
<glyph name="Emacron" format="1">
  <advance width="588"/>
  <unicode hex="0112"/>
  <outline>
    <contour>
      <point x="568" y="0" type="line"/>
      <point x="551" y="143" type="line"/>
      <point x="252" y="143" type="line"/>
      <point x="252" y="270" type="line"/>
      <point x="478" y="270" type="line"/>
      <point x="461" y="413" type="line"/>
      <point x="252" y="413" type="line"/>
      <point x="252" y="537" type="line"/>
      <point x="538" y="537" type="line"/>
      <point x="521" y="680" type="line"/>
      <point x="70" y="680" type="line"/>
      <point x="70" y="0" type="line"/>
    </contour>
    <contour>
      <point x="154" y="906" type="line"/>
      <point x="154" y="763" type="line"/>
      <point x="444" y="763" type="line"/>
      <point x="444" y="906" type="line"/>
    </contour>
  </outline>
</glyph>
<glyph name="Edotaccent" format="1">
  <advance width="588"/>
  <unicode hex="0116"/>
  <outline>
    <contour>
      <point x="70" y="0" type="line"/>
      <point x="568" y="0" type="line"/>
      <point x="551" y="143" type="line"/>
      <point x="252" y="143" type="line"/>
      <point x="252" y="270" type="line"/>
      <point x="478" y="270" type="line"/>
      <point x="461" y="413" type="line"/>
      <point x="252" y="413" type="line"/>
      <point x="252" y="537" type="line"/>
      <point x="538" y="537" type="line"/>
      <point x="521" y="680" type="line"/>
      <point x="70" y="680" type="line"/>
    </contour>
    <contour>
      <point x="397" y="887"/>
      <point x="360" y="928"/>
      <point x="307" y="928" type="curve" smooth="yes"/>
      <point x="256" y="928"/>
      <point x="215" y="887"/>
      <point x="215" y="836" type="curve" smooth="yes"/>
      <point x="215" y="783"/>
      <point x="256" y="744"/>
      <point x="307" y="744" type="curve" smooth="yes"/>
      <point x="360" y="744"/>
      <point x="397" y="783"/>
      <point x="397" y="836" type="curve" smooth="yes"/>
    </contour>
  </outline>
</glyph>
<glyph name="Eogonek" format="1">
  <advance width="588"/>
  <unicode hex="0118"/>
  <outline>
    <contour>
      <point x="70" y="0" type="line"/>
      <point x="334" y="0" type="line"/>
      <point x="322" y="-26"/>
      <point x="312" y="-69"/>
      <point x="312" y="-93" type="curve" smooth="yes"/>
      <point x="312" y="-168"/>
      <point x="362" y="-240"/>
      <point x="460" y="-240" type="curve" smooth="yes"/>
      <point x="513" y="-240"/>
      <point x="560" y="-220"/>
      <point x="583" y="-193" type="curve"/>
      <point x="522" y="-91" type="line"/>
      <point x="503" y="-108"/>
      <point x="491" y="-111"/>
      <point x="478" y="-111" type="curve" smooth="yes"/>
      <point x="460" y="-111"/>
      <point x="449" y="-95"/>
      <point x="449" y="-79" type="curve" smooth="yes"/>
      <point x="449" y="-55"/>
      <point x="463" y="-19"/>
      <point x="477" y="0" type="curve"/>
      <point x="568" y="0" type="line"/>
      <point x="551" y="143" type="line"/>
      <point x="252" y="143" type="line"/>
      <point x="252" y="270" type="line"/>
      <point x="478" y="270" type="line"/>
      <point x="461" y="413" type="line"/>
      <point x="252" y="413" type="line"/>
      <point x="252" y="537" type="line"/>
      <point x="538" y="537" type="line"/>
      <point x="521" y="680" type="line"/>
      <point x="70" y="680" type="line"/>
    </contour>
  </outline>
</glyph>
<glyph name="eogonek" format="1">
  <advance width="553"/>
  <unicode hex="0119"/>
  <outline>
    <contour>
      <point x="144" y="502"/>
      <point x="30" y="405"/>
      <point x="30" y="242" type="curve" smooth="yes"/>
      <point x="30" y="78"/>
      <point x="130" y="1"/>
      <point x="270" y="-9" type="curve"/>
      <point x="260" y="-36"/>
      <point x="252" y="-72"/>
      <point x="252" y="-93" type="curve" smooth="yes"/>
      <point x="252" y="-168"/>
      <point x="302" y="-240"/>
      <point x="400" y="-240" type="curve" smooth="yes"/>
      <point x="453" y="-240"/>
      <point x="500" y="-220"/>
      <point x="523" y="-193" type="curve"/>
      <point x="462" y="-91" type="line"/>
      <point x="443" y="-108"/>
      <point x="431" y="-111"/>
      <point x="418" y="-111" type="curve" smooth="yes"/>
      <point x="400" y="-111"/>
      <point x="389" y="-95"/>
      <point x="389" y="-79" type="curve" smooth="yes"/>
      <point x="389" y="-54"/>
      <point x="405" y="-16"/>
      <point x="419" y="3" type="curve"/>
      <point x="449" y="10"/>
      <point x="478" y="21"/>
      <point x="501" y="38" type="curve"/>
      <point x="450" y="161" type="line"/>
      <point x="412" y="142"/>
      <point x="366" y="135"/>
      <point x="323" y="135" type="curve" smooth="yes"/>
      <point x="278" y="135"/>
      <point x="244" y="149"/>
      <point x="228" y="187" type="curve"/>
      <point x="523" y="187" type="line"/>
      <point x="523" y="250" type="line" smooth="yes"/>
      <point x="523" y="387"/>
      <point x="446" y="502"/>
      <point x="291" y="502" type="curve" smooth="yes"/>
    </contour>
    <contour>
      <point x="332" y="356"/>
      <point x="347" y="319"/>
      <point x="349" y="297" type="curve"/>
      <point x="223" y="297" type="line"/>
      <point x="232" y="334"/>
      <point x="253" y="356"/>
      <point x="286" y="356" type="curve" smooth="yes"/>
    </contour>
  </outline>
</glyph>
<glyph name="Ecaron" format="1">
  <advance width="588"/>
  <unicode hex="011A"/>
  <outline>
    <contour>
      <point x="70" y="0" type="line"/>
      <point x="568" y="0" type="line"/>
      <point x="551" y="143" type="line"/>
      <point x="252" y="143" type="line"/>
      <point x="252" y="270" type="line"/>
      <point x="478" y="270" type="line"/>
      <point x="461" y="413" type="line"/>
      <point x="252" y="413" type="line"/>
      <point x="252" y="537" type="line"/>
      <point x="538" y="537" type="line"/>
      <point x="521" y="680" type="line"/>
      <point x="70" y="680" type="line"/>
    </contour>
    <contour>
      <point x="69" y="938" type="line"/>
      <point x="243" y="739" type="line"/>
      <point x="350" y="739" type="line"/>
      <point x="524" y="938" type="line"/>
      <point x="351" y="938" type="line"/>
      <point x="299" y="876" type="line"/>
      <point x="246" y="938" type="line"/>
    </contour>
  </outline>
</glyph>
<glyph name="gbreve" format="1">
  <advance width="611"/>
  <unicode hex="011F"/>
  <outline>
    <contour>
      <point x="551" y="484" type="line"/>
      <point x="460" y="484" type="line"/>
      <point x="429" y="444" type="line"/>
      <point x="386" y="475"/>
      <point x="328" y="502"/>
      <point x="273" y="502" type="curve" smooth="yes"/>
      <point x="101" y="502"/>
      <point x="30" y="387"/>
      <point x="30" y="241" type="curve" smooth="yes"/>
      <point x="30" y="96"/>
      <point x="106" y="-11"/>
      <point x="263" y="-11" type="curve" smooth="yes"/>
      <point x="307" y="-11"/>
      <point x="341" y="-2"/>
      <point x="369" y="10" type="curve"/>
      <point x="369" y="-25" type="line" smooth="yes"/>
      <point x="369" y="-56"/>
      <point x="323" y="-72"/>
      <point x="281" y="-72" type="curve" smooth="yes"/>
      <point x="241" y="-72"/>
      <point x="203" y="-67"/>
      <point x="137" y="-35" type="curve"/>
      <point x="82" y="-163" type="line"/>
      <point x="145" y="-205"/>
      <point x="243" y="-219"/>
      <point x="284" y="-219" type="curve" smooth="yes"/>
      <point x="456" y="-219"/>
      <point x="551" y="-146"/>
      <point x="551" y="-5" type="curve" smooth="yes"/>
    </contour>
    <contour>
      <point x="407" y="590"/>
      <point x="477" y="662"/>
      <point x="477" y="777" type="curve"/>
      <point x="348" y="777" type="line"/>
      <point x="348" y="744"/>
      <point x="329" y="721"/>
      <point x="297" y="721" type="curve" smooth="yes"/>
      <point x="265" y="721"/>
      <point x="246" y="744"/>
      <point x="246" y="777" type="curve"/>
      <point x="117" y="777" type="line"/>
      <point x="117" y="662"/>
      <point x="187" y="590"/>
      <point x="297" y="588" type="curve"/>
    </contour>
    <contour>
      <point x="369" y="151" type="line"/>
      <point x="352" y="143"/>
      <point x="324" y="137"/>
      <point x="309" y="137" type="curve" smooth="yes"/>
      <point x="250" y="137"/>
      <point x="218" y="187"/>
      <point x="218" y="245" type="curve" smooth="yes"/>
      <point x="218" y="293"/>
      <point x="239" y="354"/>
      <point x="294" y="354" type="curve" smooth="yes"/>
      <point x="318" y="354"/>
      <point x="350" y="341"/>
      <point x="369" y="323" type="curve"/>
    </contour>
  </outline>
</glyph>
<glyph name="Gcedilla" format="1">
  <advance width="676"/>
  <unicode hex="0122"/>
  <outline>
    <contour>
      <point x="436" y="544"/>
      <point x="482" y="539"/>
      <point x="555" y="514" type="curve"/>
      <point x="609" y="637" type="line"/>
      <point x="556" y="673"/>
      <point x="457" y="693"/>
      <point x="389" y="693" type="curve" smooth="yes"/>
      <point x="186" y="693"/>
      <point x="40" y="561"/>
      <point x="40" y="337" type="curve" smooth="yes"/>
      <point x="40" y="133"/>
      <point x="142" y="8"/>
      <point x="331" y="-10" type="curve"/>
      <point x="298" y="-94" type="line"/>
      <point x="353" y="-101"/>
      <point x="383" y="-113"/>
      <point x="383" y="-132" type="curve" smooth="yes"/>
      <point x="383" y="-144"/>
      <point x="369" y="-150"/>
      <point x="352" y="-150" type="curve" smooth="yes"/>
      <point x="333" y="-150"/>
      <point x="309" y="-141"/>
      <point x="296" y="-135" type="curve"/>
      <point x="258" y="-221" type="line"/>
      <point x="291" y="-246"/>
      <point x="335" y="-262"/>
      <point x="374" y="-262" type="curve" smooth="yes"/>
      <point x="447" y="-262"/>
      <point x="515" y="-219"/>
      <point x="515" y="-142" type="curve" smooth="yes"/>
      <point x="515" y="-107"/>
      <point x="497" y="-55"/>
      <point x="447" y="-39" type="curve"/>
      <point x="459" y="-7" type="line"/>
      <point x="517" y="0"/>
      <point x="580" y="15"/>
      <point x="616" y="37" type="curve"/>
      <point x="616" y="392" type="line"/>
      <point x="319" y="392" type="line"/>
      <point x="335" y="259" type="line"/>
      <point x="452" y="259" type="line"/>
      <point x="452" y="142" type="line"/>
      <point x="429" y="138"/>
      <point x="407" y="136"/>
      <point x="388" y="136" type="curve" smooth="yes"/>
      <point x="302" y="136"/>
      <point x="228" y="191"/>
      <point x="228" y="338" type="curve" smooth="yes"/>
      <point x="228" y="477"/>
      <point x="309" y="544"/>
      <point x="391" y="544" type="curve" smooth="yes"/>
    </contour>
  </outline>
</glyph>
<glyph name="gcedilla" format="1">
  <advance width="611"/>
  <unicode hex="0123"/>
  <outline>
    <contour>
      <point x="551" y="484" type="line"/>
      <point x="460" y="484" type="line"/>
      <point x="429" y="444" type="line"/>
      <point x="386" y="475"/>
      <point x="328" y="502"/>
      <point x="273" y="502" type="curve" smooth="yes"/>
      <point x="101" y="502"/>
      <point x="30" y="387"/>
      <point x="30" y="241" type="curve" smooth="yes"/>
      <point x="30" y="96"/>
      <point x="106" y="-11"/>
      <point x="263" y="-11" type="curve" smooth="yes"/>
      <point x="307" y="-11"/>
      <point x="341" y="-2"/>
      <point x="369" y="10" type="curve"/>
      <point x="369" y="-25" type="line" smooth="yes"/>
      <point x="369" y="-56"/>
      <point x="323" y="-72"/>
      <point x="281" y="-72" type="curve" smooth="yes"/>
      <point x="241" y="-72"/>
      <point x="203" y="-67"/>
      <point x="137" y="-35" type="curve"/>
      <point x="82" y="-163" type="line"/>
      <point x="145" y="-205"/>
      <point x="243" y="-219"/>
      <point x="284" y="-219" type="curve" smooth="yes"/>
      <point x="456" y="-219"/>
      <point x="551" y="-146"/>
      <point x="551" y="-5" type="curve" smooth="yes"/>
    </contour>
    <contour>
      <point x="209" y="584"/>
      <point x="250" y="541"/>
      <point x="301" y="541" type="curve" smooth="yes"/>
      <point x="353" y="541"/>
      <point x="393" y="588"/>
      <point x="393" y="633" type="curve" smooth="yes"/>
      <point x="393" y="667"/>
      <point x="374" y="696"/>
      <point x="350" y="711" type="curve"/>
      <point x="356" y="729"/>
      <point x="383" y="751"/>
      <point x="402" y="762" type="curve"/>
      <point x="366" y="842" type="line"/>
      <point x="277" y="809"/>
      <point x="209" y="727"/>
      <point x="209" y="648" type="curve" smooth="yes"/>
    </contour>
    <contour>
      <point x="369" y="151" type="line"/>
      <point x="352" y="143"/>
      <point x="324" y="137"/>
      <point x="309" y="137" type="curve" smooth="yes"/>
      <point x="250" y="137"/>
      <point x="218" y="187"/>
      <point x="218" y="245" type="curve" smooth="yes"/>
      <point x="218" y="293"/>
      <point x="239" y="354"/>
      <point x="294" y="354" type="curve" smooth="yes"/>
      <point x="318" y="354"/>
      <point x="350" y="341"/>
      <point x="369" y="323" type="curve"/>
    </contour>
  </outline>
</glyph>
<glyph name="Imacron" format="1">
  <advance width="322"/>
  <unicode hex="012A"/>
  <outline>
    <contour>
      <point x="70" y="0" type="line"/>
      <point x="252" y="0" type="line"/>
      <point x="252" y="680" type="line"/>
      <point x="70" y="680" type="line"/>
    </contour>
    <contour>
      <point x="17" y="906" type="line"/>
      <point x="17" y="763" type="line"/>
      <point x="307" y="763" type="line"/>
      <point x="307" y="906" type="line"/>
    </contour>
  </outline>
</glyph>
<glyph name="imacron" format="1">
  <advance width="302"/>
  <unicode hex="012B"/>
  <outline>
    <contour>
      <point x="60" y="0" type="line"/>
      <point x="242" y="0" type="line"/>
      <point x="242" y="485" type="line"/>
      <point x="60" y="485" type="line"/>
    </contour>
    <contour>
      <point x="6" y="756" type="line"/>
      <point x="6" y="613" type="line"/>
      <point x="296" y="613" type="line"/>
      <point x="296" y="756" type="line"/>
    </contour>
  </outline>
</glyph>
<glyph name="Iogonek" format="1">
  <advance width="322"/>
  <unicode hex="012E"/>
  <outline>
    <contour>
      <point x="70" y="0" type="line"/>
      <point x="56" y="-26"/>
      <point x="47" y="-68"/>
      <point x="47" y="-93" type="curve" smooth="yes"/>
      <point x="47" y="-168"/>
      <point x="97" y="-240"/>
      <point x="195" y="-240" type="curve" smooth="yes"/>
      <point x="248" y="-240"/>
      <point x="295" y="-220"/>
      <point x="318" y="-193" type="curve"/>
      <point x="257" y="-91" type="line"/>
      <point x="238" y="-108"/>
      <point x="226" y="-111"/>
      <point x="213" y="-111" type="curve" smooth="yes"/>
      <point x="195" y="-111"/>
      <point x="184" y="-95"/>
      <point x="184" y="-79" type="curve" smooth="yes"/>
      <point x="184" y="-53"/>
      <point x="226" y="-16"/>
      <point x="252" y="0" type="curve"/>
      <point x="252" y="680" type="line"/>
      <point x="70" y="680" type="line"/>
    </contour>
  </outline>
</glyph>
<glyph name="iogonek" format="1">
  <advance width="302"/>
  <unicode hex="012F"/>
  <outline>
    <contour>
      <point x="60" y="0" type="line"/>
      <point x="78" y="0" type="line"/>
      <point x="66" y="-26"/>
      <point x="56" y="-69"/>
      <point x="56" y="-93" type="curve" smooth="yes"/>
      <point x="56" y="-168"/>
      <point x="106" y="-240"/>
      <point x="204" y="-240" type="curve" smooth="yes"/>
      <point x="257" y="-240"/>
      <point x="304" y="-220"/>
      <point x="327" y="-193" type="curve"/>
      <point x="266" y="-91" type="line"/>
      <point x="247" y="-108"/>
      <point x="235" y="-111"/>
      <point x="222" y="-111" type="curve" smooth="yes"/>
      <point x="204" y="-111"/>
      <point x="193" y="-95"/>
      <point x="193" y="-79" type="curve" smooth="yes"/>
      <point x="193" y="-55"/>
      <point x="207" y="-19"/>
      <point x="221" y="0" type="curve"/>
      <point x="242" y="0" type="line"/>
      <point x="242" y="485" type="line"/>
      <point x="60" y="485" type="line"/>
    </contour>
    <contour>
      <point x="52" y="596"/>
      <point x="96" y="551"/>
      <point x="150" y="551" type="curve" smooth="yes"/>
      <point x="205" y="551"/>
      <point x="250" y="596"/>
      <point x="250" y="649" type="curve" smooth="yes"/>
      <point x="250" y="704"/>
      <point x="205" y="749"/>
      <point x="150" y="749" type="curve" smooth="yes"/>
      <point x="96" y="749"/>
      <point x="52" y="704"/>
      <point x="52" y="649" type="curve" smooth="yes"/>
    </contour>
  </outline>
</glyph>
<glyph name="Idotaccent" format="1">
  <advance width="322"/>
  <unicode hex="0130"/>
  <outline>
    <contour>
      <point x="70" y="0" type="line"/>
      <point x="252" y="0" type="line"/>
      <point x="252" y="680" type="line"/>
      <point x="70" y="680" type="line"/>
    </contour>
    <contour>
      <point x="239" y="887"/>
      <point x="202" y="928"/>
      <point x="149" y="928" type="curve" smooth="yes"/>
      <point x="98" y="928"/>
      <point x="57" y="887"/>
      <point x="57" y="836" type="curve" smooth="yes"/>
      <point x="57" y="783"/>
      <point x="98" y="744"/>
      <point x="149" y="744" type="curve" smooth="yes"/>
      <point x="202" y="744"/>
      <point x="239" y="783"/>
      <point x="239" y="836" type="curve" smooth="yes"/>
    </contour>
  </outline>
</glyph>
<glyph name="dotlessi" format="1">
  <advance width="302"/>
  <unicode hex="0131"/>
  <outline>
    <contour>
      <point x="60" y="0" type="line"/>
      <point x="242" y="0" type="line"/>
      <point x="242" y="485" type="line"/>
      <point x="60" y="485" type="line"/>
    </contour>
    <contour>
      <point x="151" y="545" type="move" name="top"/>
    </contour>
  </outline>
</glyph>
<glyph name="Kcedilla" format="1">
  <advance width="710"/>
  <unicode hex="0136"/>
  <outline>
    <contour>
      <point x="70" y="0" type="line"/>
      <point x="252" y="0" type="line"/>
      <point x="252" y="204" type="line"/>
      <point x="305" y="254" type="line"/>
      <point x="479" y="0" type="line"/>
      <point x="710" y="0" type="line"/>
      <point x="435" y="377" type="line"/>
      <point x="666" y="593" type="line"/>
      <point x="525" y="695" type="line"/>
      <point x="252" y="444" type="line"/>
      <point x="252" y="680" type="line"/>
      <point x="70" y="680" type="line"/>
    </contour>
    <contour>
      <point x="450" y="-64"/>
      <point x="409" y="-21"/>
      <point x="358" y="-21" type="curve" smooth="yes"/>
      <point x="306" y="-21"/>
      <point x="266" y="-68"/>
      <point x="266" y="-113" type="curve" smooth="yes"/>
      <point x="266" y="-147"/>
      <point x="285" y="-176"/>
      <point x="309" y="-191" type="curve"/>
      <point x="303" y="-209"/>
      <point x="276" y="-231"/>
      <point x="257" y="-242" type="curve"/>
      <point x="293" y="-322" type="line"/>
      <point x="382" y="-289"/>
      <point x="450" y="-207"/>
      <point x="450" y="-128" type="curve" smooth="yes"/>
    </contour>
  </outline>
</glyph>
<glyph name="kcedilla" format="1">
  <advance width="567"/>
  <unicode hex="0137"/>
  <outline>
    <contour>
      <point x="242" y="156" type="line"/>
      <point x="272" y="178" type="line"/>
      <point x="371" y="0" type="line"/>
      <point x="567" y="0" type="line"/>
      <point x="398" y="273" type="line"/>
      <point x="532" y="374" type="line"/>
      <point x="423" y="499" type="line"/>
      <point x="242" y="346" type="line"/>
      <point x="242" y="706" type="line"/>
      <point x="60" y="695" type="line"/>
      <point x="60" y="0" type="line"/>
      <point x="242" y="0" type="line"/>
    </contour>
    <contour>
      <point x="385" y="-64"/>
      <point x="344" y="-21"/>
      <point x="293" y="-21" type="curve" smooth="yes"/>
      <point x="241" y="-21"/>
      <point x="201" y="-68"/>
      <point x="201" y="-113" type="curve" smooth="yes"/>
      <point x="201" y="-147"/>
      <point x="220" y="-176"/>
      <point x="244" y="-191" type="curve"/>
      <point x="238" y="-209"/>
      <point x="211" y="-231"/>
      <point x="192" y="-242" type="curve"/>
      <point x="228" y="-322" type="line"/>
      <point x="317" y="-289"/>
      <point x="385" y="-207"/>
      <point x="385" y="-128" type="curve" smooth="yes"/>
    </contour>
  </outline>
</glyph>
